solid solid Created by Gmsh
facet normal 0 0 -1
  outer loop
    vertex 0.25 0 0
    vertex 0 0 0
    vertex 0.161458 0.161458 0
  endloop
endfacet 1,2,26,83,24,25,29,84,93,95,127,128
facet normal 0 0 -1
  outer loop
    vertex 0 0 0
    vertex 0 0.25 0
    vertex 0.161458 0.161458 0
  endloop
endfacet 2,1,29,127,26,27,28,83,84,128,135,136
facet normal 0 -0 -1
  outer loop
    vertex 1 0.25 0
    vertex 1 0 0
    vertex 0.838542 0.161458 0
  endloop
endfacet 3,4,20,41,18,19,23,42,51,53,85,86
facet normal 0 0 -1
  outer loop
    vertex 1 0 0
    vertex 0.75 0 0
    vertex 0.838542 0.161458 0
  endloop
endfacet 4,3,23,85,20,21,22,41,42,86,91,92
facet normal 0 0 -1
  outer loop
    vertex 0.75 1 0
    vertex 1 1 0
    vertex 0.838542 0.838542 0
  endloop
endfacet 5,6,14,169,12,13,17,43,44,170,179,181
facet normal 0 -0 -1
  outer loop
    vertex 1 1 0
    vertex 1 0.75 0
    vertex 0.838542 0.838542 0
  endloop
endfacet 6,5,17,43,14,15,16,44,49,50,169,170
facet normal 0 0 -1
  outer loop
    vertex 0 1 0
    vertex 0.25 1 0
    vertex 0.161458 0.838542 0
  endloop
endfacet 7,8,11,171,9,10,32,129,130,172,177,178
facet normal 0 0 -1
  outer loop
    vertex 0 0.75 0
    vertex 0 1 0
    vertex 0.161458 0.838542 0
  endloop
endfacet 8,7,32,129,11,30,31,130,137,139,171,172
facet normal 0 0 -1
  outer loop
    vertex 0.25 1 0
    vertex 0.5 1 0
    vertex 0.5 0.779762 0
  endloop
endfacet 9,10,12,177,7,11,13,34,37,171,178,179,180
facet normal 0 0 -1
  outer loop
    vertex 0.291667 0.708333 0
    vertex 0.25 1 0
    vertex 0.5 0.779762 0
  endloop
endfacet 10,9,11,37,7,12,13,31,32,34,38,171,177,178
facet normal 0 -0 -1
  outer loop
    vertex 0.25 1 0
    vertex 0.291667 0.708333 0
    vertex 0.161458 0.838542 0
  endloop
endfacet 11,7,10,32,8,9,31,37,38,171,177,178
facet normal 0 0 -1
  outer loop
    vertex 0.5 1 0
    vertex 0.75 1 0
    vertex 0.5 0.779762 0
  endloop
endfacet 12,9,13,179,5,10,14,34,37,169,177,180,181
facet normal 0 0 -1
  outer loop
    vertex 0.75 1 0
    vertex 0.708333 0.708333 0
    vertex 0.5 0.779762 0
  endloop
endfacet 13,12,14,34,5,9,10,16,17,33,37,169,179,181
facet normal 0 0 -1
  outer loop
    vertex 0.708333 0.708333 0
    vertex 0.75 1 0
    vertex 0.838542 0.838542 0
  endloop
endfacet 14,5,13,17,6,12,16,33,34,169,179,181
facet normal 0 -0 -1
  outer loop
    vertex 1 0.75 0
    vertex 1 0.5 0
    vertex 0.779762 0.5 0
  endloop
endfacet 15,16,18,49,6,17,19,33,35,43,50,51,52
facet normal 0 0 -1
  outer loop
    vertex 0.708333 0.708333 0
    vertex 1 0.75 0
    vertex 0.779762 0.5 0
  endloop
endfacet 16,15,17,33,6,13,14,18,19,34,35,43,49,50
facet normal -0 0 -1
  outer loop
    vertex 1 0.75 0
    vertex 0.708333 0.708333 0
    vertex 0.838542 0.838542 0
  endloop
endfacet 17,6,14,16,5,13,15,33,34,43,49,50
facet normal 0 -0 -1
  outer loop
    vertex 1 0.5 0
    vertex 1 0.25 0
    vertex 0.779762 0.5 0
  endloop
endfacet 18,15,19,51,3,16,20,33,35,41,49,52,53
facet normal 0 0 -1
  outer loop
    vertex 1 0.25 0
    vertex 0.708333 0.291667 0
    vertex 0.779762 0.5 0
  endloop
endfacet 19,18,20,35,3,15,16,22,23,33,36,41,51,53
facet normal 0 0 -1
  outer loop
    vertex 0.708333 0.291667 0
    vertex 1 0.25 0
    vertex 0.838542 0.161458 0
  endloop
endfacet 20,3,19,23,4,18,22,35,36,41,51,53
facet normal 0 0 -1
  outer loop
    vertex 0.75 0 0
    vertex 0.5 0 0
    vertex 0.5 0.220238 0
  endloop
endfacet 21,22,24,91,4,23,25,36,39,85,92,93,94
facet normal 0 -0 -1
  outer loop
    vertex 0.708333 0.291667 0
    vertex 0.75 0 0
    vertex 0.5 0.220238 0
  endloop
endfacet 22,21,23,36,4,19,20,24,25,35,39,85,91,92
facet normal 0 0 -1
  outer loop
    vertex 0.75 0 0
    vertex 0.708333 0.291667 0
    vertex 0.838542 0.161458 0
  endloop
endfacet 23,4,20,22,3,19,21,35,36,85,91,92
facet normal 0 0 -1
  outer loop
    vertex 0.5 0 0
    vertex 0.25 0 0
    vertex 0.5 0.220238 0
  endloop
endfacet 24,21,25,93,1,22,26,36,39,83,91,94,95
facet normal 0 0 -1
  outer loop
    vertex 0.25 0 0
    vertex 0.291667 0.291667 0
    vertex 0.5 0.220238 0
  endloop
endfacet 25,24,26,39,1,21,22,28,29,36,40,83,93,95
facet normal 0 0 -1
  outer loop
    vertex 0.291667 0.291667 0
    vertex 0.25 0 0
    vertex 0.161458 0.161458 0
  endloop
endfacet 26,1,25,29,2,24,28,39,40,83,93,95
facet normal 0 0 -1
  outer loop
    vertex 0 0.25 0
    vertex 0 0.5 0
    vertex 0.220238 0.5 0
  endloop
endfacet 27,28,30,135,2,29,31,38,40,127,136,137,138
facet normal -0 0 -1
  outer loop
    vertex 0.291667 0.291667 0
    vertex 0 0.25 0
    vertex 0.220238 0.5 0
  endloop
endfacet 28,27,29,40,2,25,26,30,31,38,39,127,135,136
facet normal 0 0 -1
  outer loop
    vertex 0 0.25 0
    vertex 0.291667 0.291667 0
    vertex 0.161458 0.161458 0
  endloop
endfacet 29,2,26,28,1,25,27,39,40,127,135,136
facet normal 0 0 -1
  outer loop
    vertex 0 0.5 0
    vertex 0 0.75 0
    vertex 0.220238 0.5 0
  endloop
endfacet 30,27,31,137,8,28,32,38,40,129,135,138,139
facet normal 0 0 -1
  outer loop
    vertex 0 0.75 0
    vertex 0.291667 0.708333 0
    vertex 0.220238 0.5 0
  endloop
endfacet 31,30,32,38,8,10,11,27,28,37,40,129,137,139
facet normal 0 0 -1
  outer loop
    vertex 0.291667 0.708333 0
    vertex 0 0.75 0
    vertex 0.161458 0.838542 0
  endloop
endfacet 32,8,11,31,7,10,30,37,38,129,137,139
facet normal 0 0 -1
  outer loop
    vertex 0.5 0.5 0
    vertex 0.708333 0.708333 0
    vertex 0.779762 0.5 0
  endloop
endfacet 33,16,34,35,13,14,15,17,18,19,36,37,38,39,40
facet normal -0 0 -1
  outer loop
    vertex 0.708333 0.708333 0
    vertex 0.5 0.5 0
    vertex 0.5 0.779762 0
  endloop
endfacet 34,13,33,37,9,10,12,14,16,17,35,36,38,39,40
facet normal 0 0 -1
  outer loop
    vertex 0.708333 0.291667 0
    vertex 0.5 0.5 0
    vertex 0.779762 0.5 0
  endloop
endfacet 35,19,33,36,15,16,18,20,22,23,34,37,38,39,40
facet normal 0 -0 -1
  outer loop
    vertex 0.5 0.5 0
    vertex 0.708333 0.291667 0
    vertex 0.5 0.220238 0
  endloop
endfacet 36,22,35,39,19,20,21,23,24,25,33,34,37,38,40
facet normal 0 0 -1
  outer loop
    vertex 0.5 0.5 0
    vertex 0.291667 0.708333 0
    vertex 0.5 0.779762 0
  endloop
endfacet 37,10,34,38,9,11,12,13,31,32,33,35,36,39,40
facet normal 0 -0 -1
  outer loop
    vertex 0.291667 0.708333 0
    vertex 0.5 0.5 0
    vertex 0.220238 0.5 0
  endloop
endfacet 38,31,37,40,10,11,27,28,30,32,33,34,35,36,39
facet normal 0 0 -1
  outer loop
    vertex 0.291667 0.291667 0
    vertex 0.5 0.5 0
    vertex 0.5 0.220238 0
  endloop
endfacet 39,25,36,40,21,22,24,26,28,29,33,34,35,37,38
facet normal -0 0 -1
  outer loop
    vertex 0.5 0.5 0
    vertex 0.291667 0.291667 0
    vertex 0.220238 0.5 0
  endloop
endfacet 40,28,38,39,25,26,27,29,30,31,33,34,35,36,37
facet normal -1 0 -0
  outer loop
    vertex 1 0.206493 0.197962
    vertex 1 0.25 0
    vertex 1 0 0
  endloop
endfacet 41,3,42,53,4,18,19,20,51,65,81,82,85,86
facet normal -1 0 0
  outer loop
    vertex 1 0 0.25
    vertex 1 0.206493 0.197962
    vertex 1 0 0
  endloop
endfacet 42,41,65,86,3,4,53,64,81,82,85,101,102
facet normal -1 0 0
  outer loop
    vertex 1 0.75 0
    vertex 1 0.822679 0.171634
    vertex 1 1 0
  endloop
endfacet 43,6,44,50,5,15,16,17,49,60,75,169,170
facet normal -1 0 0
  outer loop
    vertex 1 0.822679 0.171634
    vertex 1 1 0.25
    vertex 1 1 0
  endloop
endfacet 44,43,60,170,5,6,50,59,75,169,187,188
facet normal -1 0 0
  outer loop
    vertex 1 0.848244 0.847329
    vertex 1 0.75 1
    vertex 1 1 1
  endloop
endfacet 45,46,55,211,54,63,77,173,174,212,219,220,221
facet normal -1 0 0
  outer loop
    vertex 1 1 0.75
    vertex 1 0.848244 0.847329
    vertex 1 1 1
  endloop
endfacet 46,45,63,174,55,61,77,173,189,211,212
facet normal -1 -0 0
  outer loop
    vertex 1 0.25 1
    vertex 1 0.233735 0.837072
    vertex 1 0 1
  endloop
endfacet 47,48,56,213,57,68,69,87,88,214,222,223,224
facet normal -1 -0 0
  outer loop
    vertex 1 0.233735 0.837072
    vertex 1 0 0.75
    vertex 1 0 1
  endloop
endfacet 48,47,68,88,56,57,66,69,87,103,105,213,214
facet normal -1 0 -0
  outer loop
    vertex 1 0.612004 0.221487
    vertex 1 0.75 0
    vertex 1 0.5 0
  endloop
endfacet 49,15,50,52,6,16,17,18,43,51,74,75,80
facet normal -1 -0 0
  outer loop
    vertex 1 0.822679 0.171634
    vertex 1 0.75 0
    vertex 1 0.612004 0.221487
  endloop
endfacet 50,43,49,75,6,15,16,17,44,52,60,74,80
facet normal -1 0 0
  outer loop
    vertex 1 0.25 0
    vertex 1 0.395556 0.158362
    vertex 1 0.5 0
  endloop
endfacet 51,18,52,53,3,15,19,20,41,49,80,81
facet normal -1 0 0
  outer loop
    vertex 1 0.395556 0.158362
    vertex 1 0.612004 0.221487
    vertex 1 0.5 0
  endloop
endfacet 52,49,51,80,15,18,50,53,74,75,81
facet normal -1 -0 0
  outer loop
    vertex 1 0.395556 0.158362
    vertex 1 0.25 0
    vertex 1 0.206493 0.197962
  endloop
endfacet 53,41,51,81,3,18,19,20,42,52,65,80,82
facet normal -1 -0 0
  outer loop
    vertex 1 0.75 1
    vertex 1 0.664812 0.794584
    vertex 1 0.5 1
  endloop
endfacet 54,55,58,219,45,56,57,76,77,79,211,220,221,222
facet normal -1 0 -0
  outer loop
    vertex 1 0.75 1
    vertex 1 0.848244 0.847329
    vertex 1 0.664812 0.794584
  endloop
endfacet 55,45,54,77,46,58,63,76,79,211,219,220,221
facet normal -1 -0 0
  outer loop
    vertex 1 0.5 1
    vertex 1 0.233735 0.837072
    vertex 1 0.25 1
  endloop
endfacet 56,47,57,222,48,54,58,68,69,213,219,223,224
facet normal -1 0 0
  outer loop
    vertex 1 0.233735 0.837072
    vertex 1 0.5 1
    vertex 1 0.440641 0.692455
  endloop
endfacet 57,56,58,69,47,48,54,68,71,78,79,219,222
facet normal -1 0 -0
  outer loop
    vertex 1 0.5 1
    vertex 1 0.664812 0.794584
    vertex 1 0.440641 0.692455
  endloop
endfacet 58,54,57,79,55,56,69,71,76,77,78,219,222
facet normal -1 0 0
  outer loop
    vertex 1 1 0.25
    vertex 1 0.758036 0.390785
    vertex 1 1 0.5
  endloop
endfacet 59,60,62,187,44,61,72,73,74,75,170,188,189,190,191
facet normal -1 -0 0
  outer loop
    vertex 1 1 0.25
    vertex 1 0.822679 0.171634
    vertex 1 0.758036 0.390785
  endloop
endfacet 60,44,59,75,43,50,62,72,73,74,170,187,188
facet normal -1 0 0
  outer loop
    vertex 1 1 0.5
    vertex 1 0.831249 0.641112
    vertex 1 1 0.75
  endloop
endfacet 61,62,63,189,46,59,72,76,77,174,187,190,191
facet normal -1 0 0
  outer loop
    vertex 1 0.758036 0.390785
    vertex 1 0.831249 0.641112
    vertex 1 1 0.5
  endloop
endfacet 62,59,61,72,60,63,73,74,75,76,77,187,189,190,191
facet normal -1 0 0
  outer loop
    vertex 1 0.831249 0.641112
    vertex 1 0.848244 0.847329
    vertex 1 1 0.75
  endloop
endfacet 63,46,61,77,45,55,62,72,76,174,189
facet normal -1 -0 0
  outer loop
    vertex 1 0.168562 0.384214
    vertex 1 0 0.25
    vertex 1 0 0.5
  endloop
endfacet 64,65,67,101,42,66,70,82,86,102,103,104
facet normal -1 0 0
  outer loop
    vertex 1 0.206493 0.197962
    vertex 1 0 0.25
    vertex 1 0.168562 0.384214
  endloop
endfacet 65,42,64,82,41,53,67,70,81,86,101,102
facet normal -1 0 0
  outer loop
    vertex 1 0 0.75
    vertex 1 0.211768 0.57998
    vertex 1 0 0.5
  endloop
endfacet 66,67,68,103,48,64,69,70,71,88,101,104,105
facet normal -1 0 0
  outer loop
    vertex 1 0 0.5
    vertex 1 0.211768 0.57998
    vertex 1 0.168562 0.384214
  endloop
endfacet 67,64,66,70,65,68,69,71,82,101,103,104
facet normal -1 0 0
  outer loop
    vertex 1 0 0.75
    vertex 1 0.233735 0.837072
    vertex 1 0.211768 0.57998
  endloop
endfacet 68,48,66,69,47,56,57,67,70,71,88,103,105
facet normal -1 -0 0
  outer loop
    vertex 1 0.440641 0.692455
    vertex 1 0.211768 0.57998
    vertex 1 0.233735 0.837072
  endloop
endfacet 69,57,68,71,47,48,56,58,66,67,70,78,79
facet normal -1 0 -0
  outer loop
    vertex 1 0.211768 0.57998
    vertex 1 0.424838 0.395197
    vertex 1 0.168562 0.384214
  endloop
endfacet 70,67,71,82,64,65,66,68,69,73,74,78,80,81
facet normal -1 0 0
  outer loop
    vertex 1 0.440641 0.692455
    vertex 1 0.424838 0.395197
    vertex 1 0.211768 0.57998
  endloop
endfacet 71,69,70,78,57,58,66,67,68,73,74,79,80,81,82
facet normal -1 0 0
  outer loop
    vertex 1 0.758036 0.390785
    vertex 1 0.615481 0.556067
    vertex 1 0.831249 0.641112
  endloop
endfacet 72,62,73,76,59,60,61,63,74,75,77,78,79
facet normal -1 0 -0
  outer loop
    vertex 1 0.615481 0.556067
    vertex 1 0.758036 0.390785
    vertex 1 0.424838 0.395197
  endloop
endfacet 73,72,74,78,59,60,62,70,71,75,76,79,80,81,82
facet normal -1 0 0
  outer loop
    vertex 1 0.612004 0.221487
    vertex 1 0.424838 0.395197
    vertex 1 0.758036 0.390785
  endloop
endfacet 74,73,75,80,49,50,52,59,60,62,70,71,72,78,81,82
facet normal -1 0 0
  outer loop
    vertex 1 0.822679 0.171634
    vertex 1 0.612004 0.221487
    vertex 1 0.758036 0.390785
  endloop
endfacet 75,50,60,74,43,44,49,52,59,62,72,73,80
facet normal -1 0 0
  outer loop
    vertex 1 0.615481 0.556067
    vertex 1 0.664812 0.794584
    vertex 1 0.831249 0.641112
  endloop
endfacet 76,72,77,79,54,55,58,61,62,63,73,78
facet normal -1 0 0
  outer loop
    vertex 1 0.831249 0.641112
    vertex 1 0.664812 0.794584
    vertex 1 0.848244 0.847329
  endloop
endfacet 77,55,63,76,45,46,54,58,61,62,72,79
facet normal -1 -0 0
  outer loop
    vertex 1 0.615481 0.556067
    vertex 1 0.424838 0.395197
    vertex 1 0.440641 0.692455
  endloop
endfacet 78,71,73,79,57,58,69,70,72,74,76,80,81,82
facet normal -1 0 0
  outer loop
    vertex 1 0.440641 0.692455
    vertex 1 0.664812 0.794584
    vertex 1 0.615481 0.556067
  endloop
endfacet 79,58,76,78,54,55,57,69,71,72,73,77
facet normal -1 0 0
  outer loop
    vertex 1 0.395556 0.158362
    vertex 1 0.424838 0.395197
    vertex 1 0.612004 0.221487
  endloop
endfacet 80,52,74,81,49,50,51,53,70,71,73,75,78,82
facet normal -1 0 0
  outer loop
    vertex 1 0.424838 0.395197
    vertex 1 0.395556 0.158362
    vertex 1 0.206493 0.197962
  endloop
endfacet 81,53,80,82,41,42,51,52,65,70,71,73,74,78
facet normal -1 0 0
  outer loop
    vertex 1 0.168562 0.384214
    vertex 1 0.424838 0.395197
    vertex 1 0.206493 0.197962
  endloop
endfacet 82,65,70,81,41,42,53,64,67,71,73,74,78,80
facet normal 0 1 0
  outer loop
    vertex 0.160051 0 0.146538
    vertex 0.25 0 0
    vertex 0 0 0
  endloop
endfacet 83,1,84,95,2,24,25,26,93,107,125,127,128
facet normal 0 1 0
  outer loop
    vertex 0 0 0.25
    vertex 0.160051 0 0.146538
    vertex 0 0 0
  endloop
endfacet 84,83,107,128,1,2,95,106,125,127,145,146
facet normal 0 1 0
  outer loop
    vertex 0.75 0 0
    vertex 0.790269 0 0.193386
    vertex 1 0 0
  endloop
endfacet 85,4,86,92,3,21,22,23,41,42,91,102,120,121
facet normal -0 1 0
  outer loop
    vertex 0.790269 0 0.193386
    vertex 1 0 0.25
    vertex 1 0 0
  endloop
endfacet 86,42,85,102,3,4,41,64,65,92,101,120,121
facet normal 0 1 -0
  outer loop
    vertex 0.836187 0 0.816756
    vertex 0.75 0 1
    vertex 1 0 1
  endloop
endfacet 87,88,97,214,47,48,96,105,112,213,225,226,227
facet normal 0 1 -0
  outer loop
    vertex 1 0 0.75
    vertex 0.836187 0 0.816756
    vertex 1 0 1
  endloop
endfacet 88,48,87,105,47,66,68,97,103,112,213,214
facet normal 0 1 -0
  outer loop
    vertex 0.169568 0 0.84541
    vertex 0 0 1
    vertex 0.25 0 1
  endloop
endfacet 89,90,100,215,98,110,119,131,132,216,228,229,230
facet normal 0 1 0
  outer loop
    vertex 0 0 1
    vertex 0.169568 0 0.84541
    vertex 0 0 0.75
  endloop
endfacet 90,89,110,132,100,108,119,131,147,149,215,216
facet normal 0 1 0
  outer loop
    vertex 0.596956 0 0.155926
    vertex 0.75 0 0
    vertex 0.5 0 0
  endloop
endfacet 91,21,92,94,4,22,23,24,85,93,120,122
facet normal 0 1 0
  outer loop
    vertex 0.790269 0 0.193386
    vertex 0.75 0 0
    vertex 0.596956 0 0.155926
  endloop
endfacet 92,85,91,120,4,21,22,23,86,94,102,121,122
facet normal 0 1 0
  outer loop
    vertex 0.367867 0 0.213018
    vertex 0.5 0 0
    vertex 0.25 0 0
  endloop
endfacet 93,24,94,95,1,21,25,26,83,91,122,123,124,125
facet normal 0 1 0
  outer loop
    vertex 0.596956 0 0.155926
    vertex 0.5 0 0
    vertex 0.367867 0 0.213018
  endloop
endfacet 94,91,93,122,21,24,92,95,120,123,124,125
facet normal -0 1 0
  outer loop
    vertex 0.160051 0 0.146538
    vertex 0.367867 0 0.213018
    vertex 0.25 0 0
  endloop
endfacet 95,83,93,125,1,24,25,26,84,94,107,122,123,124
facet normal 0 1 0
  outer loop
    vertex 0.75 0 1
    vertex 0.626145 0 0.790695
    vertex 0.5 0 1
  endloop
endfacet 96,97,99,225,87,98,111,112,115,214,226,227,228
facet normal 0 1 0
  outer loop
    vertex 0.75 0 1
    vertex 0.836187 0 0.816756
    vertex 0.626145 0 0.790695
  endloop
endfacet 97,87,96,112,88,99,105,111,115,214,225,226,227
facet normal 0 1 -0
  outer loop
    vertex 0.369677 0 0.817415
    vertex 0.25 0 1
    vertex 0.5 0 1
  endloop
endfacet 98,99,100,228,89,96,115,116,119,215,225,229,230
facet normal 0 1 0
  outer loop
    vertex 0.5 0 1
    vertex 0.626145 0 0.790695
    vertex 0.369677 0 0.817415
  endloop
endfacet 99,96,98,115,97,100,111,112,116,119,225,228
facet normal 0 1 0
  outer loop
    vertex 0.369677 0 0.817415
    vertex 0.169568 0 0.84541
    vertex 0.25 0 1
  endloop
endfacet 100,89,98,119,90,99,110,115,116,215,228,229,230
facet normal 0 1 -0
  outer loop
    vertex 1 0 0.25
    vertex 0.806937 0 0.382825
    vertex 1 0 0.5
  endloop
endfacet 101,64,102,104,42,65,66,67,86,103,114,121
facet normal 0 1 0
  outer loop
    vertex 1 0 0.25
    vertex 0.790269 0 0.193386
    vertex 0.806937 0 0.382825
  endloop
endfacet 102,86,101,121,42,64,65,85,92,104,114,120
facet normal 0 1 0
  outer loop
    vertex 1 0 0.75
    vertex 1 0 0.5
    vertex 0.763109 0 0.597706
  endloop
endfacet 103,66,104,105,48,64,67,68,88,101,111,112,113,114
facet normal 0 1 0
  outer loop
    vertex 1 0 0.5
    vertex 0.806937 0 0.382825
    vertex 0.763109 0 0.597706
  endloop
endfacet 104,101,103,114,64,66,67,102,105,111,112,113,121
facet normal 0 1 0
  outer loop
    vertex 0.763109 0 0.597706
    vertex 0.836187 0 0.816756
    vertex 1 0 0.75
  endloop
endfacet 105,88,103,112,48,66,68,87,97,104,111,113,114
facet normal 0 1 0
  outer loop
    vertex 0.183221 0 0.367476
    vertex 0 0 0.25
    vertex 0 0 0.5
  endloop
endfacet 106,107,109,145,84,108,124,125,126,128,146,147,148
facet normal 0 1 -0
  outer loop
    vertex 0.160051 0 0.146538
    vertex 0 0 0.25
    vertex 0.183221 0 0.367476
  endloop
endfacet 107,84,106,125,83,95,109,124,126,128,145,146
facet normal 0 1 0
  outer loop
    vertex 0.22575 0 0.617385
    vertex 0 0 0.5
    vertex 0 0 0.75
  endloop
endfacet 108,109,110,147,90,106,116,118,119,126,132,145,148,149
facet normal 0 1 -0
  outer loop
    vertex 0.183221 0 0.367476
    vertex 0 0 0.5
    vertex 0.22575 0 0.617385
  endloop
endfacet 109,106,108,126,107,110,116,118,119,124,125,145,147,148
facet normal 0 1 0
  outer loop
    vertex 0.169568 0 0.84541
    vertex 0.22575 0 0.617385
    vertex 0 0 0.75
  endloop
endfacet 110,90,108,119,89,100,109,116,118,126,132,147,149
facet normal 0 1 0
  outer loop
    vertex 0.763109 0 0.597706
    vertex 0.494219 0 0.601749
    vertex 0.626145 0 0.790695
  endloop
endfacet 111,112,113,115,96,97,99,103,104,105,114,116,117,118
facet normal -0 1 0
  outer loop
    vertex 0.626145 0 0.790695
    vertex 0.836187 0 0.816756
    vertex 0.763109 0 0.597706
  endloop
endfacet 112,97,105,111,87,88,96,99,103,104,113,114,115
facet normal 0 1 -0
  outer loop
    vertex 0.587718 0 0.371564
    vertex 0.494219 0 0.601749
    vertex 0.763109 0 0.597706
  endloop
endfacet 113,111,114,117,103,104,105,112,115,116,118,120,121,122,123
facet normal 0 1 0
  outer loop
    vertex 0.763109 0 0.597706
    vertex 0.806937 0 0.382825
    vertex 0.587718 0 0.371564
  endloop
endfacet 114,104,113,121,101,102,103,105,111,112,117,120,122,123
facet normal 0 1 0
  outer loop
    vertex 0.626145 0 0.790695
    vertex 0.494219 0 0.601749
    vertex 0.369677 0 0.817415
  endloop
endfacet 115,99,111,116,96,97,98,100,112,113,117,118,119
facet normal 0 1 0
  outer loop
    vertex 0.494219 0 0.601749
    vertex 0.22575 0 0.617385
    vertex 0.369677 0 0.817415
  endloop
endfacet 116,115,118,119,98,99,100,108,109,110,111,113,117,126
facet normal -0 1 0
  outer loop
    vertex 0.363563 0 0.439643
    vertex 0.494219 0 0.601749
    vertex 0.587718 0 0.371564
  endloop
endfacet 117,113,118,123,111,114,115,116,120,121,122,124,126
facet normal 0 1 0
  outer loop
    vertex 0.494219 0 0.601749
    vertex 0.363563 0 0.439643
    vertex 0.22575 0 0.617385
  endloop
endfacet 118,116,117,126,108,109,110,111,113,115,119,123,124
facet normal 0 1 0
  outer loop
    vertex 0.369677 0 0.817415
    vertex 0.22575 0 0.617385
    vertex 0.169568 0 0.84541
  endloop
endfacet 119,100,110,116,89,90,98,99,108,109,115,118,126
facet normal 0 1 -0
  outer loop
    vertex 0.596956 0 0.155926
    vertex 0.587718 0 0.371564
    vertex 0.790269 0 0.193386
  endloop
endfacet 120,92,121,122,85,86,91,94,102,113,114,117,123
facet normal -0 1 0
  outer loop
    vertex 0.587718 0 0.371564
    vertex 0.806937 0 0.382825
    vertex 0.790269 0 0.193386
  endloop
endfacet 121,102,114,120,85,86,92,101,104,113,117,122,123
facet normal 0 1 0
  outer loop
    vertex 0.587718 0 0.371564
    vertex 0.596956 0 0.155926
    vertex 0.367867 0 0.213018
  endloop
endfacet 122,94,120,123,91,92,93,95,113,114,117,121,124,125
facet normal 0 1 -0
  outer loop
    vertex 0.367867 0 0.213018
    vertex 0.363563 0 0.439643
    vertex 0.587718 0 0.371564
  endloop
endfacet 123,117,122,124,93,94,95,113,114,118,120,121,125,126
facet normal -0 1 0
  outer loop
    vertex 0.183221 0 0.367476
    vertex 0.363563 0 0.439643
    vertex 0.367867 0 0.213018
  endloop
endfacet 124,123,125,126,93,94,95,106,107,109,117,118,122
facet normal 0 1 0
  outer loop
    vertex 0.183221 0 0.367476
    vertex 0.367867 0 0.213018
    vertex 0.160051 0 0.146538
  endloop
endfacet 125,95,107,124,83,84,93,94,106,109,122,123,126
facet normal 0 1 0
  outer loop
    vertex 0.183221 0 0.367476
    vertex 0.22575 0 0.617385
    vertex 0.363563 0 0.439643
  endloop
endfacet 126,109,118,124,106,107,108,110,116,117,119,123,125
facet normal 1 0 0
  outer loop
    vertex 0 0.25 0
    vertex 0 0.177321 0.171634
    vertex 0 0 0
  endloop
endfacet 127,2,128,136,1,27,28,29,83,84,135,146,161
facet normal 1 0 0
  outer loop
    vertex 0 0.177321 0.171634
    vertex 0 0 0.25
    vertex 0 0 0
  endloop
endfacet 128,84,127,146,1,2,83,106,107,136,145,161
facet normal 1 0 0
  outer loop
    vertex 0 0.793507 0.197962
    vertex 0 0.75 0
    vertex 0 1 0
  endloop
endfacet 129,8,130,139,7,30,31,32,137,151,167,168,171,172
facet normal 1 0 0
  outer loop
    vertex 0 1 0.25
    vertex 0 0.793507 0.197962
    vertex 0 1 0
  endloop
endfacet 130,129,151,172,7,8,139,150,167,168,171,192
facet normal 1 0 -0
  outer loop
    vertex 0 0.151756 0.847329
    vertex 0 0.25 1
    vertex 0 0 1
  endloop
endfacet 131,132,141,216,89,90,140,149,163,215,231,232,233
facet normal 1 0 0
  outer loop
    vertex 0 0 0.75
    vertex 0 0.151756 0.847329
    vertex 0 0 1
  endloop
endfacet 132,90,131,149,89,108,110,141,147,163,215,216
facet normal 1 -0 0
  outer loop
    vertex 0 0.75 1
    vertex 0 0.766265 0.837072
    vertex 0 1 1
  endloop
endfacet 133,134,142,217,143,154,155,175,176,218,234,235,236
facet normal 1 -0 0
  outer loop
    vertex 0 0.766265 0.837072
    vertex 0 1 0.75
    vertex 0 1 1
  endloop
endfacet 134,133,154,176,142,143,152,155,175,193,196,217,218
facet normal 1 0 0
  outer loop
    vertex 0 0.387996 0.221487
    vertex 0 0.25 0
    vertex 0 0.5 0
  endloop
endfacet 135,27,136,138,2,28,29,30,127,137,160,161,166
facet normal 1 -0 0
  outer loop
    vertex 0 0.177321 0.171634
    vertex 0 0.25 0
    vertex 0 0.387996 0.221487
  endloop
endfacet 136,127,135,161,2,27,28,29,128,138,146,160,166
facet normal 1 0 0
  outer loop
    vertex 0 0.75 0
    vertex 0 0.604444 0.158362
    vertex 0 0.5 0
  endloop
endfacet 137,30,138,139,8,27,31,32,129,135,166,167
facet normal 1 0 0
  outer loop
    vertex 0 0.604444 0.158362
    vertex 0 0.387996 0.221487
    vertex 0 0.5 0
  endloop
endfacet 138,135,137,166,27,30,136,139,160,161,167
facet normal 1 -0 0
  outer loop
    vertex 0 0.604444 0.158362
    vertex 0 0.75 0
    vertex 0 0.793507 0.197962
  endloop
endfacet 139,129,137,167,8,30,31,32,130,138,151,166,168
facet normal 1 -0 0
  outer loop
    vertex 0 0.25 1
    vertex 0 0.335188 0.794584
    vertex 0 0.5 1
  endloop
endfacet 140,141,144,231,131,142,143,162,163,165,216,232,233,234
facet normal 1 0 0
  outer loop
    vertex 0 0.25 1
    vertex 0 0.151756 0.847329
    vertex 0 0.335188 0.794584
  endloop
endfacet 141,131,140,163,132,144,149,162,165,216,231,232,233
facet normal 1 -0 0
  outer loop
    vertex 0 0.5 1
    vertex 0 0.766265 0.837072
    vertex 0 0.75 1
  endloop
endfacet 142,133,143,234,134,140,144,154,155,217,231,235,236
facet normal 1 0 0
  outer loop
    vertex 0 0.766265 0.837072
    vertex 0 0.5 1
    vertex 0 0.559359 0.692455
  endloop
endfacet 143,142,144,155,133,134,140,154,157,164,165,231,234
facet normal 1 0 0
  outer loop
    vertex 0 0.5 1
    vertex 0 0.335188 0.794584
    vertex 0 0.559359 0.692455
  endloop
endfacet 144,140,143,165,141,142,155,157,162,163,164,231,234
facet normal 1 0 0
  outer loop
    vertex 0 0 0.25
    vertex 0 0.241964 0.390785
    vertex 0 0 0.5
  endloop
endfacet 145,106,146,148,84,107,108,109,128,147,158,159,160,161
facet normal 1 -0 0
  outer loop
    vertex 0 0 0.25
    vertex 0 0.177321 0.171634
    vertex 0 0.241964 0.390785
  endloop
endfacet 146,128,145,161,84,106,107,127,136,148,158,159,160
facet normal 1 0 0
  outer loop
    vertex 0 0 0.5
    vertex 0 0.168751 0.641112
    vertex 0 0 0.75
  endloop
endfacet 147,108,148,149,90,106,109,110,132,145,158,162,163
facet normal 1 0 0
  outer loop
    vertex 0 0.241964 0.390785
    vertex 0 0.168751 0.641112
    vertex 0 0 0.5
  endloop
endfacet 148,145,147,158,106,108,109,146,149,159,160,161,162,163
facet normal 1 0 0
  outer loop
    vertex 0 0.168751 0.641112
    vertex 0 0.151756 0.847329
    vertex 0 0 0.75
  endloop
endfacet 149,132,147,163,90,108,110,131,141,148,158,162
facet normal 1 -0 0
  outer loop
    vertex 0 0.831438 0.384214
    vertex 0 1 0.25
    vertex 0 1 0.5
  endloop
endfacet 150,151,153,192,130,152,156,168,172,193,194,195
facet normal 1 0 0
  outer loop
    vertex 0 0.793507 0.197962
    vertex 0 1 0.25
    vertex 0 0.831438 0.384214
  endloop
endfacet 151,130,150,168,129,139,153,156,167,172,192
facet normal 1 0 0
  outer loop
    vertex 0 1 0.75
    vertex 0 0.788232 0.57998
    vertex 0 1 0.5
  endloop
endfacet 152,153,154,193,134,150,155,156,157,176,192,194,195,196
facet normal 1 0 0
  outer loop
    vertex 0 1 0.5
    vertex 0 0.788232 0.57998
    vertex 0 0.831438 0.384214
  endloop
endfacet 153,150,152,156,151,154,155,157,168,192,193,194,195
facet normal 1 0 0
  outer loop
    vertex 0 1 0.75
    vertex 0 0.766265 0.837072
    vertex 0 0.788232 0.57998
  endloop
endfacet 154,134,152,155,133,142,143,153,156,157,176,193,196
facet normal 1 -0 0
  outer loop
    vertex 0 0.559359 0.692455
    vertex 0 0.788232 0.57998
    vertex 0 0.766265 0.837072
  endloop
endfacet 155,143,154,157,133,134,142,144,152,153,156,164,165
facet normal 1 0 0
  outer loop
    vertex 0 0.788232 0.57998
    vertex 0 0.575162 0.395197
    vertex 0 0.831438 0.384214
  endloop
endfacet 156,153,157,168,150,151,152,154,155,159,160,164,166,167
facet normal 1 0 0
  outer loop
    vertex 0 0.559359 0.692455
    vertex 0 0.575162 0.395197
    vertex 0 0.788232 0.57998
  endloop
endfacet 157,155,156,164,143,144,152,153,154,159,160,165,166,167,168
facet normal 1 0 -0
  outer loop
    vertex 0 0.241964 0.390785
    vertex 0 0.384519 0.556067
    vertex 0 0.168751 0.641112
  endloop
endfacet 158,148,159,162,145,146,147,149,160,161,163,164,165
facet normal 1 0 0
  outer loop
    vertex 0 0.384519 0.556067
    vertex 0 0.241964 0.390785
    vertex 0 0.575162 0.395197
  endloop
endfacet 159,158,160,164,145,146,148,156,157,161,162,165,166,167,168
facet normal 1 0 -0
  outer loop
    vertex 0 0.387996 0.221487
    vertex 0 0.575162 0.395197
    vertex 0 0.241964 0.390785
  endloop
endfacet 160,159,161,166,135,136,138,145,146,148,156,157,158,164,167,168
facet normal 1 0 0
  outer loop
    vertex 0 0.177321 0.171634
    vertex 0 0.387996 0.221487
    vertex 0 0.241964 0.390785
  endloop
endfacet 161,136,146,160,127,128,135,138,145,148,158,159,166
facet normal 1 0 0
  outer loop
    vertex 0 0.384519 0.556067
    vertex 0 0.335188 0.794584
    vertex 0 0.168751 0.641112
  endloop
endfacet 162,158,163,165,140,141,144,147,148,149,159,164
facet normal 1 0 -0
  outer loop
    vertex 0 0.168751 0.641112
    vertex 0 0.335188 0.794584
    vertex 0 0.151756 0.847329
  endloop
endfacet 163,141,149,162,131,132,140,144,147,148,158,165
facet normal 1 -0 0
  outer loop
    vertex 0 0.384519 0.556067
    vertex 0 0.575162 0.395197
    vertex 0 0.559359 0.692455
  endloop
endfacet 164,157,159,165,143,144,155,156,158,160,162,166,167,168
facet normal 1 0 0
  outer loop
    vertex 0 0.559359 0.692455
    vertex 0 0.335188 0.794584
    vertex 0 0.384519 0.556067
  endloop
endfacet 165,144,162,164,140,141,143,155,157,158,159,163
facet normal 1 0 0
  outer loop
    vertex 0 0.604444 0.158362
    vertex 0 0.575162 0.395197
    vertex 0 0.387996 0.221487
  endloop
endfacet 166,138,160,167,135,136,137,139,156,157,159,161,164,168
facet normal 1 0 0
  outer loop
    vertex 0 0.575162 0.395197
    vertex 0 0.604444 0.158362
    vertex 0 0.793507 0.197962
  endloop
endfacet 167,139,166,168,129,130,137,138,151,156,157,159,160,164
facet normal 1 0 0
  outer loop
    vertex 0 0.831438 0.384214
    vertex 0 0.575162 0.395197
    vertex 0 0.793507 0.197962
  endloop
endfacet 168,151,156,167,129,130,139,150,153,157,159,160,164,166
facet normal 0 -1 -0
  outer loop
    vertex 0.839916 1 0.146557
    vertex 0.75 1 0
    vertex 1 1 0
  endloop
endfacet 169,5,170,181,6,12,13,14,43,44,179,188,199
facet normal 0 -1 -0
  outer loop
    vertex 1 1 0.25
    vertex 0.839916 1 0.146557
    vertex 1 1 0
  endloop
endfacet 170,44,169,188,5,6,43,59,60,181,187,199
facet normal 0 -1 0
  outer loop
    vertex 0.25 1 0
    vertex 0.153798 1 0.228717
    vertex 0 1 0
  endloop
endfacet 171,7,172,178,8,9,10,11,129,130,177,192,194,201
facet normal -0 -1 0
  outer loop
    vertex 0.153798 1 0.228717
    vertex 0 1 0.25
    vertex 0 1 0
  endloop
endfacet 172,130,171,192,7,8,129,150,151,178,194,201
facet normal 0 -1 0
  outer loop
    vertex 0.75 1 1
    vertex 0.842955 1 0.768212
    vertex 1 1 1
  endloop
endfacet 173,174,186,212,45,46,184,189,190,210,211,240,241,242
facet normal 0 -1 0
  outer loop
    vertex 0.842955 1 0.768212
    vertex 1 1 0.75
    vertex 1 1 1
  endloop
endfacet 174,46,173,189,45,61,63,186,190,210,211,212
facet normal 0 -1 0
  outer loop
    vertex 0.145839 1 0.841274
    vertex 0.25 1 1
    vertex 0 1 1
  endloop
endfacet 175,176,183,218,133,134,182,196,209,217,237,238,239
facet normal 0 -1 0
  outer loop
    vertex 0 1 0.75
    vertex 0.145839 1 0.841274
    vertex 0 1 1
  endloop
endfacet 176,134,175,196,133,152,154,183,193,209,217,218
facet normal 0 -1 -0
  outer loop
    vertex 0.38276 1 0.193346
    vertex 0.25 1 0
    vertex 0.5 1 0
  endloop
endfacet 177,9,178,180,7,10,11,12,171,179,197,200,201
facet normal 0 -1 0
  outer loop
    vertex 0.153798 1 0.228717
    vertex 0.25 1 0
    vertex 0.38276 1 0.193346
  endloop
endfacet 178,171,177,201,7,9,10,11,172,180,192,194,197,200
facet normal 0 -1 -0
  outer loop
    vertex 0.637171 1 0.168319
    vertex 0.5 1 0
    vertex 0.75 1 0
  endloop
endfacet 179,12,180,181,5,9,13,14,169,177,197,198,199
facet normal -0 -1 0
  outer loop
    vertex 0.637171 1 0.168319
    vertex 0.38276 1 0.193346
    vertex 0.5 1 0
  endloop
endfacet 180,177,179,197,9,12,178,181,198,199,200,201
facet normal -0 -1 0
  outer loop
    vertex 0.839916 1 0.146557
    vertex 0.637171 1 0.168319
    vertex 0.75 1 0
  endloop
endfacet 181,169,179,199,5,12,13,14,170,180,188,197,198
facet normal 0 -1 0
  outer loop
    vertex 0.25 1 1
    vertex 0.351598 1 0.821602
    vertex 0.5 1 1
  endloop
endfacet 182,183,185,237,175,184,206,207,209,218,238,239,240
facet normal 0 -1 -0
  outer loop
    vertex 0.25 1 1
    vertex 0.145839 1 0.841274
    vertex 0.351598 1 0.821602
  endloop
endfacet 183,175,182,209,176,185,196,206,207,218,237,238,239
facet normal 0 -1 0
  outer loop
    vertex 0.608903 1 0.786685
    vertex 0.75 1 1
    vertex 0.5 1 1
  endloop
endfacet 184,185,186,240,173,182,207,208,210,212,237,241,242
facet normal 0 -1 -0
  outer loop
    vertex 0.5 1 1
    vertex 0.351598 1 0.821602
    vertex 0.608903 1 0.786685
  endloop
endfacet 185,182,184,207,183,186,206,208,209,210,237,240
facet normal 0 -1 0
  outer loop
    vertex 0.842955 1 0.768212
    vertex 0.75 1 1
    vertex 0.608903 1 0.786685
  endloop
endfacet 186,173,184,210,174,185,189,190,207,208,212,240,241,242
facet normal 0 -1 0
  outer loop
    vertex 0.796196 1 0.345438
    vertex 1 1 0.25
    vertex 1 1 0.5
  endloop
endfacet 187,59,188,191,44,60,61,62,170,189,190,198,199,204
facet normal 0 -1 0
  outer loop
    vertex 0.839916 1 0.146557
    vertex 1 1 0.25
    vertex 0.796196 1 0.345438
  endloop
endfacet 188,170,187,199,44,59,60,169,181,191,198,204
facet normal 0 -1 0
  outer loop
    vertex 0.842955 1 0.768212
    vertex 1 1 0.5
    vertex 1 1 0.75
  endloop
endfacet 189,61,174,190,46,59,62,63,173,186,187,191,210
facet normal 0 -1 0
  outer loop
    vertex 1 1 0.5
    vertex 0.842955 1 0.768212
    vertex 0.698825 1 0.572586
  endloop
endfacet 190,189,191,210,59,61,62,173,174,186,187,203,204,208
facet normal 0 -1 0
  outer loop
    vertex 0.796196 1 0.345438
    vertex 1 1 0.5
    vertex 0.698825 1 0.572586
  endloop
endfacet 191,187,190,204,59,61,62,188,189,198,199,203,208,210
facet normal 0 -1 0
  outer loop
    vertex 0.153798 1 0.228717
    vertex 0 1 0.5
    vertex 0 1 0.25
  endloop
endfacet 192,150,172,194,130,151,152,153,171,178,193,195,201
facet normal 0 -1 0
  outer loop
    vertex 0 1 0.5
    vertex 0.204994 1 0.650711
    vertex 0 1 0.75
  endloop
endfacet 193,152,195,196,134,150,153,154,176,192,194,205,206,209
facet normal 0 -1 0
  outer loop
    vertex 0 1 0.5
    vertex 0.153798 1 0.228717
    vertex 0.290031 1 0.428955
  endloop
endfacet 194,192,195,201,150,152,153,171,172,178,193,200,202,205
facet normal 0 -1 0
  outer loop
    vertex 0 1 0.5
    vertex 0.290031 1 0.428955
    vertex 0.204994 1 0.650711
  endloop
endfacet 195,193,194,205,150,152,153,192,196,200,201,202,206,209
facet normal 0 -1 0
  outer loop
    vertex 0.204994 1 0.650711
    vertex 0.145839 1 0.841274
    vertex 0 1 0.75
  endloop
endfacet 196,176,193,209,134,152,154,175,183,195,205,206
facet normal 0 -1 0
  outer loop
    vertex 0.637171 1 0.168319
    vertex 0.541537 1 0.389524
    vertex 0.38276 1 0.193346
  endloop
endfacet 197,180,198,200,177,178,179,181,199,201,202,203,204
facet normal -0 -1 0
  outer loop
    vertex 0.796196 1 0.345438
    vertex 0.541537 1 0.389524
    vertex 0.637171 1 0.168319
  endloop
endfacet 198,197,199,204,179,180,181,187,188,191,200,202,203
facet normal 0 -1 -0
  outer loop
    vertex 0.796196 1 0.345438
    vertex 0.637171 1 0.168319
    vertex 0.839916 1 0.146557
  endloop
endfacet 199,181,188,198,169,170,179,180,187,191,197,204
facet normal 0 -1 0
  outer loop
    vertex 0.38276 1 0.193346
    vertex 0.541537 1 0.389524
    vertex 0.290031 1 0.428955
  endloop
endfacet 200,197,201,202,177,178,180,194,195,198,203,204,205
facet normal 0 -1 0
  outer loop
    vertex 0.38276 1 0.193346
    vertex 0.290031 1 0.428955
    vertex 0.153798 1 0.228717
  endloop
endfacet 201,178,194,200,171,172,177,180,192,195,197,202,205
facet normal 0 -1 -0
  outer loop
    vertex 0.453205 1 0.609887
    vertex 0.290031 1 0.428955
    vertex 0.541537 1 0.389524
  endloop
endfacet 202,200,203,205,194,195,197,198,201,204,206,207,208
facet normal 0 -1 0
  outer loop
    vertex 0.453205 1 0.609887
    vertex 0.541537 1 0.389524
    vertex 0.698825 1 0.572586
  endloop
endfacet 203,202,204,208,190,191,197,198,200,205,206,207,210
facet normal 0 -1 0
  outer loop
    vertex 0.796196 1 0.345438
    vertex 0.698825 1 0.572586
    vertex 0.541537 1 0.389524
  endloop
endfacet 204,191,198,203,187,188,190,197,199,200,202,208,210
facet normal -0 -1 0
  outer loop
    vertex 0.453205 1 0.609887
    vertex 0.204994 1 0.650711
    vertex 0.290031 1 0.428955
  endloop
endfacet 205,195,202,206,193,194,196,200,201,203,207,208,209
facet normal 0 -1 0
  outer loop
    vertex 0.453205 1 0.609887
    vertex 0.351598 1 0.821602
    vertex 0.204994 1 0.650711
  endloop
endfacet 206,205,207,209,182,183,185,193,195,196,202,203,208
facet normal -0 -1 0
  outer loop
    vertex 0.608903 1 0.786685
    vertex 0.351598 1 0.821602
    vertex 0.453205 1 0.609887
  endloop
endfacet 207,185,206,208,182,183,184,186,202,203,205,209,210
facet normal 0 -1 0
  outer loop
    vertex 0.453205 1 0.609887
    vertex 0.698825 1 0.572586
    vertex 0.608903 1 0.786685
  endloop
endfacet 208,203,207,210,184,185,186,190,191,202,204,205,206
facet normal 0 -1 0
  outer loop
    vertex 0.204994 1 0.650711
    vertex 0.351598 1 0.821602
    vertex 0.145839 1 0.841274
  endloop
endfacet 209,183,196,206,175,176,182,185,193,195,205,207
facet normal 0 -1 0
  outer loop
    vertex 0.608903 1 0.786685
    vertex 0.698825 1 0.572586
    vertex 0.842955 1 0.768212
  endloop
endfacet 210,186,190,208,173,174,184,185,189,191,203,204,207
facet normal 0 -0 -1
  outer loop
    vertex 1 1 1
    vertex 1 0.75 1
    vertex 0.838542 0.838542 1
  endloop
endfacet 211,45,212,221,46,54,55,173,174,219,220,242
facet normal 0 0 -1
  outer loop
    vertex 0.75 1 1
    vertex 1 1 1
    vertex 0.838542 0.838542 1
  endloop
endfacet 212,173,211,242,45,46,174,184,186,221,240,241
facet normal 0 -0 -1
  outer loop
    vertex 1 0.25 1
    vertex 1 0 1
    vertex 0.838542 0.161458 1
  endloop
endfacet 213,47,214,224,48,56,87,88,222,223,227
facet normal 0 0 -1
  outer loop
    vertex 1 0 1
    vertex 0.75 0 1
    vertex 0.838542 0.161458 1
  endloop
endfacet 214,87,213,227,47,48,88,96,97,224,225,226
facet normal 0 0 -1
  outer loop
    vertex 0.25 0 1
    vertex 0 0 1
    vertex 0.161458 0.161458 1
  endloop
endfacet 215,89,216,230,90,98,100,131,132,228,229,233
facet normal 0 0 -1
  outer loop
    vertex 0 0 1
    vertex 0 0.25 1
    vertex 0.161458 0.161458 1
  endloop
endfacet 216,131,215,233,89,90,132,140,141,230,231,232
facet normal 0 0 -1
  outer loop
    vertex 0 0.75 1
    vertex 0 1 1
    vertex 0.161458 0.838542 1
  endloop
endfacet 217,133,218,236,134,142,175,176,234,235,239
facet normal 0 0 -1
  outer loop
    vertex 0 1 1
    vertex 0.25 1 1
    vertex 0.161458 0.838542 1
  endloop
endfacet 218,175,217,239,133,134,176,182,183,236,237,238
facet normal 0 -0 -1
  outer loop
    vertex 1 0.75 1
    vertex 1 0.5 1
    vertex 0.779762 0.5 1
  endloop
endfacet 219,54,220,222,45,55,56,57,58,211,221,223,243,245
facet normal 0 0 -1
  outer loop
    vertex 0.708333 0.708333 1
    vertex 1 0.75 1
    vertex 0.779762 0.5 1
  endloop
endfacet 220,219,221,243,45,54,55,211,222,223,241,242,244,245
facet normal -0 0 -1
  outer loop
    vertex 1 0.75 1
    vertex 0.708333 0.708333 1
    vertex 0.838542 0.838542 1
  endloop
endfacet 221,211,220,242,45,54,55,212,219,241,243,244
facet normal 0 -0 -1
  outer loop
    vertex 1 0.5 1
    vertex 1 0.25 1
    vertex 0.779762 0.5 1
  endloop
endfacet 222,56,219,223,47,54,57,58,213,220,224,243,245
facet normal 0 0 -1
  outer loop
    vertex 1 0.25 1
    vertex 0.708333 0.291667 1
    vertex 0.779762 0.5 1
  endloop
endfacet 223,222,224,245,47,56,213,219,220,226,227,243,246
facet normal 0 0 -1
  outer loop
    vertex 0.708333 0.291667 1
    vertex 1 0.25 1
    vertex 0.838542 0.161458 1
  endloop
endfacet 224,213,223,227,47,56,214,222,226,245,246
facet normal 0 0 -1
  outer loop
    vertex 0.75 0 1
    vertex 0.5 0 1
    vertex 0.5 0.220238 1
  endloop
endfacet 225,96,226,228,87,97,98,99,214,227,229,246,249
facet normal 0 -0 -1
  outer loop
    vertex 0.708333 0.291667 1
    vertex 0.75 0 1
    vertex 0.5 0.220238 1
  endloop
endfacet 226,225,227,246,87,96,97,214,223,224,228,229,245,249
facet normal 0 0 -1
  outer loop
    vertex 0.75 0 1
    vertex 0.708333 0.291667 1
    vertex 0.838542 0.161458 1
  endloop
endfacet 227,214,224,226,87,96,97,213,223,225,245,246
facet normal 0 0 -1
  outer loop
    vertex 0.5 0 1
    vertex 0.25 0 1
    vertex 0.5 0.220238 1
  endloop
endfacet 228,98,225,229,89,96,99,100,215,226,230,246,249
facet normal 0 0 -1
  outer loop
    vertex 0.25 0 1
    vertex 0.291667 0.291667 1
    vertex 0.5 0.220238 1
  endloop
endfacet 229,228,230,249,89,98,100,215,225,226,232,233,246,250
facet normal 0 0 -1
  outer loop
    vertex 0.291667 0.291667 1
    vertex 0.25 0 1
    vertex 0.161458 0.161458 1
  endloop
endfacet 230,215,229,233,89,98,100,216,228,232,249,250
facet normal 0 0 -1
  outer loop
    vertex 0 0.25 1
    vertex 0 0.5 1
    vertex 0.220238 0.5 1
  endloop
endfacet 231,140,232,234,131,141,142,143,144,216,233,235,248,250
facet normal -0 0 -1
  outer loop
    vertex 0.291667 0.291667 1
    vertex 0 0.25 1
    vertex 0.220238 0.5 1
  endloop
endfacet 232,231,233,250,131,140,141,216,229,230,234,235,248,249
facet normal 0 0 -1
  outer loop
    vertex 0 0.25 1
    vertex 0.291667 0.291667 1
    vertex 0.161458 0.161458 1
  endloop
endfacet 233,216,230,232,131,140,141,215,229,231,249,250
facet normal 0 0 -1
  outer loop
    vertex 0 0.5 1
    vertex 0 0.75 1
    vertex 0.220238 0.5 1
  endloop
endfacet 234,142,231,235,133,140,143,144,217,232,236,248,250
facet normal 0 0 -1
  outer loop
    vertex 0 0.75 1
    vertex 0.291667 0.708333 1
    vertex 0.220238 0.5 1
  endloop
endfacet 235,234,236,248,133,142,217,231,232,238,239,247,250
facet normal 0 0 -1
  outer loop
    vertex 0.291667 0.708333 1
    vertex 0 0.75 1
    vertex 0.161458 0.838542 1
  endloop
endfacet 236,217,235,239,133,142,218,234,238,247,248
facet normal 0 0 -1
  outer loop
    vertex 0.25 1 1
    vertex 0.5 1 1
    vertex 0.5 0.779762 1
  endloop
endfacet 237,182,238,240,175,183,184,185,218,239,241,244,247
facet normal 0 0 -1
  outer loop
    vertex 0.291667 0.708333 1
    vertex 0.25 1 1
    vertex 0.5 0.779762 1
  endloop
endfacet 238,237,239,247,175,182,183,218,235,236,240,241,244,248
facet normal 0 -0 -1
  outer loop
    vertex 0.25 1 1
    vertex 0.291667 0.708333 1
    vertex 0.161458 0.838542 1
  endloop
endfacet 239,218,236,238,175,182,183,217,235,237,247,248
facet normal 0 0 -1
  outer loop
    vertex 0.5 1 1
    vertex 0.75 1 1
    vertex 0.5 0.779762 1
  endloop
endfacet 240,184,237,241,173,182,185,186,212,238,242,244,247
facet normal 0 0 -1
  outer loop
    vertex 0.75 1 1
    vertex 0.708333 0.708333 1
    vertex 0.5 0.779762 1
  endloop
endfacet 241,240,242,244,173,184,186,212,220,221,237,238,243,247
facet normal 0 0 -1
  outer loop
    vertex 0.708333 0.708333 1
    vertex 0.75 1 1
    vertex 0.838542 0.838542 1
  endloop
endfacet 242,212,221,241,173,184,186,211,220,240,243,244
facet normal 0 0 -1
  outer loop
    vertex 0.5 0.5 1
    vertex 0.708333 0.708333 1
    vertex 0.779762 0.5 1
  endloop
endfacet 243,220,244,245,219,221,222,223,241,242,246,247,248,249,250
facet normal -0 0 -1
  outer loop
    vertex 0.708333 0.708333 1
    vertex 0.5 0.5 1
    vertex 0.5 0.779762 1
  endloop
endfacet 244,241,243,247,220,221,237,238,240,242,245,246,248,249,250
facet normal 0 0 -1
  outer loop
    vertex 0.708333 0.291667 1
    vertex 0.5 0.5 1
    vertex 0.779762 0.5 1
  endloop
endfacet 245,223,243,246,219,220,222,224,226,227,244,247,248,249,250
facet normal 0 -0 -1
  outer loop
    vertex 0.5 0.5 1
    vertex 0.708333 0.291667 1
    vertex 0.5 0.220238 1
  endloop
endfacet 246,226,245,249,223,224,225,227,228,229,243,244,247,248,250
facet normal 0 0 -1
  outer loop
    vertex 0.5 0.5 1
    vertex 0.291667 0.708333 1
    vertex 0.5 0.779762 1
  endloop
endfacet 247,238,244,248,235,236,237,239,240,241,243,245,246,249,250
facet normal 0 -0 -1
  outer loop
    vertex 0.291667 0.708333 1
    vertex 0.5 0.5 1
    vertex 0.220238 0.5 1
  endloop
endfacet 248,235,247,250,231,232,234,236,238,239,243,244,245,246,249
facet normal 0 0 -1
  outer loop
    vertex 0.291667 0.291667 1
    vertex 0.5 0.5 1
    vertex 0.5 0.220238 1
  endloop
endfacet 249,229,246,250,225,226,228,230,232,233,243,244,245,247,248
facet normal -0 0 -1
  outer loop
    vertex 0.5 0.5 1
    vertex 0.291667 0.291667 1
    vertex 0.220238 0.5 1
  endloop
endfacet 250,232,248,249,229,230,231,233,234,235,243,244,245,246,247
