solid Created by Gmsh
facet normal 0 0 -1
  outer loop
    vertex 0.25 0 0
    vertex 0 0 0
    vertex 0.161458 0.161458 0
  endloop
endfacet
facet normal 0 0 -1
  outer loop
    vertex 0 0 0
    vertex 0 0.25 0
    vertex 0.161458 0.161458 0
  endloop
endfacet
facet normal 0 -0 -1
  outer loop
    vertex 1 0.25 0
    vertex 1 0 0
    vertex 0.838542 0.161458 0
  endloop
endfacet
facet normal 0 0 -1
  outer loop
    vertex 1 0 0
    vertex 0.75 0 0
    vertex 0.838542 0.161458 0
  endloop
endfacet
facet normal 0 0 -1
  outer loop
    vertex 0.75 1 0
    vertex 1 1 0
    vertex 0.838542 0.838542 0
  endloop
endfacet
facet normal 0 -0 -1
  outer loop
    vertex 1 1 0
    vertex 1 0.75 0
    vertex 0.838542 0.838542 0
  endloop
endfacet
facet normal 0 0 -1
  outer loop
    vertex 0 1 0
    vertex 0.25 1 0
    vertex 0.161458 0.838542 0
  endloop
endfacet
facet normal 0 0 -1
  outer loop
    vertex 0 0.75 0
    vertex 0 1 0
    vertex 0.161458 0.838542 0
  endloop
endfacet
facet normal 0 0 -1
  outer loop
    vertex 0.25 1 0
    vertex 0.5 1 0
    vertex 0.5 0.779762 0
  endloop
endfacet
facet normal 0 0 -1
  outer loop
    vertex 0.291667 0.708333 0
    vertex 0.25 1 0
    vertex 0.5 0.779762 0
  endloop
endfacet
facet normal 0 -0 -1
  outer loop
    vertex 0.25 1 0
    vertex 0.291667 0.708333 0
    vertex 0.161458 0.838542 0
  endloop
endfacet
facet normal 0 0 -1
  outer loop
    vertex 0.5 1 0
    vertex 0.75 1 0
    vertex 0.5 0.779762 0
  endloop
endfacet
facet normal 0 0 -1
  outer loop
    vertex 0.75 1 0
    vertex 0.708333 0.708333 0
    vertex 0.5 0.779762 0
  endloop
endfacet
facet normal 0 0 -1
  outer loop
    vertex 0.708333 0.708333 0
    vertex 0.75 1 0
    vertex 0.838542 0.838542 0
  endloop
endfacet
facet normal 0 -0 -1
  outer loop
    vertex 1 0.75 0
    vertex 1 0.5 0
    vertex 0.779762 0.5 0
  endloop
endfacet
facet normal 0 0 -1
  outer loop
    vertex 0.708333 0.708333 0
    vertex 1 0.75 0
    vertex 0.779762 0.5 0
  endloop
endfacet
facet normal -0 0 -1
  outer loop
    vertex 1 0.75 0
    vertex 0.708333 0.708333 0
    vertex 0.838542 0.838542 0
  endloop
endfacet
facet normal 0 -0 -1
  outer loop
    vertex 1 0.5 0
    vertex 1 0.25 0
    vertex 0.779762 0.5 0
  endloop
endfacet
facet normal 0 0 -1
  outer loop
    vertex 1 0.25 0
    vertex 0.708333 0.291667 0
    vertex 0.779762 0.5 0
  endloop
endfacet
facet normal 0 0 -1
  outer loop
    vertex 0.708333 0.291667 0
    vertex 1 0.25 0
    vertex 0.838542 0.161458 0
  endloop
endfacet
facet normal 0 0 -1
  outer loop
    vertex 0.75 0 0
    vertex 0.5 0 0
    vertex 0.5 0.220238 0
  endloop
endfacet
facet normal 0 -0 -1
  outer loop
    vertex 0.708333 0.291667 0
    vertex 0.75 0 0
    vertex 0.5 0.220238 0
  endloop
endfacet
facet normal 0 0 -1
  outer loop
    vertex 0.75 0 0
    vertex 0.708333 0.291667 0
    vertex 0.838542 0.161458 0
  endloop
endfacet
facet normal 0 0 -1
  outer loop
    vertex 0.5 0 0
    vertex 0.25 0 0
    vertex 0.5 0.220238 0
  endloop
endfacet
facet normal 0 0 -1
  outer loop
    vertex 0.25 0 0
    vertex 0.291667 0.291667 0
    vertex 0.5 0.220238 0
  endloop
endfacet
facet normal 0 0 -1
  outer loop
    vertex 0.291667 0.291667 0
    vertex 0.25 0 0
    vertex 0.161458 0.161458 0
  endloop
endfacet
facet normal 0 0 -1
  outer loop
    vertex 0 0.25 0
    vertex 0 0.5 0
    vertex 0.220238 0.5 0
  endloop
endfacet
facet normal -0 0 -1
  outer loop
    vertex 0.291667 0.291667 0
    vertex 0 0.25 0
    vertex 0.220238 0.5 0
  endloop
endfacet
facet normal 0 0 -1
  outer loop
    vertex 0 0.25 0
    vertex 0.291667 0.291667 0
    vertex 0.161458 0.161458 0
  endloop
endfacet
facet normal 0 0 -1
  outer loop
    vertex 0 0.5 0
    vertex 0 0.75 0
    vertex 0.220238 0.5 0
  endloop
endfacet
facet normal 0 0 -1
  outer loop
    vertex 0 0.75 0
    vertex 0.291667 0.708333 0
    vertex 0.220238 0.5 0
  endloop
endfacet
facet normal 0 0 -1
  outer loop
    vertex 0.291667 0.708333 0
    vertex 0 0.75 0
    vertex 0.161458 0.838542 0
  endloop
endfacet
facet normal 0 0 -1
  outer loop
    vertex 0.5 0.5 0
    vertex 0.708333 0.708333 0
    vertex 0.779762 0.5 0
  endloop
endfacet
facet normal -0 0 -1
  outer loop
    vertex 0.708333 0.708333 0
    vertex 0.5 0.5 0
    vertex 0.5 0.779762 0
  endloop
endfacet
facet normal 0 0 -1
  outer loop
    vertex 0.708333 0.291667 0
    vertex 0.5 0.5 0
    vertex 0.779762 0.5 0
  endloop
endfacet
facet normal 0 -0 -1
  outer loop
    vertex 0.5 0.5 0
    vertex 0.708333 0.291667 0
    vertex 0.5 0.220238 0
  endloop
endfacet
facet normal 0 0 -1
  outer loop
    vertex 0.5 0.5 0
    vertex 0.291667 0.708333 0
    vertex 0.5 0.779762 0
  endloop
endfacet
facet normal 0 -0 -1
  outer loop
    vertex 0.291667 0.708333 0
    vertex 0.5 0.5 0
    vertex 0.220238 0.5 0
  endloop
endfacet
facet normal 0 0 -1
  outer loop
    vertex 0.291667 0.291667 0
    vertex 0.5 0.5 0
    vertex 0.5 0.220238 0
  endloop
endfacet
facet normal -0 0 -1
  outer loop
    vertex 0.5 0.5 0
    vertex 0.291667 0.291667 0
    vertex 0.220238 0.5 0
  endloop
endfacet
facet normal -1 0 -0
  outer loop
    vertex 1 0.206493 0.197962
    vertex 1 0.25 0
    vertex 1 0 0
  endloop
endfacet
facet normal -1 0 0
  outer loop
    vertex 1 0 0.25
    vertex 1 0.206493 0.197962
    vertex 1 0 0
  endloop
endfacet
facet normal -1 0 0
  outer loop
    vertex 1 0.75 0
    vertex 1 0.822679 0.171634
    vertex 1 1 0
  endloop
endfacet
facet normal -1 0 0
  outer loop
    vertex 1 0.822679 0.171634
    vertex 1 1 0.25
    vertex 1 1 0
  endloop
endfacet
facet normal -1 0 0
  outer loop
    vertex 1 0.848244 0.847329
    vertex 1 0.75 1
    vertex 1 1 1
  endloop
endfacet
facet normal -1 0 0
  outer loop
    vertex 1 1 0.75
    vertex 1 0.848244 0.847329
    vertex 1 1 1
  endloop
endfacet
facet normal -1 -0 0
  outer loop
    vertex 1 0.25 1
    vertex 1 0.233735 0.837072
    vertex 1 0 1
  endloop
endfacet
facet normal -1 -0 0
  outer loop
    vertex 1 0.233735 0.837072
    vertex 1 0 0.75
    vertex 1 0 1
  endloop
endfacet
facet normal -1 0 -0
  outer loop
    vertex 1 0.612004 0.221487
    vertex 1 0.75 0
    vertex 1 0.5 0
  endloop
endfacet
facet normal -1 -0 0
  outer loop
    vertex 1 0.822679 0.171634
    vertex 1 0.75 0
    vertex 1 0.612004 0.221487
  endloop
endfacet
facet normal -1 0 0
  outer loop
    vertex 1 0.25 0
    vertex 1 0.395556 0.158362
    vertex 1 0.5 0
  endloop
endfacet
facet normal -1 0 0
  outer loop
    vertex 1 0.395556 0.158362
    vertex 1 0.612004 0.221487
    vertex 1 0.5 0
  endloop
endfacet
facet normal -1 -0 0
  outer loop
    vertex 1 0.395556 0.158362
    vertex 1 0.25 0
    vertex 1 0.206493 0.197962
  endloop
endfacet
facet normal -1 -0 0
  outer loop
    vertex 1 0.75 1
    vertex 1 0.664812 0.794584
    vertex 1 0.5 1
  endloop
endfacet
facet normal -1 0 -0
  outer loop
    vertex 1 0.75 1
    vertex 1 0.848244 0.847329
    vertex 1 0.664812 0.794584
  endloop
endfacet
facet normal -1 -0 0
  outer loop
    vertex 1 0.5 1
    vertex 1 0.233735 0.837072
    vertex 1 0.25 1
  endloop
endfacet
facet normal -1 0 0
  outer loop
    vertex 1 0.233735 0.837072
    vertex 1 0.5 1
    vertex 1 0.440641 0.692455
  endloop
endfacet
facet normal -1 0 -0
  outer loop
    vertex 1 0.5 1
    vertex 1 0.664812 0.794584
    vertex 1 0.440641 0.692455
  endloop
endfacet
facet normal -1 0 0
  outer loop
    vertex 1 1 0.25
    vertex 1 0.758036 0.390785
    vertex 1 1 0.5
  endloop
endfacet
facet normal -1 -0 0
  outer loop
    vertex 1 1 0.25
    vertex 1 0.822679 0.171634
    vertex 1 0.758036 0.390785
  endloop
endfacet
facet normal -1 0 0
  outer loop
    vertex 1 1 0.5
    vertex 1 0.831249 0.641112
    vertex 1 1 0.75
  endloop
endfacet
facet normal -1 0 0
  outer loop
    vertex 1 0.758036 0.390785
    vertex 1 0.831249 0.641112
    vertex 1 1 0.5
  endloop
endfacet
facet normal -1 0 0
  outer loop
    vertex 1 0.831249 0.641112
    vertex 1 0.848244 0.847329
    vertex 1 1 0.75
  endloop
endfacet
facet normal -1 -0 0
  outer loop
    vertex 1 0.168562 0.384214
    vertex 1 0 0.25
    vertex 1 0 0.5
  endloop
endfacet
facet normal -1 0 0
  outer loop
    vertex 1 0.206493 0.197962
    vertex 1 0 0.25
    vertex 1 0.168562 0.384214
  endloop
endfacet
facet normal -1 0 0
  outer loop
    vertex 1 0 0.75
    vertex 1 0.211768 0.57998
    vertex 1 0 0.5
  endloop
endfacet
facet normal -1 0 0
  outer loop
    vertex 1 0 0.5
    vertex 1 0.211768 0.57998
    vertex 1 0.168562 0.384214
  endloop
endfacet
facet normal -1 0 0
  outer loop
    vertex 1 0 0.75
    vertex 1 0.233735 0.837072
    vertex 1 0.211768 0.57998
  endloop
endfacet
facet normal -1 -0 0
  outer loop
    vertex 1 0.440641 0.692455
    vertex 1 0.211768 0.57998
    vertex 1 0.233735 0.837072
  endloop
endfacet
facet normal -1 0 -0
  outer loop
    vertex 1 0.211768 0.57998
    vertex 1 0.424838 0.395197
    vertex 1 0.168562 0.384214
  endloop
endfacet
facet normal -1 0 0
  outer loop
    vertex 1 0.440641 0.692455
    vertex 1 0.424838 0.395197
    vertex 1 0.211768 0.57998
  endloop
endfacet
facet normal -1 0 0
  outer loop
    vertex 1 0.758036 0.390785
    vertex 1 0.615481 0.556067
    vertex 1 0.831249 0.641112
  endloop
endfacet
facet normal -1 0 -0
  outer loop
    vertex 1 0.615481 0.556067
    vertex 1 0.758036 0.390785
    vertex 1 0.424838 0.395197
  endloop
endfacet
facet normal -1 0 0
  outer loop
    vertex 1 0.612004 0.221487
    vertex 1 0.424838 0.395197
    vertex 1 0.758036 0.390785
  endloop
endfacet
facet normal -1 0 0
  outer loop
    vertex 1 0.822679 0.171634
    vertex 1 0.612004 0.221487
    vertex 1 0.758036 0.390785
  endloop
endfacet
facet normal -1 0 0
  outer loop
    vertex 1 0.615481 0.556067
    vertex 1 0.664812 0.794584
    vertex 1 0.831249 0.641112
  endloop
endfacet
facet normal -1 0 0
  outer loop
    vertex 1 0.831249 0.641112
    vertex 1 0.664812 0.794584
    vertex 1 0.848244 0.847329
  endloop
endfacet
facet normal -1 -0 0
  outer loop
    vertex 1 0.615481 0.556067
    vertex 1 0.424838 0.395197
    vertex 1 0.440641 0.692455
  endloop
endfacet
facet normal -1 0 0
  outer loop
    vertex 1 0.440641 0.692455
    vertex 1 0.664812 0.794584
    vertex 1 0.615481 0.556067
  endloop
endfacet
facet normal -1 0 0
  outer loop
    vertex 1 0.395556 0.158362
    vertex 1 0.424838 0.395197
    vertex 1 0.612004 0.221487
  endloop
endfacet
facet normal -1 0 0
  outer loop
    vertex 1 0.424838 0.395197
    vertex 1 0.395556 0.158362
    vertex 1 0.206493 0.197962
  endloop
endfacet
facet normal -1 0 0
  outer loop
    vertex 1 0.168562 0.384214
    vertex 1 0.424838 0.395197
    vertex 1 0.206493 0.197962
  endloop
endfacet
facet normal 0 1 0
  outer loop
    vertex 0.160051 0 0.146538
    vertex 0.25 0 0
    vertex 0 0 0
  endloop
endfacet
facet normal 0 1 0
  outer loop
    vertex 0 0 0.25
    vertex 0.160051 0 0.146538
    vertex 0 0 0
  endloop
endfacet
facet normal 0 1 0
  outer loop
    vertex 0.75 0 0
    vertex 0.790269 0 0.193386
    vertex 1 0 0
  endloop
endfacet
facet normal -0 1 0
  outer loop
    vertex 0.790269 0 0.193386
    vertex 1 0 0.25
    vertex 1 0 0
  endloop
endfacet
facet normal 0 1 -0
  outer loop
    vertex 0.836187 0 0.816756
    vertex 0.75 0 1
    vertex 1 0 1
  endloop
endfacet
facet normal 0 1 -0
  outer loop
    vertex 1 0 0.75
    vertex 0.836187 0 0.816756
    vertex 1 0 1
  endloop
endfacet
facet normal 0 1 -0
  outer loop
    vertex 0.169568 0 0.84541
    vertex 0 0 1
    vertex 0.25 0 1
  endloop
endfacet
facet normal 0 1 0
  outer loop
    vertex 0 0 1
    vertex 0.169568 0 0.84541
    vertex 0 0 0.75
  endloop
endfacet
facet normal 0 1 0
  outer loop
    vertex 0.596956 0 0.155926
    vertex 0.75 0 0
    vertex 0.5 0 0
  endloop
endfacet
facet normal 0 1 0
  outer loop
    vertex 0.790269 0 0.193386
    vertex 0.75 0 0
    vertex 0.596956 0 0.155926
  endloop
endfacet
facet normal 0 1 0
  outer loop
    vertex 0.367867 0 0.213018
    vertex 0.5 0 0
    vertex 0.25 0 0
  endloop
endfacet
facet normal 0 1 0
  outer loop
    vertex 0.596956 0 0.155926
    vertex 0.5 0 0
    vertex 0.367867 0 0.213018
  endloop
endfacet
facet normal -0 1 0
  outer loop
    vertex 0.160051 0 0.146538
    vertex 0.367867 0 0.213018
    vertex 0.25 0 0
  endloop
endfacet
facet normal 0 1 0
  outer loop
    vertex 0.75 0 1
    vertex 0.626145 0 0.790695
    vertex 0.5 0 1
  endloop
endfacet
facet normal 0 1 0
  outer loop
    vertex 0.75 0 1
    vertex 0.836187 0 0.816756
    vertex 0.626145 0 0.790695
  endloop
endfacet
facet normal 0 1 -0
  outer loop
    vertex 0.369677 0 0.817415
    vertex 0.25 0 1
    vertex 0.5 0 1
  endloop
endfacet
facet normal 0 1 0
  outer loop
    vertex 0.5 0 1
    vertex 0.626145 0 0.790695
    vertex 0.369677 0 0.817415
  endloop
endfacet
facet normal 0 1 0
  outer loop
    vertex 0.369677 0 0.817415
    vertex 0.169568 0 0.84541
    vertex 0.25 0 1
  endloop
endfacet
facet normal 0 1 -0
  outer loop
    vertex 1 0 0.25
    vertex 0.806937 0 0.382825
    vertex 1 0 0.5
  endloop
endfacet
facet normal 0 1 0
  outer loop
    vertex 1 0 0.25
    vertex 0.790269 0 0.193386
    vertex 0.806937 0 0.382825
  endloop
endfacet
facet normal 0 1 0
  outer loop
    vertex 1 0 0.75
    vertex 1 0 0.5
    vertex 0.763109 0 0.597706
  endloop
endfacet
facet normal 0 1 0
  outer loop
    vertex 1 0 0.5
    vertex 0.806937 0 0.382825
    vertex 0.763109 0 0.597706
  endloop
endfacet
facet normal 0 1 0
  outer loop
    vertex 0.763109 0 0.597706
    vertex 0.836187 0 0.816756
    vertex 1 0 0.75
  endloop
endfacet
facet normal 0 1 0
  outer loop
    vertex 0.183221 0 0.367476
    vertex 0 0 0.25
    vertex 0 0 0.5
  endloop
endfacet
facet normal 0 1 -0
  outer loop
    vertex 0.160051 0 0.146538
    vertex 0 0 0.25
    vertex 0.183221 0 0.367476
  endloop
endfacet
facet normal 0 1 0
  outer loop
    vertex 0.22575 0 0.617385
    vertex 0 0 0.5
    vertex 0 0 0.75
  endloop
endfacet
facet normal 0 1 -0
  outer loop
    vertex 0.183221 0 0.367476
    vertex 0 0 0.5
    vertex 0.22575 0 0.617385
  endloop
endfacet
facet normal 0 1 0
  outer loop
    vertex 0.169568 0 0.84541
    vertex 0.22575 0 0.617385
    vertex 0 0 0.75
  endloop
endfacet
facet normal 0 1 0
  outer loop
    vertex 0.763109 0 0.597706
    vertex 0.494219 0 0.601749
    vertex 0.626145 0 0.790695
  endloop
endfacet
facet normal -0 1 0
  outer loop
    vertex 0.626145 0 0.790695
    vertex 0.836187 0 0.816756
    vertex 0.763109 0 0.597706
  endloop
endfacet
facet normal 0 1 -0
  outer loop
    vertex 0.587718 0 0.371564
    vertex 0.494219 0 0.601749
    vertex 0.763109 0 0.597706
  endloop
endfacet
facet normal 0 1 0
  outer loop
    vertex 0.763109 0 0.597706
    vertex 0.806937 0 0.382825
    vertex 0.587718 0 0.371564
  endloop
endfacet
facet normal 0 1 0
  outer loop
    vertex 0.626145 0 0.790695
    vertex 0.494219 0 0.601749
    vertex 0.369677 0 0.817415
  endloop
endfacet
facet normal 0 1 0
  outer loop
    vertex 0.494219 0 0.601749
    vertex 0.22575 0 0.617385
    vertex 0.369677 0 0.817415
  endloop
endfacet
facet normal -0 1 0
  outer loop
    vertex 0.363563 0 0.439643
    vertex 0.494219 0 0.601749
    vertex 0.587718 0 0.371564
  endloop
endfacet
facet normal 0 1 0
  outer loop
    vertex 0.494219 0 0.601749
    vertex 0.363563 0 0.439643
    vertex 0.22575 0 0.617385
  endloop
endfacet
facet normal 0 1 0
  outer loop
    vertex 0.369677 0 0.817415
    vertex 0.22575 0 0.617385
    vertex 0.169568 0 0.84541
  endloop
endfacet
facet normal 0 1 -0
  outer loop
    vertex 0.596956 0 0.155926
    vertex 0.587718 0 0.371564
    vertex 0.790269 0 0.193386
  endloop
endfacet
facet normal -0 1 0
  outer loop
    vertex 0.587718 0 0.371564
    vertex 0.806937 0 0.382825
    vertex 0.790269 0 0.193386
  endloop
endfacet
facet normal 0 1 0
  outer loop
    vertex 0.587718 0 0.371564
    vertex 0.596956 0 0.155926
    vertex 0.367867 0 0.213018
  endloop
endfacet
facet normal 0 1 -0
  outer loop
    vertex 0.367867 0 0.213018
    vertex 0.363563 0 0.439643
    vertex 0.587718 0 0.371564
  endloop
endfacet
facet normal -0 1 0
  outer loop
    vertex 0.183221 0 0.367476
    vertex 0.363563 0 0.439643
    vertex 0.367867 0 0.213018
  endloop
endfacet
facet normal 0 1 0
  outer loop
    vertex 0.183221 0 0.367476
    vertex 0.367867 0 0.213018
    vertex 0.160051 0 0.146538
  endloop
endfacet
facet normal 0 1 0
  outer loop
    vertex 0.183221 0 0.367476
    vertex 0.22575 0 0.617385
    vertex 0.363563 0 0.439643
  endloop
endfacet
facet normal 1 0 0
  outer loop
    vertex 0 0.25 0
    vertex 0 0.177321 0.171634
    vertex 0 0 0
  endloop
endfacet
facet normal 1 0 0
  outer loop
    vertex 0 0.177321 0.171634
    vertex 0 0 0.25
    vertex 0 0 0
  endloop
endfacet
facet normal 1 0 0
  outer loop
    vertex 0 0.793507 0.197962
    vertex 0 0.75 0
    vertex 0 1 0
  endloop
endfacet
facet normal 1 0 0
  outer loop
    vertex 0 1 0.25
    vertex 0 0.793507 0.197962
    vertex 0 1 0
  endloop
endfacet
facet normal 1 0 -0
  outer loop
    vertex 0 0.151756 0.847329
    vertex 0 0.25 1
    vertex 0 0 1
  endloop
endfacet
facet normal 1 0 0
  outer loop
    vertex 0 0 0.75
    vertex 0 0.151756 0.847329
    vertex 0 0 1
  endloop
endfacet
facet normal 1 -0 0
  outer loop
    vertex 0 0.75 1
    vertex 0 0.766265 0.837072
    vertex 0 1 1
  endloop
endfacet
facet normal 1 -0 0
  outer loop
    vertex 0 0.766265 0.837072
    vertex 0 1 0.75
    vertex 0 1 1
  endloop
endfacet
facet normal 1 0 0
  outer loop
    vertex 0 0.387996 0.221487
    vertex 0 0.25 0
    vertex 0 0.5 0
  endloop
endfacet
facet normal 1 -0 0
  outer loop
    vertex 0 0.177321 0.171634
    vertex 0 0.25 0
    vertex 0 0.387996 0.221487
  endloop
endfacet
facet normal 1 0 0
  outer loop
    vertex 0 0.75 0
    vertex 0 0.604444 0.158362
    vertex 0 0.5 0
  endloop
endfacet
facet normal 1 0 0
  outer loop
    vertex 0 0.604444 0.158362
    vertex 0 0.387996 0.221487
    vertex 0 0.5 0
  endloop
endfacet
facet normal 1 -0 0
  outer loop
    vertex 0 0.604444 0.158362
    vertex 0 0.75 0
    vertex 0 0.793507 0.197962
  endloop
endfacet
facet normal 1 -0 0
  outer loop
    vertex 0 0.25 1
    vertex 0 0.335188 0.794584
    vertex 0 0.5 1
  endloop
endfacet
facet normal 1 0 0
  outer loop
    vertex 0 0.25 1
    vertex 0 0.151756 0.847329
    vertex 0 0.335188 0.794584
  endloop
endfacet
facet normal 1 -0 0
  outer loop
    vertex 0 0.5 1
    vertex 0 0.766265 0.837072
    vertex 0 0.75 1
  endloop
endfacet
facet normal 1 0 0
  outer loop
    vertex 0 0.766265 0.837072
    vertex 0 0.5 1
    vertex 0 0.559359 0.692455
  endloop
endfacet
facet normal 1 0 0
  outer loop
    vertex 0 0.5 1
    vertex 0 0.335188 0.794584
    vertex 0 0.559359 0.692455
  endloop
endfacet
facet normal 1 0 0
  outer loop
    vertex 0 0 0.25
    vertex 0 0.241964 0.390785
    vertex 0 0 0.5
  endloop
endfacet
facet normal 1 -0 0
  outer loop
    vertex 0 0 0.25
    vertex 0 0.177321 0.171634
    vertex 0 0.241964 0.390785
  endloop
endfacet
facet normal 1 0 0
  outer loop
    vertex 0 0 0.5
    vertex 0 0.168751 0.641112
    vertex 0 0 0.75
  endloop
endfacet
facet normal 1 0 0
  outer loop
    vertex 0 0.241964 0.390785
    vertex 0 0.168751 0.641112
    vertex 0 0 0.5
  endloop
endfacet
facet normal 1 0 0
  outer loop
    vertex 0 0.168751 0.641112
    vertex 0 0.151756 0.847329
    vertex 0 0 0.75
  endloop
endfacet
facet normal 1 -0 0
  outer loop
    vertex 0 0.831438 0.384214
    vertex 0 1 0.25
    vertex 0 1 0.5
  endloop
endfacet
facet normal 1 0 0
  outer loop
    vertex 0 0.793507 0.197962
    vertex 0 1 0.25
    vertex 0 0.831438 0.384214
  endloop
endfacet
facet normal 1 0 0
  outer loop
    vertex 0 1 0.75
    vertex 0 0.788232 0.57998
    vertex 0 1 0.5
  endloop
endfacet
facet normal 1 0 0
  outer loop
    vertex 0 1 0.5
    vertex 0 0.788232 0.57998
    vertex 0 0.831438 0.384214
  endloop
endfacet
facet normal 1 0 0
  outer loop
    vertex 0 1 0.75
    vertex 0 0.766265 0.837072
    vertex 0 0.788232 0.57998
  endloop
endfacet
facet normal 1 -0 0
  outer loop
    vertex 0 0.559359 0.692455
    vertex 0 0.788232 0.57998
    vertex 0 0.766265 0.837072
  endloop
endfacet
facet normal 1 0 0
  outer loop
    vertex 0 0.788232 0.57998
    vertex 0 0.575162 0.395197
    vertex 0 0.831438 0.384214
  endloop
endfacet
facet normal 1 0 0
  outer loop
    vertex 0 0.559359 0.692455
    vertex 0 0.575162 0.395197
    vertex 0 0.788232 0.57998
  endloop
endfacet
facet normal 1 0 -0
  outer loop
    vertex 0 0.241964 0.390785
    vertex 0 0.384519 0.556067
    vertex 0 0.168751 0.641112
  endloop
endfacet
facet normal 1 0 0
  outer loop
    vertex 0 0.384519 0.556067
    vertex 0 0.241964 0.390785
    vertex 0 0.575162 0.395197
  endloop
endfacet
facet normal 1 0 -0
  outer loop
    vertex 0 0.387996 0.221487
    vertex 0 0.575162 0.395197
    vertex 0 0.241964 0.390785
  endloop
endfacet
facet normal 1 0 0
  outer loop
    vertex 0 0.177321 0.171634
    vertex 0 0.387996 0.221487
    vertex 0 0.241964 0.390785
  endloop
endfacet
facet normal 1 0 0
  outer loop
    vertex 0 0.384519 0.556067
    vertex 0 0.335188 0.794584
    vertex 0 0.168751 0.641112
  endloop
endfacet
facet normal 1 0 -0
  outer loop
    vertex 0 0.168751 0.641112
    vertex 0 0.335188 0.794584
    vertex 0 0.151756 0.847329
  endloop
endfacet
facet normal 1 -0 0
  outer loop
    vertex 0 0.384519 0.556067
    vertex 0 0.575162 0.395197
    vertex 0 0.559359 0.692455
  endloop
endfacet
facet normal 1 0 0
  outer loop
    vertex 0 0.559359 0.692455
    vertex 0 0.335188 0.794584
    vertex 0 0.384519 0.556067
  endloop
endfacet
facet normal 1 0 0
  outer loop
    vertex 0 0.604444 0.158362
    vertex 0 0.575162 0.395197
    vertex 0 0.387996 0.221487
  endloop
endfacet
facet normal 1 0 0
  outer loop
    vertex 0 0.575162 0.395197
    vertex 0 0.604444 0.158362
    vertex 0 0.793507 0.197962
  endloop
endfacet
facet normal 1 0 0
  outer loop
    vertex 0 0.831438 0.384214
    vertex 0 0.575162 0.395197
    vertex 0 0.793507 0.197962
  endloop
endfacet
facet normal 0 -1 -0
  outer loop
    vertex 0.839916 1 0.146557
    vertex 0.75 1 0
    vertex 1 1 0
  endloop
endfacet
facet normal 0 -1 -0
  outer loop
    vertex 1 1 0.25
    vertex 0.839916 1 0.146557
    vertex 1 1 0
  endloop
endfacet
facet normal 0 -1 0
  outer loop
    vertex 0.25 1 0
    vertex 0.153798 1 0.228717
    vertex 0 1 0
  endloop
endfacet
facet normal -0 -1 0
  outer loop
    vertex 0.153798 1 0.228717
    vertex 0 1 0.25
    vertex 0 1 0
  endloop
endfacet
facet normal 0 -1 0
  outer loop
    vertex 0.75 1 1
    vertex 0.842955 1 0.768212
    vertex 1 1 1
  endloop
endfacet
facet normal 0 -1 0
  outer loop
    vertex 0.842955 1 0.768212
    vertex 1 1 0.75
    vertex 1 1 1
  endloop
endfacet
facet normal 0 -1 0
  outer loop
    vertex 0.145839 1 0.841274
    vertex 0.25 1 1
    vertex 0 1 1
  endloop
endfacet
facet normal 0 -1 0
  outer loop
    vertex 0 1 0.75
    vertex 0.145839 1 0.841274
    vertex 0 1 1
  endloop
endfacet
facet normal 0 -1 -0
  outer loop
    vertex 0.38276 1 0.193346
    vertex 0.25 1 0
    vertex 0.5 1 0
  endloop
endfacet
facet normal 0 -1 0
  outer loop
    vertex 0.153798 1 0.228717
    vertex 0.25 1 0
    vertex 0.38276 1 0.193346
  endloop
endfacet
facet normal 0 -1 -0
  outer loop
    vertex 0.637171 1 0.168319
    vertex 0.5 1 0
    vertex 0.75 1 0
  endloop
endfacet
facet normal -0 -1 0
  outer loop
    vertex 0.637171 1 0.168319
    vertex 0.38276 1 0.193346
    vertex 0.5 1 0
  endloop
endfacet
facet normal -0 -1 0
  outer loop
    vertex 0.839916 1 0.146557
    vertex 0.637171 1 0.168319
    vertex 0.75 1 0
  endloop
endfacet
facet normal 0 -1 0
  outer loop
    vertex 0.25 1 1
    vertex 0.351598 1 0.821602
    vertex 0.5 1 1
  endloop
endfacet
facet normal 0 -1 -0
  outer loop
    vertex 0.25 1 1
    vertex 0.145839 1 0.841274
    vertex 0.351598 1 0.821602
  endloop
endfacet
facet normal 0 -1 0
  outer loop
    vertex 0.608903 1 0.786685
    vertex 0.75 1 1
    vertex 0.5 1 1
  endloop
endfacet
facet normal 0 -1 -0
  outer loop
    vertex 0.5 1 1
    vertex 0.351598 1 0.821602
    vertex 0.608903 1 0.786685
  endloop
endfacet
facet normal 0 -1 0
  outer loop
    vertex 0.842955 1 0.768212
    vertex 0.75 1 1
    vertex 0.608903 1 0.786685
  endloop
endfacet
facet normal 0 -1 0
  outer loop
    vertex 0.796196 1 0.345438
    vertex 1 1 0.25
    vertex 1 1 0.5
  endloop
endfacet
facet normal 0 -1 0
  outer loop
    vertex 0.839916 1 0.146557
    vertex 1 1 0.25
    vertex 0.796196 1 0.345438
  endloop
endfacet
facet normal 0 -1 0
  outer loop
    vertex 0.842955 1 0.768212
    vertex 1 1 0.5
    vertex 1 1 0.75
  endloop
endfacet
facet normal 0 -1 0
  outer loop
    vertex 1 1 0.5
    vertex 0.842955 1 0.768212
    vertex 0.698825 1 0.572586
  endloop
endfacet
facet normal 0 -1 0
  outer loop
    vertex 0.796196 1 0.345438
    vertex 1 1 0.5
    vertex 0.698825 1 0.572586
  endloop
endfacet
facet normal 0 -1 0
  outer loop
    vertex 0.153798 1 0.228717
    vertex 0 1 0.5
    vertex 0 1 0.25
  endloop
endfacet
facet normal 0 -1 0
  outer loop
    vertex 0 1 0.5
    vertex 0.204994 1 0.650711
    vertex 0 1 0.75
  endloop
endfacet
facet normal 0 -1 0
  outer loop
    vertex 0 1 0.5
    vertex 0.153798 1 0.228717
    vertex 0.290031 1 0.428955
  endloop
endfacet
facet normal 0 -1 0
  outer loop
    vertex 0 1 0.5
    vertex 0.290031 1 0.428955
    vertex 0.204994 1 0.650711
  endloop
endfacet
facet normal 0 -1 0
  outer loop
    vertex 0.204994 1 0.650711
    vertex 0.145839 1 0.841274
    vertex 0 1 0.75
  endloop
endfacet
facet normal 0 -1 0
  outer loop
    vertex 0.637171 1 0.168319
    vertex 0.541537 1 0.389524
    vertex 0.38276 1 0.193346
  endloop
endfacet
facet normal -0 -1 0
  outer loop
    vertex 0.796196 1 0.345438
    vertex 0.541537 1 0.389524
    vertex 0.637171 1 0.168319
  endloop
endfacet
facet normal 0 -1 -0
  outer loop
    vertex 0.796196 1 0.345438
    vertex 0.637171 1 0.168319
    vertex 0.839916 1 0.146557
  endloop
endfacet
facet normal 0 -1 0
  outer loop
    vertex 0.38276 1 0.193346
    vertex 0.541537 1 0.389524
    vertex 0.290031 1 0.428955
  endloop
endfacet
facet normal 0 -1 0
  outer loop
    vertex 0.38276 1 0.193346
    vertex 0.290031 1 0.428955
    vertex 0.153798 1 0.228717
  endloop
endfacet
facet normal 0 -1 -0
  outer loop
    vertex 0.453205 1 0.609887
    vertex 0.290031 1 0.428955
    vertex 0.541537 1 0.389524
  endloop
endfacet
facet normal 0 -1 0
  outer loop
    vertex 0.453205 1 0.609887
    vertex 0.541537 1 0.389524
    vertex 0.698825 1 0.572586
  endloop
endfacet
facet normal 0 -1 0
  outer loop
    vertex 0.796196 1 0.345438
    vertex 0.698825 1 0.572586
    vertex 0.541537 1 0.389524
  endloop
endfacet
facet normal -0 -1 0
  outer loop
    vertex 0.453205 1 0.609887
    vertex 0.204994 1 0.650711
    vertex 0.290031 1 0.428955
  endloop
endfacet
facet normal 0 -1 0
  outer loop
    vertex 0.453205 1 0.609887
    vertex 0.351598 1 0.821602
    vertex 0.204994 1 0.650711
  endloop
endfacet
facet normal -0 -1 0
  outer loop
    vertex 0.608903 1 0.786685
    vertex 0.351598 1 0.821602
    vertex 0.453205 1 0.609887
  endloop
endfacet
facet normal 0 -1 0
  outer loop
    vertex 0.453205 1 0.609887
    vertex 0.698825 1 0.572586
    vertex 0.608903 1 0.786685
  endloop
endfacet
facet normal 0 -1 0
  outer loop
    vertex 0.204994 1 0.650711
    vertex 0.351598 1 0.821602
    vertex 0.145839 1 0.841274
  endloop
endfacet
facet normal 0 -1 0
  outer loop
    vertex 0.608903 1 0.786685
    vertex 0.698825 1 0.572586
    vertex 0.842955 1 0.768212
  endloop
endfacet
facet normal 0 -0 -1
  outer loop
    vertex 1 1 1
    vertex 1 0.75 1
    vertex 0.838542 0.838542 1
  endloop
endfacet
facet normal 0 0 -1
  outer loop
    vertex 0.75 1 1
    vertex 1 1 1
    vertex 0.838542 0.838542 1
  endloop
endfacet
facet normal 0 -0 -1
  outer loop
    vertex 1 0.25 1
    vertex 1 0 1
    vertex 0.838542 0.161458 1
  endloop
endfacet
facet normal 0 0 -1
  outer loop
    vertex 1 0 1
    vertex 0.75 0 1
    vertex 0.838542 0.161458 1
  endloop
endfacet
facet normal 0 0 -1
  outer loop
    vertex 0.25 0 1
    vertex 0 0 1
    vertex 0.161458 0.161458 1
  endloop
endfacet
facet normal 0 0 -1
  outer loop
    vertex 0 0 1
    vertex 0 0.25 1
    vertex 0.161458 0.161458 1
  endloop
endfacet
facet normal 0 0 -1
  outer loop
    vertex 0 0.75 1
    vertex 0 1 1
    vertex 0.161458 0.838542 1
  endloop
endfacet
facet normal 0 0 -1
  outer loop
    vertex 0 1 1
    vertex 0.25 1 1
    vertex 0.161458 0.838542 1
  endloop
endfacet
facet normal 0 -0 -1
  outer loop
    vertex 1 0.75 1
    vertex 1 0.5 1
    vertex 0.779762 0.5 1
  endloop
endfacet
facet normal 0 0 -1
  outer loop
    vertex 0.708333 0.708333 1
    vertex 1 0.75 1
    vertex 0.779762 0.5 1
  endloop
endfacet
facet normal -0 0 -1
  outer loop
    vertex 1 0.75 1
    vertex 0.708333 0.708333 1
    vertex 0.838542 0.838542 1
  endloop
endfacet
facet normal 0 -0 -1
  outer loop
    vertex 1 0.5 1
    vertex 1 0.25 1
    vertex 0.779762 0.5 1
  endloop
endfacet
facet normal 0 0 -1
  outer loop
    vertex 1 0.25 1
    vertex 0.708333 0.291667 1
    vertex 0.779762 0.5 1
  endloop
endfacet
facet normal 0 0 -1
  outer loop
    vertex 0.708333 0.291667 1
    vertex 1 0.25 1
    vertex 0.838542 0.161458 1
  endloop
endfacet
facet normal 0 0 -1
  outer loop
    vertex 0.75 0 1
    vertex 0.5 0 1
    vertex 0.5 0.220238 1
  endloop
endfacet
facet normal 0 -0 -1
  outer loop
    vertex 0.708333 0.291667 1
    vertex 0.75 0 1
    vertex 0.5 0.220238 1
  endloop
endfacet
facet normal 0 0 -1
  outer loop
    vertex 0.75 0 1
    vertex 0.708333 0.291667 1
    vertex 0.838542 0.161458 1
  endloop
endfacet
facet normal 0 0 -1
  outer loop
    vertex 0.5 0 1
    vertex 0.25 0 1
    vertex 0.5 0.220238 1
  endloop
endfacet
facet normal 0 0 -1
  outer loop
    vertex 0.25 0 1
    vertex 0.291667 0.291667 1
    vertex 0.5 0.220238 1
  endloop
endfacet
facet normal 0 0 -1
  outer loop
    vertex 0.291667 0.291667 1
    vertex 0.25 0 1
    vertex 0.161458 0.161458 1
  endloop
endfacet
facet normal 0 0 -1
  outer loop
    vertex 0 0.25 1
    vertex 0 0.5 1
    vertex 0.220238 0.5 1
  endloop
endfacet
facet normal -0 0 -1
  outer loop
    vertex 0.291667 0.291667 1
    vertex 0 0.25 1
    vertex 0.220238 0.5 1
  endloop
endfacet
facet normal 0 0 -1
  outer loop
    vertex 0 0.25 1
    vertex 0.291667 0.291667 1
    vertex 0.161458 0.161458 1
  endloop
endfacet
facet normal 0 0 -1
  outer loop
    vertex 0 0.5 1
    vertex 0 0.75 1
    vertex 0.220238 0.5 1
  endloop
endfacet
facet normal 0 0 -1
  outer loop
    vertex 0 0.75 1
    vertex 0.291667 0.708333 1
    vertex 0.220238 0.5 1
  endloop
endfacet
facet normal 0 0 -1
  outer loop
    vertex 0.291667 0.708333 1
    vertex 0 0.75 1
    vertex 0.161458 0.838542 1
  endloop
endfacet
facet normal 0 0 -1
  outer loop
    vertex 0.25 1 1
    vertex 0.5 1 1
    vertex 0.5 0.779762 1
  endloop
endfacet
facet normal 0 0 -1
  outer loop
    vertex 0.291667 0.708333 1
    vertex 0.25 1 1
    vertex 0.5 0.779762 1
  endloop
endfacet
facet normal 0 -0 -1
  outer loop
    vertex 0.25 1 1
    vertex 0.291667 0.708333 1
    vertex 0.161458 0.838542 1
  endloop
endfacet
facet normal 0 0 -1
  outer loop
    vertex 0.5 1 1
    vertex 0.75 1 1
    vertex 0.5 0.779762 1
  endloop
endfacet
facet normal 0 0 -1
  outer loop
    vertex 0.75 1 1
    vertex 0.708333 0.708333 1
    vertex 0.5 0.779762 1
  endloop
endfacet
facet normal 0 0 -1
  outer loop
    vertex 0.708333 0.708333 1
    vertex 0.75 1 1
    vertex 0.838542 0.838542 1
  endloop
endfacet
facet normal 0 0 -1
  outer loop
    vertex 0.5 0.5 1
    vertex 0.708333 0.708333 1
    vertex 0.779762 0.5 1
  endloop
endfacet
facet normal -0 0 -1
  outer loop
    vertex 0.708333 0.708333 1
    vertex 0.5 0.5 1
    vertex 0.5 0.779762 1
  endloop
endfacet
facet normal 0 0 -1
  outer loop
    vertex 0.708333 0.291667 1
    vertex 0.5 0.5 1
    vertex 0.779762 0.5 1
  endloop
endfacet
facet normal 0 -0 -1
  outer loop
    vertex 0.5 0.5 1
    vertex 0.708333 0.291667 1
    vertex 0.5 0.220238 1
  endloop
endfacet
facet normal 0 0 -1
  outer loop
    vertex 0.5 0.5 1
    vertex 0.291667 0.708333 1
    vertex 0.5 0.779762 1
  endloop
endfacet
facet normal 0 -0 -1
  outer loop
    vertex 0.291667 0.708333 1
    vertex 0.5 0.5 1
    vertex 0.220238 0.5 1
  endloop
endfacet
facet normal 0 0 -1
  outer loop
    vertex 0.291667 0.291667 1
    vertex 0.5 0.5 1
    vertex 0.5 0.220238 1
  endloop
endfacet
facet normal -0 0 -1
  outer loop
    vertex 0.5 0.5 1
    vertex 0.291667 0.291667 1
    vertex 0.220238 0.5 1
  endloop
endfacet
endsolid Created by Gmsh
