solid  solid Created by Gmsh                                                                                                           
  facet normal    0.00000000E+00   0.00000000E+00  -1.00000000E+00
    outer loop
      vertex    2.50000000E-01   0.00000000E+00   0.00000000E+00
      vertex    0.00000000E+00   0.00000000E+00   0.00000000E+00
      vertex    1.61458000E-01   1.61458000E-01   0.00000000E+00
    endloop
    endfacet    0,1,25,82,23,24,28,83,92,94,126,127
  facet normal    0.00000000E+00   0.00000000E+00  -1.00000000E+00
    outer loop
      vertex    0.00000000E+00   0.00000000E+00   0.00000000E+00
      vertex    0.00000000E+00   2.50000000E-01   0.00000000E+00
      vertex    1.61458000E-01   1.61458000E-01   0.00000000E+00
    endloop
    endfacet    1,0,28,126,25,26,27,82,83,127,134,135
  facet normal    0.00000000E+00  -0.00000000E+00  -1.00000000E+00
    outer loop
      vertex    1.00000000E+00   2.50000000E-01   0.00000000E+00
      vertex    1.00000000E+00   0.00000000E+00   0.00000000E+00
      vertex    8.38542000E-01   1.61458000E-01   0.00000000E+00
    endloop
    endfacet    2,3,19,40,17,18,22,41,50,52,84,85
  facet normal    0.00000000E+00   0.00000000E+00  -1.00000000E+00
    outer loop
      vertex    1.00000000E+00   0.00000000E+00   0.00000000E+00
      vertex    7.50000000E-01   0.00000000E+00   0.00000000E+00
      vertex    8.38542000E-01   1.61458000E-01   0.00000000E+00
    endloop
    endfacet    3,2,22,84,19,20,21,40,41,85,90,91
  facet normal    0.00000000E+00   0.00000000E+00  -1.00000000E+00
    outer loop
      vertex    7.50000000E-01   1.00000000E+00   0.00000000E+00
      vertex    1.00000000E+00   1.00000000E+00   0.00000000E+00
      vertex    8.38542000E-01   8.38542000E-01   0.00000000E+00
    endloop
    endfacet    4,5,13,168,11,12,16,42,43,169,178,180
  facet normal    0.00000000E+00  -0.00000000E+00  -1.00000000E+00
    outer loop
      vertex    1.00000000E+00   1.00000000E+00   0.00000000E+00
      vertex    1.00000000E+00   7.50000000E-01   0.00000000E+00
      vertex    8.38542000E-01   8.38542000E-01   0.00000000E+00
    endloop
    endfacet    5,4,16,42,13,14,15,43,48,49,168,169
  facet normal    0.00000000E+00   0.00000000E+00  -1.00000000E+00
    outer loop
      vertex    0.00000000E+00   1.00000000E+00   0.00000000E+00
      vertex    2.50000000E-01   1.00000000E+00   0.00000000E+00
      vertex    1.61458000E-01   8.38542000E-01   0.00000000E+00
    endloop
    endfacet    6,7,10,170,8,9,31,128,129,171,176,177
  facet normal    0.00000000E+00   0.00000000E+00  -1.00000000E+00
    outer loop
      vertex    0.00000000E+00   7.50000000E-01   0.00000000E+00
      vertex    0.00000000E+00   1.00000000E+00   0.00000000E+00
      vertex    1.61458000E-01   8.38542000E-01   0.00000000E+00
    endloop
    endfacet    7,6,31,128,10,29,30,129,136,138,170,171
  facet normal    0.00000000E+00   0.00000000E+00  -1.00000000E+00
    outer loop
      vertex    2.50000000E-01   1.00000000E+00   0.00000000E+00
      vertex    5.00000000E-01   1.00000000E+00   0.00000000E+00
      vertex    5.00000000E-01   7.79762000E-01   0.00000000E+00
    endloop
    endfacet    8,9,11,176,6,10,12,33,36,170,177,178,179
  facet normal    0.00000000E+00   0.00000000E+00  -1.00000000E+00
    outer loop
      vertex    2.91667000E-01   7.08333000E-01   0.00000000E+00
      vertex    2.50000000E-01   1.00000000E+00   0.00000000E+00
      vertex    5.00000000E-01   7.79762000E-01   0.00000000E+00
    endloop
    endfacet    9,8,10,36,6,11,12,30,31,33,37,170,176,177
  facet normal    0.00000000E+00  -0.00000000E+00  -1.00000000E+00
    outer loop
      vertex    2.50000000E-01   1.00000000E+00   0.00000000E+00
      vertex    2.91667000E-01   7.08333000E-01   0.00000000E+00
      vertex    1.61458000E-01   8.38542000E-01   0.00000000E+00
    endloop
    endfacet    10,6,9,31,7,8,30,36,37,170,176,177
  facet normal    0.00000000E+00   0.00000000E+00  -1.00000000E+00
    outer loop
      vertex    5.00000000E-01   1.00000000E+00   0.00000000E+00
      vertex    7.50000000E-01   1.00000000E+00   0.00000000E+00
      vertex    5.00000000E-01   7.79762000E-01   0.00000000E+00
    endloop
    endfacet    11,8,12,178,4,9,13,33,36,168,176,179,180
  facet normal    0.00000000E+00   0.00000000E+00  -1.00000000E+00
    outer loop
      vertex    7.50000000E-01   1.00000000E+00   0.00000000E+00
      vertex    7.08333000E-01   7.08333000E-01   0.00000000E+00
      vertex    5.00000000E-01   7.79762000E-01   0.00000000E+00
    endloop
    endfacet    12,11,13,33,4,8,9,15,16,32,36,168,178,180
  facet normal    0.00000000E+00   0.00000000E+00  -1.00000000E+00
    outer loop
      vertex    7.08333000E-01   7.08333000E-01   0.00000000E+00
      vertex    7.50000000E-01   1.00000000E+00   0.00000000E+00
      vertex    8.38542000E-01   8.38542000E-01   0.00000000E+00
    endloop
    endfacet    13,4,12,16,5,11,15,32,33,168,178,180
  facet normal    0.00000000E+00  -0.00000000E+00  -1.00000000E+00
    outer loop
      vertex    1.00000000E+00   7.50000000E-01   0.00000000E+00
      vertex    1.00000000E+00   5.00000000E-01   0.00000000E+00
      vertex    7.79762000E-01   5.00000000E-01   0.00000000E+00
    endloop
    endfacet    14,15,17,48,5,16,18,32,34,42,49,50,51
  facet normal    0.00000000E+00   0.00000000E+00  -1.00000000E+00
    outer loop
      vertex    7.08333000E-01   7.08333000E-01   0.00000000E+00
      vertex    1.00000000E+00   7.50000000E-01   0.00000000E+00
      vertex    7.79762000E-01   5.00000000E-01   0.00000000E+00
    endloop
    endfacet    15,14,16,32,5,12,13,17,18,33,34,42,48,49
  facet normal   -0.00000000E+00   0.00000000E+00  -1.00000000E+00
    outer loop
      vertex    1.00000000E+00   7.50000000E-01   0.00000000E+00
      vertex    7.08333000E-01   7.08333000E-01   0.00000000E+00
      vertex    8.38542000E-01   8.38542000E-01   0.00000000E+00
    endloop
    endfacet    16,5,13,15,4,12,14,32,33,42,48,49
  facet normal    0.00000000E+00  -0.00000000E+00  -1.00000000E+00
    outer loop
      vertex    1.00000000E+00   5.00000000E-01   0.00000000E+00
      vertex    1.00000000E+00   2.50000000E-01   0.00000000E+00
      vertex    7.79762000E-01   5.00000000E-01   0.00000000E+00
    endloop
    endfacet    17,14,18,50,2,15,19,32,34,40,48,51,52
  facet normal    0.00000000E+00   0.00000000E+00  -1.00000000E+00
    outer loop
      vertex    1.00000000E+00   2.50000000E-01   0.00000000E+00
      vertex    7.08333000E-01   2.91667000E-01   0.00000000E+00
      vertex    7.79762000E-01   5.00000000E-01   0.00000000E+00
    endloop
    endfacet    18,17,19,34,2,14,15,21,22,32,35,40,50,52
  facet normal    0.00000000E+00   0.00000000E+00  -1.00000000E+00
    outer loop
      vertex    7.08333000E-01   2.91667000E-01   0.00000000E+00
      vertex    1.00000000E+00   2.50000000E-01   0.00000000E+00
      vertex    8.38542000E-01   1.61458000E-01   0.00000000E+00
    endloop
    endfacet    19,2,18,22,3,17,21,34,35,40,50,52
  facet normal    0.00000000E+00   0.00000000E+00  -1.00000000E+00
    outer loop
      vertex    7.50000000E-01   0.00000000E+00   0.00000000E+00
      vertex    5.00000000E-01   0.00000000E+00   0.00000000E+00
      vertex    5.00000000E-01   2.20238000E-01   0.00000000E+00
    endloop
    endfacet    20,21,23,90,3,22,24,35,38,84,91,92,93
  facet normal    0.00000000E+00  -0.00000000E+00  -1.00000000E+00
    outer loop
      vertex    7.08333000E-01   2.91667000E-01   0.00000000E+00
      vertex    7.50000000E-01   0.00000000E+00   0.00000000E+00
      vertex    5.00000000E-01   2.20238000E-01   0.00000000E+00
    endloop
    endfacet    21,20,22,35,3,18,19,23,24,34,38,84,90,91
  facet normal    0.00000000E+00   0.00000000E+00  -1.00000000E+00
    outer loop
      vertex    7.50000000E-01   0.00000000E+00   0.00000000E+00
      vertex    7.08333000E-01   2.91667000E-01   0.00000000E+00
      vertex    8.38542000E-01   1.61458000E-01   0.00000000E+00
    endloop
    endfacet    22,3,19,21,2,18,20,34,35,84,90,91
  facet normal    0.00000000E+00   0.00000000E+00  -1.00000000E+00
    outer loop
      vertex    5.00000000E-01   0.00000000E+00   0.00000000E+00
      vertex    2.50000000E-01   0.00000000E+00   0.00000000E+00
      vertex    5.00000000E-01   2.20238000E-01   0.00000000E+00
    endloop
    endfacet    23,20,24,92,0,21,25,35,38,82,90,93,94
  facet normal    0.00000000E+00   0.00000000E+00  -1.00000000E+00
    outer loop
      vertex    2.50000000E-01   0.00000000E+00   0.00000000E+00
      vertex    2.91667000E-01   2.91667000E-01   0.00000000E+00
      vertex    5.00000000E-01   2.20238000E-01   0.00000000E+00
    endloop
    endfacet    24,23,25,38,0,20,21,27,28,35,39,82,92,94
  facet normal    0.00000000E+00   0.00000000E+00  -1.00000000E+00
    outer loop
      vertex    2.91667000E-01   2.91667000E-01   0.00000000E+00
      vertex    2.50000000E-01   0.00000000E+00   0.00000000E+00
      vertex    1.61458000E-01   1.61458000E-01   0.00000000E+00
    endloop
    endfacet    25,0,24,28,1,23,27,38,39,82,92,94
  facet normal    0.00000000E+00   0.00000000E+00  -1.00000000E+00
    outer loop
      vertex    0.00000000E+00   2.50000000E-01   0.00000000E+00
      vertex    0.00000000E+00   5.00000000E-01   0.00000000E+00
      vertex    2.20238000E-01   5.00000000E-01   0.00000000E+00
    endloop
    endfacet    26,27,29,134,1,28,30,37,39,126,135,136,137
  facet normal   -0.00000000E+00   0.00000000E+00  -1.00000000E+00
    outer loop
      vertex    2.91667000E-01   2.91667000E-01   0.00000000E+00
      vertex    0.00000000E+00   2.50000000E-01   0.00000000E+00
      vertex    2.20238000E-01   5.00000000E-01   0.00000000E+00
    endloop
    endfacet    27,26,28,39,1,24,25,29,30,37,38,126,134,135
  facet normal    0.00000000E+00   0.00000000E+00  -1.00000000E+00
    outer loop
      vertex    0.00000000E+00   2.50000000E-01   0.00000000E+00
      vertex    2.91667000E-01   2.91667000E-01   0.00000000E+00
      vertex    1.61458000E-01   1.61458000E-01   0.00000000E+00
    endloop
    endfacet    28,1,25,27,0,24,26,38,39,126,134,135
  facet normal    0.00000000E+00   0.00000000E+00  -1.00000000E+00
    outer loop
      vertex    0.00000000E+00   5.00000000E-01   0.00000000E+00
      vertex    0.00000000E+00   7.50000000E-01   0.00000000E+00
      vertex    2.20238000E-01   5.00000000E-01   0.00000000E+00
    endloop
    endfacet    29,26,30,136,7,27,31,37,39,128,134,137,138
  facet normal    0.00000000E+00   0.00000000E+00  -1.00000000E+00
    outer loop
      vertex    0.00000000E+00   7.50000000E-01   0.00000000E+00
      vertex    2.91667000E-01   7.08333000E-01   0.00000000E+00
      vertex    2.20238000E-01   5.00000000E-01   0.00000000E+00
    endloop
    endfacet    30,29,31,37,7,9,10,26,27,36,39,128,136,138
  facet normal    0.00000000E+00   0.00000000E+00  -1.00000000E+00
    outer loop
      vertex    2.91667000E-01   7.08333000E-01   0.00000000E+00
      vertex    0.00000000E+00   7.50000000E-01   0.00000000E+00
      vertex    1.61458000E-01   8.38542000E-01   0.00000000E+00
    endloop
    endfacet    31,7,10,30,6,9,29,36,37,128,136,138
  facet normal    0.00000000E+00   0.00000000E+00  -1.00000000E+00
    outer loop
      vertex    5.00000000E-01   5.00000000E-01   0.00000000E+00
      vertex    7.08333000E-01   7.08333000E-01   0.00000000E+00
      vertex    7.79762000E-01   5.00000000E-01   0.00000000E+00
    endloop
    endfacet    32,15,33,34,12,13,14,16,17,18,35,36,37,38,39
  facet normal   -0.00000000E+00   0.00000000E+00  -1.00000000E+00
    outer loop
      vertex    7.08333000E-01   7.08333000E-01   0.00000000E+00
      vertex    5.00000000E-01   5.00000000E-01   0.00000000E+00
      vertex    5.00000000E-01   7.79762000E-01   0.00000000E+00
    endloop
    endfacet    33,12,32,36,8,9,11,13,15,16,34,35,37,38,39
  facet normal    0.00000000E+00   0.00000000E+00  -1.00000000E+00
    outer loop
      vertex    7.08333000E-01   2.91667000E-01   0.00000000E+00
      vertex    5.00000000E-01   5.00000000E-01   0.00000000E+00
      vertex    7.79762000E-01   5.00000000E-01   0.00000000E+00
    endloop
    endfacet    34,18,32,35,14,15,17,19,21,22,33,36,37,38,39
  facet normal    0.00000000E+00  -0.00000000E+00  -1.00000000E+00
    outer loop
      vertex    5.00000000E-01   5.00000000E-01   0.00000000E+00
      vertex    7.08333000E-01   2.91667000E-01   0.00000000E+00
      vertex    5.00000000E-01   2.20238000E-01   0.00000000E+00
    endloop
    endfacet    35,21,34,38,18,19,20,22,23,24,32,33,36,37,39
  facet normal    0.00000000E+00   0.00000000E+00  -1.00000000E+00
    outer loop
      vertex    5.00000000E-01   5.00000000E-01   0.00000000E+00
      vertex    2.91667000E-01   7.08333000E-01   0.00000000E+00
      vertex    5.00000000E-01   7.79762000E-01   0.00000000E+00
    endloop
    endfacet    36,9,33,37,8,10,11,12,30,31,32,34,35,38,39
  facet normal    0.00000000E+00  -0.00000000E+00  -1.00000000E+00
    outer loop
      vertex    2.91667000E-01   7.08333000E-01   0.00000000E+00
      vertex    5.00000000E-01   5.00000000E-01   0.00000000E+00
      vertex    2.20238000E-01   5.00000000E-01   0.00000000E+00
    endloop
    endfacet    37,30,36,39,9,10,26,27,29,31,32,33,34,35,38
  facet normal    0.00000000E+00   0.00000000E+00  -1.00000000E+00
    outer loop
      vertex    2.91667000E-01   2.91667000E-01   0.00000000E+00
      vertex    5.00000000E-01   5.00000000E-01   0.00000000E+00
      vertex    5.00000000E-01   2.20238000E-01   0.00000000E+00
    endloop
    endfacet    38,24,35,39,20,21,23,25,27,28,32,33,34,36,37
  facet normal   -0.00000000E+00   0.00000000E+00  -1.00000000E+00
    outer loop
      vertex    5.00000000E-01   5.00000000E-01   0.00000000E+00
      vertex    2.91667000E-01   2.91667000E-01   0.00000000E+00
      vertex    2.20238000E-01   5.00000000E-01   0.00000000E+00
    endloop
    endfacet    39,27,37,38,24,25,26,28,29,30,32,33,34,35,36
  facet normal   -1.00000000E+00   0.00000000E+00  -0.00000000E+00
    outer loop
      vertex    1.00000000E+00   2.06493000E-01   1.97962000E-01
      vertex    1.00000000E+00   2.50000000E-01   0.00000000E+00
      vertex    1.00000000E+00   0.00000000E+00   0.00000000E+00
    endloop
    endfacet    40,2,41,52,3,17,18,19,50,64,80,81,84,85
  facet normal   -1.00000000E+00   0.00000000E+00   0.00000000E+00
    outer loop
      vertex    1.00000000E+00   0.00000000E+00   2.50000000E-01
      vertex    1.00000000E+00   2.06493000E-01   1.97962000E-01
      vertex    1.00000000E+00   0.00000000E+00   0.00000000E+00
    endloop
    endfacet    41,40,64,85,2,3,52,63,80,81,84,100,101
  facet normal   -1.00000000E+00   0.00000000E+00   0.00000000E+00
    outer loop
      vertex    1.00000000E+00   7.50000000E-01   0.00000000E+00
      vertex    1.00000000E+00   8.22679000E-01   1.71634000E-01
      vertex    1.00000000E+00   1.00000000E+00   0.00000000E+00
    endloop
    endfacet    42,5,43,49,4,14,15,16,48,59,74,168,169
  facet normal   -1.00000000E+00   0.00000000E+00   0.00000000E+00
    outer loop
      vertex    1.00000000E+00   8.22679000E-01   1.71634000E-01
      vertex    1.00000000E+00   1.00000000E+00   2.50000000E-01
      vertex    1.00000000E+00   1.00000000E+00   0.00000000E+00
    endloop
    endfacet    43,42,59,169,4,5,49,58,74,168,186,187
  facet normal   -1.00000000E+00   0.00000000E+00   0.00000000E+00
    outer loop
      vertex    1.00000000E+00   8.48244000E-01   8.47329000E-01
      vertex    1.00000000E+00   7.50000000E-01   1.00000000E+00
      vertex    1.00000000E+00   1.00000000E+00   1.00000000E+00
    endloop
    endfacet    44,45,54,210,53,62,76,172,173,211,218,219,220
  facet normal   -1.00000000E+00   0.00000000E+00   0.00000000E+00
    outer loop
      vertex    1.00000000E+00   1.00000000E+00   7.50000000E-01
      vertex    1.00000000E+00   8.48244000E-01   8.47329000E-01
      vertex    1.00000000E+00   1.00000000E+00   1.00000000E+00
    endloop
    endfacet    45,44,62,173,54,60,76,172,188,210,211
  facet normal   -1.00000000E+00  -0.00000000E+00   0.00000000E+00
    outer loop
      vertex    1.00000000E+00   2.50000000E-01   1.00000000E+00
      vertex    1.00000000E+00   2.33735000E-01   8.37072000E-01
      vertex    1.00000000E+00   0.00000000E+00   1.00000000E+00
    endloop
    endfacet    46,47,55,212,56,67,68,86,87,213,221,222,223
  facet normal   -1.00000000E+00  -0.00000000E+00   0.00000000E+00
    outer loop
      vertex    1.00000000E+00   2.33735000E-01   8.37072000E-01
      vertex    1.00000000E+00   0.00000000E+00   7.50000000E-01
      vertex    1.00000000E+00   0.00000000E+00   1.00000000E+00
    endloop
    endfacet    47,46,67,87,55,56,65,68,86,102,104,212,213
  facet normal   -1.00000000E+00   0.00000000E+00  -0.00000000E+00
    outer loop
      vertex    1.00000000E+00   6.12004000E-01   2.21487000E-01
      vertex    1.00000000E+00   7.50000000E-01   0.00000000E+00
      vertex    1.00000000E+00   5.00000000E-01   0.00000000E+00
    endloop
    endfacet    48,14,49,51,5,15,16,17,42,50,73,74,79
  facet normal   -1.00000000E+00  -0.00000000E+00   0.00000000E+00
    outer loop
      vertex    1.00000000E+00   8.22679000E-01   1.71634000E-01
      vertex    1.00000000E+00   7.50000000E-01   0.00000000E+00
      vertex    1.00000000E+00   6.12004000E-01   2.21487000E-01
    endloop
    endfacet    49,42,48,74,5,14,15,16,43,51,59,73,79
  facet normal   -1.00000000E+00   0.00000000E+00   0.00000000E+00
    outer loop
      vertex    1.00000000E+00   2.50000000E-01   0.00000000E+00
      vertex    1.00000000E+00   3.95556000E-01   1.58362000E-01
      vertex    1.00000000E+00   5.00000000E-01   0.00000000E+00
    endloop
    endfacet    50,17,51,52,2,14,18,19,40,48,79,80
  facet normal   -1.00000000E+00   0.00000000E+00   0.00000000E+00
    outer loop
      vertex    1.00000000E+00   3.95556000E-01   1.58362000E-01
      vertex    1.00000000E+00   6.12004000E-01   2.21487000E-01
      vertex    1.00000000E+00   5.00000000E-01   0.00000000E+00
    endloop
    endfacet    51,48,50,79,14,17,49,52,73,74,80
  facet normal   -1.00000000E+00  -0.00000000E+00   0.00000000E+00
    outer loop
      vertex    1.00000000E+00   3.95556000E-01   1.58362000E-01
      vertex    1.00000000E+00   2.50000000E-01   0.00000000E+00
      vertex    1.00000000E+00   2.06493000E-01   1.97962000E-01
    endloop
    endfacet    52,40,50,80,2,17,18,19,41,51,64,79,81
  facet normal   -1.00000000E+00  -0.00000000E+00   0.00000000E+00
    outer loop
      vertex    1.00000000E+00   7.50000000E-01   1.00000000E+00
      vertex    1.00000000E+00   6.64812000E-01   7.94584000E-01
      vertex    1.00000000E+00   5.00000000E-01   1.00000000E+00
    endloop
    endfacet    53,54,57,218,44,55,56,75,76,78,210,219,220,221
  facet normal   -1.00000000E+00   0.00000000E+00  -0.00000000E+00
    outer loop
      vertex    1.00000000E+00   7.50000000E-01   1.00000000E+00
      vertex    1.00000000E+00   8.48244000E-01   8.47329000E-01
      vertex    1.00000000E+00   6.64812000E-01   7.94584000E-01
    endloop
    endfacet    54,44,53,76,45,57,62,75,78,210,218,219,220
  facet normal   -1.00000000E+00  -0.00000000E+00   0.00000000E+00
    outer loop
      vertex    1.00000000E+00   5.00000000E-01   1.00000000E+00
      vertex    1.00000000E+00   2.33735000E-01   8.37072000E-01
      vertex    1.00000000E+00   2.50000000E-01   1.00000000E+00
    endloop
    endfacet    55,46,56,221,47,53,57,67,68,212,218,222,223
  facet normal   -1.00000000E+00   0.00000000E+00   0.00000000E+00
    outer loop
      vertex    1.00000000E+00   2.33735000E-01   8.37072000E-01
      vertex    1.00000000E+00   5.00000000E-01   1.00000000E+00
      vertex    1.00000000E+00   4.40641000E-01   6.92455000E-01
    endloop
    endfacet    56,55,57,68,46,47,53,67,70,77,78,218,221
  facet normal   -1.00000000E+00   0.00000000E+00  -0.00000000E+00
    outer loop
      vertex    1.00000000E+00   5.00000000E-01   1.00000000E+00
      vertex    1.00000000E+00   6.64812000E-01   7.94584000E-01
      vertex    1.00000000E+00   4.40641000E-01   6.92455000E-01
    endloop
    endfacet    57,53,56,78,54,55,68,70,75,76,77,218,221
  facet normal   -1.00000000E+00   0.00000000E+00   0.00000000E+00
    outer loop
      vertex    1.00000000E+00   1.00000000E+00   2.50000000E-01
      vertex    1.00000000E+00   7.58036000E-01   3.90785000E-01
      vertex    1.00000000E+00   1.00000000E+00   5.00000000E-01
    endloop
    endfacet    58,59,61,186,43,60,71,72,73,74,169,187,188,189,190
  facet normal   -1.00000000E+00  -0.00000000E+00   0.00000000E+00
    outer loop
      vertex    1.00000000E+00   1.00000000E+00   2.50000000E-01
      vertex    1.00000000E+00   8.22679000E-01   1.71634000E-01
      vertex    1.00000000E+00   7.58036000E-01   3.90785000E-01
    endloop
    endfacet    59,43,58,74,42,49,61,71,72,73,169,186,187
  facet normal   -1.00000000E+00   0.00000000E+00   0.00000000E+00
    outer loop
      vertex    1.00000000E+00   1.00000000E+00   5.00000000E-01
      vertex    1.00000000E+00   8.31249000E-01   6.41112000E-01
      vertex    1.00000000E+00   1.00000000E+00   7.50000000E-01
    endloop
    endfacet    60,61,62,188,45,58,71,75,76,173,186,189,190
  facet normal   -1.00000000E+00   0.00000000E+00   0.00000000E+00
    outer loop
      vertex    1.00000000E+00   7.58036000E-01   3.90785000E-01
      vertex    1.00000000E+00   8.31249000E-01   6.41112000E-01
      vertex    1.00000000E+00   1.00000000E+00   5.00000000E-01
    endloop
    endfacet    61,58,60,71,59,62,72,73,74,75,76,186,188,189,190
  facet normal   -1.00000000E+00   0.00000000E+00   0.00000000E+00
    outer loop
      vertex    1.00000000E+00   8.31249000E-01   6.41112000E-01
      vertex    1.00000000E+00   8.48244000E-01   8.47329000E-01
      vertex    1.00000000E+00   1.00000000E+00   7.50000000E-01
    endloop
    endfacet    62,45,60,76,44,54,61,71,75,173,188
  facet normal   -1.00000000E+00  -0.00000000E+00   0.00000000E+00
    outer loop
      vertex    1.00000000E+00   1.68562000E-01   3.84214000E-01
      vertex    1.00000000E+00   0.00000000E+00   2.50000000E-01
      vertex    1.00000000E+00   0.00000000E+00   5.00000000E-01
    endloop
    endfacet    63,64,66,100,41,65,69,81,85,101,102,103
  facet normal   -1.00000000E+00   0.00000000E+00   0.00000000E+00
    outer loop
      vertex    1.00000000E+00   2.06493000E-01   1.97962000E-01
      vertex    1.00000000E+00   0.00000000E+00   2.50000000E-01
      vertex    1.00000000E+00   1.68562000E-01   3.84214000E-01
    endloop
    endfacet    64,41,63,81,40,52,66,69,80,85,100,101
  facet normal   -1.00000000E+00   0.00000000E+00   0.00000000E+00
    outer loop
      vertex    1.00000000E+00   0.00000000E+00   7.50000000E-01
      vertex    1.00000000E+00   2.11768000E-01   5.79980000E-01
      vertex    1.00000000E+00   0.00000000E+00   5.00000000E-01
    endloop
    endfacet    65,66,67,102,47,63,68,69,70,87,100,103,104
  facet normal   -1.00000000E+00   0.00000000E+00   0.00000000E+00
    outer loop
      vertex    1.00000000E+00   0.00000000E+00   5.00000000E-01
      vertex    1.00000000E+00   2.11768000E-01   5.79980000E-01
      vertex    1.00000000E+00   1.68562000E-01   3.84214000E-01
    endloop
    endfacet    66,63,65,69,64,67,68,70,81,100,102,103
  facet normal   -1.00000000E+00   0.00000000E+00   0.00000000E+00
    outer loop
      vertex    1.00000000E+00   0.00000000E+00   7.50000000E-01
      vertex    1.00000000E+00   2.33735000E-01   8.37072000E-01
      vertex    1.00000000E+00   2.11768000E-01   5.79980000E-01
    endloop
    endfacet    67,47,65,68,46,55,56,66,69,70,87,102,104
  facet normal   -1.00000000E+00  -0.00000000E+00   0.00000000E+00
    outer loop
      vertex    1.00000000E+00   4.40641000E-01   6.92455000E-01
      vertex    1.00000000E+00   2.11768000E-01   5.79980000E-01
      vertex    1.00000000E+00   2.33735000E-01   8.37072000E-01
    endloop
    endfacet    68,56,67,70,46,47,55,57,65,66,69,77,78
  facet normal   -1.00000000E+00   0.00000000E+00  -0.00000000E+00
    outer loop
      vertex    1.00000000E+00   2.11768000E-01   5.79980000E-01
      vertex    1.00000000E+00   4.24838000E-01   3.95197000E-01
      vertex    1.00000000E+00   1.68562000E-01   3.84214000E-01
    endloop
    endfacet    69,66,70,81,63,64,65,67,68,72,73,77,79,80
  facet normal   -1.00000000E+00   0.00000000E+00   0.00000000E+00
    outer loop
      vertex    1.00000000E+00   4.40641000E-01   6.92455000E-01
      vertex    1.00000000E+00   4.24838000E-01   3.95197000E-01
      vertex    1.00000000E+00   2.11768000E-01   5.79980000E-01
    endloop
    endfacet    70,68,69,77,56,57,65,66,67,72,73,78,79,80,81
  facet normal   -1.00000000E+00   0.00000000E+00   0.00000000E+00
    outer loop
      vertex    1.00000000E+00   7.58036000E-01   3.90785000E-01
      vertex    1.00000000E+00   6.15481000E-01   5.56067000E-01
      vertex    1.00000000E+00   8.31249000E-01   6.41112000E-01
    endloop
    endfacet    71,61,72,75,58,59,60,62,73,74,76,77,78
  facet normal   -1.00000000E+00   0.00000000E+00  -0.00000000E+00
    outer loop
      vertex    1.00000000E+00   6.15481000E-01   5.56067000E-01
      vertex    1.00000000E+00   7.58036000E-01   3.90785000E-01
      vertex    1.00000000E+00   4.24838000E-01   3.95197000E-01
    endloop
    endfacet    72,71,73,77,58,59,61,69,70,74,75,78,79,80,81
  facet normal   -1.00000000E+00   0.00000000E+00   0.00000000E+00
    outer loop
      vertex    1.00000000E+00   6.12004000E-01   2.21487000E-01
      vertex    1.00000000E+00   4.24838000E-01   3.95197000E-01
      vertex    1.00000000E+00   7.58036000E-01   3.90785000E-01
    endloop
    endfacet    73,72,74,79,48,49,51,58,59,61,69,70,71,77,80,81
  facet normal   -1.00000000E+00   0.00000000E+00   0.00000000E+00
    outer loop
      vertex    1.00000000E+00   8.22679000E-01   1.71634000E-01
      vertex    1.00000000E+00   6.12004000E-01   2.21487000E-01
      vertex    1.00000000E+00   7.58036000E-01   3.90785000E-01
    endloop
    endfacet    74,49,59,73,42,43,48,51,58,61,71,72,79
  facet normal   -1.00000000E+00   0.00000000E+00   0.00000000E+00
    outer loop
      vertex    1.00000000E+00   6.15481000E-01   5.56067000E-01
      vertex    1.00000000E+00   6.64812000E-01   7.94584000E-01
      vertex    1.00000000E+00   8.31249000E-01   6.41112000E-01
    endloop
    endfacet    75,71,76,78,53,54,57,60,61,62,72,77
  facet normal   -1.00000000E+00   0.00000000E+00   0.00000000E+00
    outer loop
      vertex    1.00000000E+00   8.31249000E-01   6.41112000E-01
      vertex    1.00000000E+00   6.64812000E-01   7.94584000E-01
      vertex    1.00000000E+00   8.48244000E-01   8.47329000E-01
    endloop
    endfacet    76,54,62,75,44,45,53,57,60,61,71,78
  facet normal   -1.00000000E+00  -0.00000000E+00   0.00000000E+00
    outer loop
      vertex    1.00000000E+00   6.15481000E-01   5.56067000E-01
      vertex    1.00000000E+00   4.24838000E-01   3.95197000E-01
      vertex    1.00000000E+00   4.40641000E-01   6.92455000E-01
    endloop
    endfacet    77,70,72,78,56,57,68,69,71,73,75,79,80,81
  facet normal   -1.00000000E+00   0.00000000E+00   0.00000000E+00
    outer loop
      vertex    1.00000000E+00   4.40641000E-01   6.92455000E-01
      vertex    1.00000000E+00   6.64812000E-01   7.94584000E-01
      vertex    1.00000000E+00   6.15481000E-01   5.56067000E-01
    endloop
    endfacet    78,57,75,77,53,54,56,68,70,71,72,76
  facet normal   -1.00000000E+00   0.00000000E+00   0.00000000E+00
    outer loop
      vertex    1.00000000E+00   3.95556000E-01   1.58362000E-01
      vertex    1.00000000E+00   4.24838000E-01   3.95197000E-01
      vertex    1.00000000E+00   6.12004000E-01   2.21487000E-01
    endloop
    endfacet    79,51,73,80,48,49,50,52,69,70,72,74,77,81
  facet normal   -1.00000000E+00   0.00000000E+00   0.00000000E+00
    outer loop
      vertex    1.00000000E+00   4.24838000E-01   3.95197000E-01
      vertex    1.00000000E+00   3.95556000E-01   1.58362000E-01
      vertex    1.00000000E+00   2.06493000E-01   1.97962000E-01
    endloop
    endfacet    80,52,79,81,40,41,50,51,64,69,70,72,73,77
  facet normal   -1.00000000E+00   0.00000000E+00   0.00000000E+00
    outer loop
      vertex    1.00000000E+00   1.68562000E-01   3.84214000E-01
      vertex    1.00000000E+00   4.24838000E-01   3.95197000E-01
      vertex    1.00000000E+00   2.06493000E-01   1.97962000E-01
    endloop
    endfacet    81,64,69,80,40,41,52,63,66,70,72,73,77,79
  facet normal    0.00000000E+00   1.00000000E+00   0.00000000E+00
    outer loop
      vertex    1.60051000E-01   0.00000000E+00   1.46538000E-01
      vertex    2.50000000E-01   0.00000000E+00   0.00000000E+00
      vertex    0.00000000E+00   0.00000000E+00   0.00000000E+00
    endloop
    endfacet    82,0,83,94,1,23,24,25,92,106,124,126,127
  facet normal    0.00000000E+00   1.00000000E+00   0.00000000E+00
    outer loop
      vertex    0.00000000E+00   0.00000000E+00   2.50000000E-01
      vertex    1.60051000E-01   0.00000000E+00   1.46538000E-01
      vertex    0.00000000E+00   0.00000000E+00   0.00000000E+00
    endloop
    endfacet    83,82,106,127,0,1,94,105,124,126,144,145
  facet normal    0.00000000E+00   1.00000000E+00   0.00000000E+00
    outer loop
      vertex    7.50000000E-01   0.00000000E+00   0.00000000E+00
      vertex    7.90269000E-01   0.00000000E+00   1.93386000E-01
      vertex    1.00000000E+00   0.00000000E+00   0.00000000E+00
    endloop
    endfacet    84,3,85,91,2,20,21,22,40,41,90,101,119,120
  facet normal   -0.00000000E+00   1.00000000E+00   0.00000000E+00
    outer loop
      vertex    7.90269000E-01   0.00000000E+00   1.93386000E-01
      vertex    1.00000000E+00   0.00000000E+00   2.50000000E-01
      vertex    1.00000000E+00   0.00000000E+00   0.00000000E+00
    endloop
    endfacet    85,41,84,101,2,3,40,63,64,91,100,119,120
  facet normal    0.00000000E+00   1.00000000E+00  -0.00000000E+00
    outer loop
      vertex    8.36187000E-01   0.00000000E+00   8.16756000E-01
      vertex    7.50000000E-01   0.00000000E+00   1.00000000E+00
      vertex    1.00000000E+00   0.00000000E+00   1.00000000E+00
    endloop
    endfacet    86,87,96,213,46,47,95,104,111,212,224,225,226
  facet normal    0.00000000E+00   1.00000000E+00  -0.00000000E+00
    outer loop
      vertex    1.00000000E+00   0.00000000E+00   7.50000000E-01
      vertex    8.36187000E-01   0.00000000E+00   8.16756000E-01
      vertex    1.00000000E+00   0.00000000E+00   1.00000000E+00
    endloop
    endfacet    87,47,86,104,46,65,67,96,102,111,212,213
  facet normal    0.00000000E+00   1.00000000E+00  -0.00000000E+00
    outer loop
      vertex    1.69568000E-01   0.00000000E+00   8.45410000E-01
      vertex    0.00000000E+00   0.00000000E+00   1.00000000E+00
      vertex    2.50000000E-01   0.00000000E+00   1.00000000E+00
    endloop
    endfacet    88,89,99,214,97,109,118,130,131,215,227,228,229
  facet normal    0.00000000E+00   1.00000000E+00   0.00000000E+00
    outer loop
      vertex    0.00000000E+00   0.00000000E+00   1.00000000E+00
      vertex    1.69568000E-01   0.00000000E+00   8.45410000E-01
      vertex    0.00000000E+00   0.00000000E+00   7.50000000E-01
    endloop
    endfacet    89,88,109,131,99,107,118,130,146,148,214,215
  facet normal    0.00000000E+00   1.00000000E+00   0.00000000E+00
    outer loop
      vertex    5.96956000E-01   0.00000000E+00   1.55926000E-01
      vertex    7.50000000E-01   0.00000000E+00   0.00000000E+00
      vertex    5.00000000E-01   0.00000000E+00   0.00000000E+00
    endloop
    endfacet    90,20,91,93,3,21,22,23,84,92,119,121
  facet normal    0.00000000E+00   1.00000000E+00   0.00000000E+00
    outer loop
      vertex    7.90269000E-01   0.00000000E+00   1.93386000E-01
      vertex    7.50000000E-01   0.00000000E+00   0.00000000E+00
      vertex    5.96956000E-01   0.00000000E+00   1.55926000E-01
    endloop
    endfacet    91,84,90,119,3,20,21,22,85,93,101,120,121
  facet normal    0.00000000E+00   1.00000000E+00   0.00000000E+00
    outer loop
      vertex    3.67867000E-01   0.00000000E+00   2.13018000E-01
      vertex    5.00000000E-01   0.00000000E+00   0.00000000E+00
      vertex    2.50000000E-01   0.00000000E+00   0.00000000E+00
    endloop
    endfacet    92,23,93,94,0,20,24,25,82,90,121,122,123,124
  facet normal    0.00000000E+00   1.00000000E+00   0.00000000E+00
    outer loop
      vertex    5.96956000E-01   0.00000000E+00   1.55926000E-01
      vertex    5.00000000E-01   0.00000000E+00   0.00000000E+00
      vertex    3.67867000E-01   0.00000000E+00   2.13018000E-01
    endloop
    endfacet    93,90,92,121,20,23,91,94,119,122,123,124
  facet normal   -0.00000000E+00   1.00000000E+00   0.00000000E+00
    outer loop
      vertex    1.60051000E-01   0.00000000E+00   1.46538000E-01
      vertex    3.67867000E-01   0.00000000E+00   2.13018000E-01
      vertex    2.50000000E-01   0.00000000E+00   0.00000000E+00
    endloop
    endfacet    94,82,92,124,0,23,24,25,83,93,106,121,122,123
  facet normal    0.00000000E+00   1.00000000E+00   0.00000000E+00
    outer loop
      vertex    7.50000000E-01   0.00000000E+00   1.00000000E+00
      vertex    6.26145000E-01   0.00000000E+00   7.90695000E-01
      vertex    5.00000000E-01   0.00000000E+00   1.00000000E+00
    endloop
    endfacet    95,96,98,224,86,97,110,111,114,213,225,226,227
  facet normal    0.00000000E+00   1.00000000E+00   0.00000000E+00
    outer loop
      vertex    7.50000000E-01   0.00000000E+00   1.00000000E+00
      vertex    8.36187000E-01   0.00000000E+00   8.16756000E-01
      vertex    6.26145000E-01   0.00000000E+00   7.90695000E-01
    endloop
    endfacet    96,86,95,111,87,98,104,110,114,213,224,225,226
  facet normal    0.00000000E+00   1.00000000E+00  -0.00000000E+00
    outer loop
      vertex    3.69677000E-01   0.00000000E+00   8.17415000E-01
      vertex    2.50000000E-01   0.00000000E+00   1.00000000E+00
      vertex    5.00000000E-01   0.00000000E+00   1.00000000E+00
    endloop
    endfacet    97,98,99,227,88,95,114,115,118,214,224,228,229
  facet normal    0.00000000E+00   1.00000000E+00   0.00000000E+00
    outer loop
      vertex    5.00000000E-01   0.00000000E+00   1.00000000E+00
      vertex    6.26145000E-01   0.00000000E+00   7.90695000E-01
      vertex    3.69677000E-01   0.00000000E+00   8.17415000E-01
    endloop
    endfacet    98,95,97,114,96,99,110,111,115,118,224,227
  facet normal    0.00000000E+00   1.00000000E+00   0.00000000E+00
    outer loop
      vertex    3.69677000E-01   0.00000000E+00   8.17415000E-01
      vertex    1.69568000E-01   0.00000000E+00   8.45410000E-01
      vertex    2.50000000E-01   0.00000000E+00   1.00000000E+00
    endloop
    endfacet    99,88,97,118,89,98,109,114,115,214,227,228,229
  facet normal    0.00000000E+00   1.00000000E+00  -0.00000000E+00
    outer loop
      vertex    1.00000000E+00   0.00000000E+00   2.50000000E-01
      vertex    8.06937000E-01   0.00000000E+00   3.82825000E-01
      vertex    1.00000000E+00   0.00000000E+00   5.00000000E-01
    endloop
    endfacet    100,63,101,103,41,64,65,66,85,102,113,120
  facet normal    0.00000000E+00   1.00000000E+00   0.00000000E+00
    outer loop
      vertex    1.00000000E+00   0.00000000E+00   2.50000000E-01
      vertex    7.90269000E-01   0.00000000E+00   1.93386000E-01
      vertex    8.06937000E-01   0.00000000E+00   3.82825000E-01
    endloop
    endfacet    101,85,100,120,41,63,64,84,91,103,113,119
  facet normal    0.00000000E+00   1.00000000E+00   0.00000000E+00
    outer loop
      vertex    1.00000000E+00   0.00000000E+00   7.50000000E-01
      vertex    1.00000000E+00   0.00000000E+00   5.00000000E-01
      vertex    7.63109000E-01   0.00000000E+00   5.97706000E-01
    endloop
    endfacet    102,65,103,104,47,63,66,67,87,100,110,111,112,113
  facet normal    0.00000000E+00   1.00000000E+00   0.00000000E+00
    outer loop
      vertex    1.00000000E+00   0.00000000E+00   5.00000000E-01
      vertex    8.06937000E-01   0.00000000E+00   3.82825000E-01
      vertex    7.63109000E-01   0.00000000E+00   5.97706000E-01
    endloop
    endfacet    103,100,102,113,63,65,66,101,104,110,111,112,120
  facet normal    0.00000000E+00   1.00000000E+00   0.00000000E+00
    outer loop
      vertex    7.63109000E-01   0.00000000E+00   5.97706000E-01
      vertex    8.36187000E-01   0.00000000E+00   8.16756000E-01
      vertex    1.00000000E+00   0.00000000E+00   7.50000000E-01
    endloop
    endfacet    104,87,102,111,47,65,67,86,96,103,110,112,113
  facet normal    0.00000000E+00   1.00000000E+00   0.00000000E+00
    outer loop
      vertex    1.83221000E-01   0.00000000E+00   3.67476000E-01
      vertex    0.00000000E+00   0.00000000E+00   2.50000000E-01
      vertex    0.00000000E+00   0.00000000E+00   5.00000000E-01
    endloop
    endfacet    105,106,108,144,83,107,123,124,125,127,145,146,147
  facet normal    0.00000000E+00   1.00000000E+00  -0.00000000E+00
    outer loop
      vertex    1.60051000E-01   0.00000000E+00   1.46538000E-01
      vertex    0.00000000E+00   0.00000000E+00   2.50000000E-01
      vertex    1.83221000E-01   0.00000000E+00   3.67476000E-01
    endloop
    endfacet    106,83,105,124,82,94,108,123,125,127,144,145
  facet normal    0.00000000E+00   1.00000000E+00   0.00000000E+00
    outer loop
      vertex    2.25750000E-01   0.00000000E+00   6.17385000E-01
      vertex    0.00000000E+00   0.00000000E+00   5.00000000E-01
      vertex    0.00000000E+00   0.00000000E+00   7.50000000E-01
    endloop
    endfacet    107,108,109,146,89,105,115,117,118,125,131,144,147,148
  facet normal    0.00000000E+00   1.00000000E+00  -0.00000000E+00
    outer loop
      vertex    1.83221000E-01   0.00000000E+00   3.67476000E-01
      vertex    0.00000000E+00   0.00000000E+00   5.00000000E-01
      vertex    2.25750000E-01   0.00000000E+00   6.17385000E-01
    endloop
    endfacet    108,105,107,125,106,109,115,117,118,123,124,144,146,147
  facet normal    0.00000000E+00   1.00000000E+00   0.00000000E+00
    outer loop
      vertex    1.69568000E-01   0.00000000E+00   8.45410000E-01
      vertex    2.25750000E-01   0.00000000E+00   6.17385000E-01
      vertex    0.00000000E+00   0.00000000E+00   7.50000000E-01
    endloop
    endfacet    109,89,107,118,88,99,108,115,117,125,131,146,148
  facet normal    0.00000000E+00   1.00000000E+00   0.00000000E+00
    outer loop
      vertex    7.63109000E-01   0.00000000E+00   5.97706000E-01
      vertex    4.94219000E-01   0.00000000E+00   6.01749000E-01
      vertex    6.26145000E-01   0.00000000E+00   7.90695000E-01
    endloop
    endfacet    110,111,112,114,95,96,98,102,103,104,113,115,116,117
  facet normal   -0.00000000E+00   1.00000000E+00   0.00000000E+00
    outer loop
      vertex    6.26145000E-01   0.00000000E+00   7.90695000E-01
      vertex    8.36187000E-01   0.00000000E+00   8.16756000E-01
      vertex    7.63109000E-01   0.00000000E+00   5.97706000E-01
    endloop
    endfacet    111,96,104,110,86,87,95,98,102,103,112,113,114
  facet normal    0.00000000E+00   1.00000000E+00  -0.00000000E+00
    outer loop
      vertex    5.87718000E-01   0.00000000E+00   3.71564000E-01
      vertex    4.94219000E-01   0.00000000E+00   6.01749000E-01
      vertex    7.63109000E-01   0.00000000E+00   5.97706000E-01
    endloop
    endfacet    112,110,113,116,102,103,104,111,114,115,117,119,120,121,122
  facet normal    0.00000000E+00   1.00000000E+00   0.00000000E+00
    outer loop
      vertex    7.63109000E-01   0.00000000E+00   5.97706000E-01
      vertex    8.06937000E-01   0.00000000E+00   3.82825000E-01
      vertex    5.87718000E-01   0.00000000E+00   3.71564000E-01
    endloop
    endfacet    113,103,112,120,100,101,102,104,110,111,116,119,121,122
  facet normal    0.00000000E+00   1.00000000E+00   0.00000000E+00
    outer loop
      vertex    6.26145000E-01   0.00000000E+00   7.90695000E-01
      vertex    4.94219000E-01   0.00000000E+00   6.01749000E-01
      vertex    3.69677000E-01   0.00000000E+00   8.17415000E-01
    endloop
    endfacet    114,98,110,115,95,96,97,99,111,112,116,117,118
  facet normal    0.00000000E+00   1.00000000E+00   0.00000000E+00
    outer loop
      vertex    4.94219000E-01   0.00000000E+00   6.01749000E-01
      vertex    2.25750000E-01   0.00000000E+00   6.17385000E-01
      vertex    3.69677000E-01   0.00000000E+00   8.17415000E-01
    endloop
    endfacet    115,114,117,118,97,98,99,107,108,109,110,112,116,125
  facet normal   -0.00000000E+00   1.00000000E+00   0.00000000E+00
    outer loop
      vertex    3.63563000E-01   0.00000000E+00   4.39643000E-01
      vertex    4.94219000E-01   0.00000000E+00   6.01749000E-01
      vertex    5.87718000E-01   0.00000000E+00   3.71564000E-01
    endloop
    endfacet    116,112,117,122,110,113,114,115,119,120,121,123,125
  facet normal    0.00000000E+00   1.00000000E+00   0.00000000E+00
    outer loop
      vertex    4.94219000E-01   0.00000000E+00   6.01749000E-01
      vertex    3.63563000E-01   0.00000000E+00   4.39643000E-01
      vertex    2.25750000E-01   0.00000000E+00   6.17385000E-01
    endloop
    endfacet    117,115,116,125,107,108,109,110,112,114,118,122,123
  facet normal    0.00000000E+00   1.00000000E+00   0.00000000E+00
    outer loop
      vertex    3.69677000E-01   0.00000000E+00   8.17415000E-01
      vertex    2.25750000E-01   0.00000000E+00   6.17385000E-01
      vertex    1.69568000E-01   0.00000000E+00   8.45410000E-01
    endloop
    endfacet    118,99,109,115,88,89,97,98,107,108,114,117,125
  facet normal    0.00000000E+00   1.00000000E+00  -0.00000000E+00
    outer loop
      vertex    5.96956000E-01   0.00000000E+00   1.55926000E-01
      vertex    5.87718000E-01   0.00000000E+00   3.71564000E-01
      vertex    7.90269000E-01   0.00000000E+00   1.93386000E-01
    endloop
    endfacet    119,91,120,121,84,85,90,93,101,112,113,116,122
  facet normal   -0.00000000E+00   1.00000000E+00   0.00000000E+00
    outer loop
      vertex    5.87718000E-01   0.00000000E+00   3.71564000E-01
      vertex    8.06937000E-01   0.00000000E+00   3.82825000E-01
      vertex    7.90269000E-01   0.00000000E+00   1.93386000E-01
    endloop
    endfacet    120,101,113,119,84,85,91,100,103,112,116,121,122
  facet normal    0.00000000E+00   1.00000000E+00   0.00000000E+00
    outer loop
      vertex    5.87718000E-01   0.00000000E+00   3.71564000E-01
      vertex    5.96956000E-01   0.00000000E+00   1.55926000E-01
      vertex    3.67867000E-01   0.00000000E+00   2.13018000E-01
    endloop
    endfacet    121,93,119,122,90,91,92,94,112,113,116,120,123,124
  facet normal    0.00000000E+00   1.00000000E+00  -0.00000000E+00
    outer loop
      vertex    3.67867000E-01   0.00000000E+00   2.13018000E-01
      vertex    3.63563000E-01   0.00000000E+00   4.39643000E-01
      vertex    5.87718000E-01   0.00000000E+00   3.71564000E-01
    endloop
    endfacet    122,116,121,123,92,93,94,112,113,117,119,120,124,125
  facet normal   -0.00000000E+00   1.00000000E+00   0.00000000E+00
    outer loop
      vertex    1.83221000E-01   0.00000000E+00   3.67476000E-01
      vertex    3.63563000E-01   0.00000000E+00   4.39643000E-01
      vertex    3.67867000E-01   0.00000000E+00   2.13018000E-01
    endloop
    endfacet    123,122,124,125,92,93,94,105,106,108,116,117,121
  facet normal    0.00000000E+00   1.00000000E+00   0.00000000E+00
    outer loop
      vertex    1.83221000E-01   0.00000000E+00   3.67476000E-01
      vertex    3.67867000E-01   0.00000000E+00   2.13018000E-01
      vertex    1.60051000E-01   0.00000000E+00   1.46538000E-01
    endloop
    endfacet    124,94,106,123,82,83,92,93,105,108,121,122,125
  facet normal    0.00000000E+00   1.00000000E+00   0.00000000E+00
    outer loop
      vertex    1.83221000E-01   0.00000000E+00   3.67476000E-01
      vertex    2.25750000E-01   0.00000000E+00   6.17385000E-01
      vertex    3.63563000E-01   0.00000000E+00   4.39643000E-01
    endloop
    endfacet    125,108,117,123,105,106,107,109,115,116,118,122,124
  facet normal    1.00000000E+00   0.00000000E+00   0.00000000E+00
    outer loop
      vertex    0.00000000E+00   2.50000000E-01   0.00000000E+00
      vertex    0.00000000E+00   1.77321000E-01   1.71634000E-01
      vertex    0.00000000E+00   0.00000000E+00   0.00000000E+00
    endloop
    endfacet    126,1,127,135,0,26,27,28,82,83,134,145,160
  facet normal    1.00000000E+00   0.00000000E+00   0.00000000E+00
    outer loop
      vertex    0.00000000E+00   1.77321000E-01   1.71634000E-01
      vertex    0.00000000E+00   0.00000000E+00   2.50000000E-01
      vertex    0.00000000E+00   0.00000000E+00   0.00000000E+00
    endloop
    endfacet    127,83,126,145,0,1,82,105,106,135,144,160
  facet normal    1.00000000E+00   0.00000000E+00   0.00000000E+00
    outer loop
      vertex    0.00000000E+00   7.93507000E-01   1.97962000E-01
      vertex    0.00000000E+00   7.50000000E-01   0.00000000E+00
      vertex    0.00000000E+00   1.00000000E+00   0.00000000E+00
    endloop
    endfacet    128,7,129,138,6,29,30,31,136,150,166,167,170,171
  facet normal    1.00000000E+00   0.00000000E+00   0.00000000E+00
    outer loop
      vertex    0.00000000E+00   1.00000000E+00   2.50000000E-01
      vertex    0.00000000E+00   7.93507000E-01   1.97962000E-01
      vertex    0.00000000E+00   1.00000000E+00   0.00000000E+00
    endloop
    endfacet    129,128,150,171,6,7,138,149,166,167,170,191
  facet normal    1.00000000E+00   0.00000000E+00  -0.00000000E+00
    outer loop
      vertex    0.00000000E+00   1.51756000E-01   8.47329000E-01
      vertex    0.00000000E+00   2.50000000E-01   1.00000000E+00
      vertex    0.00000000E+00   0.00000000E+00   1.00000000E+00
    endloop
    endfacet    130,131,140,215,88,89,139,148,162,214,230,231,232
  facet normal    1.00000000E+00   0.00000000E+00   0.00000000E+00
    outer loop
      vertex    0.00000000E+00   0.00000000E+00   7.50000000E-01
      vertex    0.00000000E+00   1.51756000E-01   8.47329000E-01
      vertex    0.00000000E+00   0.00000000E+00   1.00000000E+00
    endloop
    endfacet    131,89,130,148,88,107,109,140,146,162,214,215
  facet normal    1.00000000E+00  -0.00000000E+00   0.00000000E+00
    outer loop
      vertex    0.00000000E+00   7.50000000E-01   1.00000000E+00
      vertex    0.00000000E+00   7.66265000E-01   8.37072000E-01
      vertex    0.00000000E+00   1.00000000E+00   1.00000000E+00
    endloop
    endfacet    132,133,141,216,142,153,154,174,175,217,233,234,235
  facet normal    1.00000000E+00  -0.00000000E+00   0.00000000E+00
    outer loop
      vertex    0.00000000E+00   7.66265000E-01   8.37072000E-01
      vertex    0.00000000E+00   1.00000000E+00   7.50000000E-01
      vertex    0.00000000E+00   1.00000000E+00   1.00000000E+00
    endloop
    endfacet    133,132,153,175,141,142,151,154,174,192,195,216,217
  facet normal    1.00000000E+00   0.00000000E+00   0.00000000E+00
    outer loop
      vertex    0.00000000E+00   3.87996000E-01   2.21487000E-01
      vertex    0.00000000E+00   2.50000000E-01   0.00000000E+00
      vertex    0.00000000E+00   5.00000000E-01   0.00000000E+00
    endloop
    endfacet    134,26,135,137,1,27,28,29,126,136,159,160,165
  facet normal    1.00000000E+00  -0.00000000E+00   0.00000000E+00
    outer loop
      vertex    0.00000000E+00   1.77321000E-01   1.71634000E-01
      vertex    0.00000000E+00   2.50000000E-01   0.00000000E+00
      vertex    0.00000000E+00   3.87996000E-01   2.21487000E-01
    endloop
    endfacet    135,126,134,160,1,26,27,28,127,137,145,159,165
  facet normal    1.00000000E+00   0.00000000E+00   0.00000000E+00
    outer loop
      vertex    0.00000000E+00   7.50000000E-01   0.00000000E+00
      vertex    0.00000000E+00   6.04444000E-01   1.58362000E-01
      vertex    0.00000000E+00   5.00000000E-01   0.00000000E+00
    endloop
    endfacet    136,29,137,138,7,26,30,31,128,134,165,166
  facet normal    1.00000000E+00   0.00000000E+00   0.00000000E+00
    outer loop
      vertex    0.00000000E+00   6.04444000E-01   1.58362000E-01
      vertex    0.00000000E+00   3.87996000E-01   2.21487000E-01
      vertex    0.00000000E+00   5.00000000E-01   0.00000000E+00
    endloop
    endfacet    137,134,136,165,26,29,135,138,159,160,166
  facet normal    1.00000000E+00  -0.00000000E+00   0.00000000E+00
    outer loop
      vertex    0.00000000E+00   6.04444000E-01   1.58362000E-01
      vertex    0.00000000E+00   7.50000000E-01   0.00000000E+00
      vertex    0.00000000E+00   7.93507000E-01   1.97962000E-01
    endloop
    endfacet    138,128,136,166,7,29,30,31,129,137,150,165,167
  facet normal    1.00000000E+00  -0.00000000E+00   0.00000000E+00
    outer loop
      vertex    0.00000000E+00   2.50000000E-01   1.00000000E+00
      vertex    0.00000000E+00   3.35188000E-01   7.94584000E-01
      vertex    0.00000000E+00   5.00000000E-01   1.00000000E+00
    endloop
    endfacet    139,140,143,230,130,141,142,161,162,164,215,231,232,233
  facet normal    1.00000000E+00   0.00000000E+00   0.00000000E+00
    outer loop
      vertex    0.00000000E+00   2.50000000E-01   1.00000000E+00
      vertex    0.00000000E+00   1.51756000E-01   8.47329000E-01
      vertex    0.00000000E+00   3.35188000E-01   7.94584000E-01
    endloop
    endfacet    140,130,139,162,131,143,148,161,164,215,230,231,232
  facet normal    1.00000000E+00  -0.00000000E+00   0.00000000E+00
    outer loop
      vertex    0.00000000E+00   5.00000000E-01   1.00000000E+00
      vertex    0.00000000E+00   7.66265000E-01   8.37072000E-01
      vertex    0.00000000E+00   7.50000000E-01   1.00000000E+00
    endloop
    endfacet    141,132,142,233,133,139,143,153,154,216,230,234,235
  facet normal    1.00000000E+00   0.00000000E+00   0.00000000E+00
    outer loop
      vertex    0.00000000E+00   7.66265000E-01   8.37072000E-01
      vertex    0.00000000E+00   5.00000000E-01   1.00000000E+00
      vertex    0.00000000E+00   5.59359000E-01   6.92455000E-01
    endloop
    endfacet    142,141,143,154,132,133,139,153,156,163,164,230,233
  facet normal    1.00000000E+00   0.00000000E+00   0.00000000E+00
    outer loop
      vertex    0.00000000E+00   5.00000000E-01   1.00000000E+00
      vertex    0.00000000E+00   3.35188000E-01   7.94584000E-01
      vertex    0.00000000E+00   5.59359000E-01   6.92455000E-01
    endloop
    endfacet    143,139,142,164,140,141,154,156,161,162,163,230,233
  facet normal    1.00000000E+00   0.00000000E+00   0.00000000E+00
    outer loop
      vertex    0.00000000E+00   0.00000000E+00   2.50000000E-01
      vertex    0.00000000E+00   2.41964000E-01   3.90785000E-01
      vertex    0.00000000E+00   0.00000000E+00   5.00000000E-01
    endloop
    endfacet    144,105,145,147,83,106,107,108,127,146,157,158,159,160
  facet normal    1.00000000E+00  -0.00000000E+00   0.00000000E+00
    outer loop
      vertex    0.00000000E+00   0.00000000E+00   2.50000000E-01
      vertex    0.00000000E+00   1.77321000E-01   1.71634000E-01
      vertex    0.00000000E+00   2.41964000E-01   3.90785000E-01
    endloop
    endfacet    145,127,144,160,83,105,106,126,135,147,157,158,159
  facet normal    1.00000000E+00   0.00000000E+00   0.00000000E+00
    outer loop
      vertex    0.00000000E+00   0.00000000E+00   5.00000000E-01
      vertex    0.00000000E+00   1.68751000E-01   6.41112000E-01
      vertex    0.00000000E+00   0.00000000E+00   7.50000000E-01
    endloop
    endfacet    146,107,147,148,89,105,108,109,131,144,157,161,162
  facet normal    1.00000000E+00   0.00000000E+00   0.00000000E+00
    outer loop
      vertex    0.00000000E+00   2.41964000E-01   3.90785000E-01
      vertex    0.00000000E+00   1.68751000E-01   6.41112000E-01
      vertex    0.00000000E+00   0.00000000E+00   5.00000000E-01
    endloop
    endfacet    147,144,146,157,105,107,108,145,148,158,159,160,161,162
  facet normal    1.00000000E+00   0.00000000E+00   0.00000000E+00
    outer loop
      vertex    0.00000000E+00   1.68751000E-01   6.41112000E-01
      vertex    0.00000000E+00   1.51756000E-01   8.47329000E-01
      vertex    0.00000000E+00   0.00000000E+00   7.50000000E-01
    endloop
    endfacet    148,131,146,162,89,107,109,130,140,147,157,161
  facet normal    1.00000000E+00  -0.00000000E+00   0.00000000E+00
    outer loop
      vertex    0.00000000E+00   8.31438000E-01   3.84214000E-01
      vertex    0.00000000E+00   1.00000000E+00   2.50000000E-01
      vertex    0.00000000E+00   1.00000000E+00   5.00000000E-01
    endloop
    endfacet    149,150,152,191,129,151,155,167,171,192,193,194
  facet normal    1.00000000E+00   0.00000000E+00   0.00000000E+00
    outer loop
      vertex    0.00000000E+00   7.93507000E-01   1.97962000E-01
      vertex    0.00000000E+00   1.00000000E+00   2.50000000E-01
      vertex    0.00000000E+00   8.31438000E-01   3.84214000E-01
    endloop
    endfacet    150,129,149,167,128,138,152,155,166,171,191
  facet normal    1.00000000E+00   0.00000000E+00   0.00000000E+00
    outer loop
      vertex    0.00000000E+00   1.00000000E+00   7.50000000E-01
      vertex    0.00000000E+00   7.88232000E-01   5.79980000E-01
      vertex    0.00000000E+00   1.00000000E+00   5.00000000E-01
    endloop
    endfacet    151,152,153,192,133,149,154,155,156,175,191,193,194,195
  facet normal    1.00000000E+00   0.00000000E+00   0.00000000E+00
    outer loop
      vertex    0.00000000E+00   1.00000000E+00   5.00000000E-01
      vertex    0.00000000E+00   7.88232000E-01   5.79980000E-01
      vertex    0.00000000E+00   8.31438000E-01   3.84214000E-01
    endloop
    endfacet    152,149,151,155,150,153,154,156,167,191,192,193,194
  facet normal    1.00000000E+00   0.00000000E+00   0.00000000E+00
    outer loop
      vertex    0.00000000E+00   1.00000000E+00   7.50000000E-01
      vertex    0.00000000E+00   7.66265000E-01   8.37072000E-01
      vertex    0.00000000E+00   7.88232000E-01   5.79980000E-01
    endloop
    endfacet    153,133,151,154,132,141,142,152,155,156,175,192,195
  facet normal    1.00000000E+00  -0.00000000E+00   0.00000000E+00
    outer loop
      vertex    0.00000000E+00   5.59359000E-01   6.92455000E-01
      vertex    0.00000000E+00   7.88232000E-01   5.79980000E-01
      vertex    0.00000000E+00   7.66265000E-01   8.37072000E-01
    endloop
    endfacet    154,142,153,156,132,133,141,143,151,152,155,163,164
  facet normal    1.00000000E+00   0.00000000E+00   0.00000000E+00
    outer loop
      vertex    0.00000000E+00   7.88232000E-01   5.79980000E-01
      vertex    0.00000000E+00   5.75162000E-01   3.95197000E-01
      vertex    0.00000000E+00   8.31438000E-01   3.84214000E-01
    endloop
    endfacet    155,152,156,167,149,150,151,153,154,158,159,163,165,166
  facet normal    1.00000000E+00   0.00000000E+00   0.00000000E+00
    outer loop
      vertex    0.00000000E+00   5.59359000E-01   6.92455000E-01
      vertex    0.00000000E+00   5.75162000E-01   3.95197000E-01
      vertex    0.00000000E+00   7.88232000E-01   5.79980000E-01
    endloop
    endfacet    156,154,155,163,142,143,151,152,153,158,159,164,165,166,167
  facet normal    1.00000000E+00   0.00000000E+00  -0.00000000E+00
    outer loop
      vertex    0.00000000E+00   2.41964000E-01   3.90785000E-01
      vertex    0.00000000E+00   3.84519000E-01   5.56067000E-01
      vertex    0.00000000E+00   1.68751000E-01   6.41112000E-01
    endloop
    endfacet    157,147,158,161,144,145,146,148,159,160,162,163,164
  facet normal    1.00000000E+00   0.00000000E+00   0.00000000E+00
    outer loop
      vertex    0.00000000E+00   3.84519000E-01   5.56067000E-01
      vertex    0.00000000E+00   2.41964000E-01   3.90785000E-01
      vertex    0.00000000E+00   5.75162000E-01   3.95197000E-01
    endloop
    endfacet    158,157,159,163,144,145,147,155,156,160,161,164,165,166,167
  facet normal    1.00000000E+00   0.00000000E+00  -0.00000000E+00
    outer loop
      vertex    0.00000000E+00   3.87996000E-01   2.21487000E-01
      vertex    0.00000000E+00   5.75162000E-01   3.95197000E-01
      vertex    0.00000000E+00   2.41964000E-01   3.90785000E-01
    endloop
    endfacet    159,158,160,165,134,135,137,144,145,147,155,156,157,163,166,167
  facet normal    1.00000000E+00   0.00000000E+00   0.00000000E+00
    outer loop
      vertex    0.00000000E+00   1.77321000E-01   1.71634000E-01
      vertex    0.00000000E+00   3.87996000E-01   2.21487000E-01
      vertex    0.00000000E+00   2.41964000E-01   3.90785000E-01
    endloop
    endfacet    160,135,145,159,126,127,134,137,144,147,157,158,165
  facet normal    1.00000000E+00   0.00000000E+00   0.00000000E+00
    outer loop
      vertex    0.00000000E+00   3.84519000E-01   5.56067000E-01
      vertex    0.00000000E+00   3.35188000E-01   7.94584000E-01
      vertex    0.00000000E+00   1.68751000E-01   6.41112000E-01
    endloop
    endfacet    161,157,162,164,139,140,143,146,147,148,158,163
  facet normal    1.00000000E+00   0.00000000E+00  -0.00000000E+00
    outer loop
      vertex    0.00000000E+00   1.68751000E-01   6.41112000E-01
      vertex    0.00000000E+00   3.35188000E-01   7.94584000E-01
      vertex    0.00000000E+00   1.51756000E-01   8.47329000E-01
    endloop
    endfacet    162,140,148,161,130,131,139,143,146,147,157,164
  facet normal    1.00000000E+00  -0.00000000E+00   0.00000000E+00
    outer loop
      vertex    0.00000000E+00   3.84519000E-01   5.56067000E-01
      vertex    0.00000000E+00   5.75162000E-01   3.95197000E-01
      vertex    0.00000000E+00   5.59359000E-01   6.92455000E-01
    endloop
    endfacet    163,156,158,164,142,143,154,155,157,159,161,165,166,167
  facet normal    1.00000000E+00   0.00000000E+00   0.00000000E+00
    outer loop
      vertex    0.00000000E+00   5.59359000E-01   6.92455000E-01
      vertex    0.00000000E+00   3.35188000E-01   7.94584000E-01
      vertex    0.00000000E+00   3.84519000E-01   5.56067000E-01
    endloop
    endfacet    164,143,161,163,139,140,142,154,156,157,158,162
  facet normal    1.00000000E+00   0.00000000E+00   0.00000000E+00
    outer loop
      vertex    0.00000000E+00   6.04444000E-01   1.58362000E-01
      vertex    0.00000000E+00   5.75162000E-01   3.95197000E-01
      vertex    0.00000000E+00   3.87996000E-01   2.21487000E-01
    endloop
    endfacet    165,137,159,166,134,135,136,138,155,156,158,160,163,167
  facet normal    1.00000000E+00   0.00000000E+00   0.00000000E+00
    outer loop
      vertex    0.00000000E+00   5.75162000E-01   3.95197000E-01
      vertex    0.00000000E+00   6.04444000E-01   1.58362000E-01
      vertex    0.00000000E+00   7.93507000E-01   1.97962000E-01
    endloop
    endfacet    166,138,165,167,128,129,136,137,150,155,156,158,159,163
  facet normal    1.00000000E+00   0.00000000E+00   0.00000000E+00
    outer loop
      vertex    0.00000000E+00   8.31438000E-01   3.84214000E-01
      vertex    0.00000000E+00   5.75162000E-01   3.95197000E-01
      vertex    0.00000000E+00   7.93507000E-01   1.97962000E-01
    endloop
    endfacet    167,150,155,166,128,129,138,149,152,156,158,159,163,165
  facet normal    0.00000000E+00  -1.00000000E+00  -0.00000000E+00
    outer loop
      vertex    8.39916000E-01   1.00000000E+00   1.46557000E-01
      vertex    7.50000000E-01   1.00000000E+00   0.00000000E+00
      vertex    1.00000000E+00   1.00000000E+00   0.00000000E+00
    endloop
    endfacet    168,4,169,180,5,11,12,13,42,43,178,187,198
  facet normal    0.00000000E+00  -1.00000000E+00  -0.00000000E+00
    outer loop
      vertex    1.00000000E+00   1.00000000E+00   2.50000000E-01
      vertex    8.39916000E-01   1.00000000E+00   1.46557000E-01
      vertex    1.00000000E+00   1.00000000E+00   0.00000000E+00
    endloop
    endfacet    169,43,168,187,4,5,42,58,59,180,186,198
  facet normal    0.00000000E+00  -1.00000000E+00   0.00000000E+00
    outer loop
      vertex    2.50000000E-01   1.00000000E+00   0.00000000E+00
      vertex    1.53798000E-01   1.00000000E+00   2.28717000E-01
      vertex    0.00000000E+00   1.00000000E+00   0.00000000E+00
    endloop
    endfacet    170,6,171,177,7,8,9,10,128,129,176,191,193,200
  facet normal   -0.00000000E+00  -1.00000000E+00   0.00000000E+00
    outer loop
      vertex    1.53798000E-01   1.00000000E+00   2.28717000E-01
      vertex    0.00000000E+00   1.00000000E+00   2.50000000E-01
      vertex    0.00000000E+00   1.00000000E+00   0.00000000E+00
    endloop
    endfacet    171,129,170,191,6,7,128,149,150,177,193,200
  facet normal    0.00000000E+00  -1.00000000E+00   0.00000000E+00
    outer loop
      vertex    7.50000000E-01   1.00000000E+00   1.00000000E+00
      vertex    8.42955000E-01   1.00000000E+00   7.68212000E-01
      vertex    1.00000000E+00   1.00000000E+00   1.00000000E+00
    endloop
    endfacet    172,173,185,211,44,45,183,188,189,209,210,239,240,241
  facet normal    0.00000000E+00  -1.00000000E+00   0.00000000E+00
    outer loop
      vertex    8.42955000E-01   1.00000000E+00   7.68212000E-01
      vertex    1.00000000E+00   1.00000000E+00   7.50000000E-01
      vertex    1.00000000E+00   1.00000000E+00   1.00000000E+00
    endloop
    endfacet    173,45,172,188,44,60,62,185,189,209,210,211
  facet normal    0.00000000E+00  -1.00000000E+00   0.00000000E+00
    outer loop
      vertex    1.45839000E-01   1.00000000E+00   8.41274000E-01
      vertex    2.50000000E-01   1.00000000E+00   1.00000000E+00
      vertex    0.00000000E+00   1.00000000E+00   1.00000000E+00
    endloop
    endfacet    174,175,182,217,132,133,181,195,208,216,236,237,238
  facet normal    0.00000000E+00  -1.00000000E+00   0.00000000E+00
    outer loop
      vertex    0.00000000E+00   1.00000000E+00   7.50000000E-01
      vertex    1.45839000E-01   1.00000000E+00   8.41274000E-01
      vertex    0.00000000E+00   1.00000000E+00   1.00000000E+00
    endloop
    endfacet    175,133,174,195,132,151,153,182,192,208,216,217
  facet normal    0.00000000E+00  -1.00000000E+00  -0.00000000E+00
    outer loop
      vertex    3.82760000E-01   1.00000000E+00   1.93346000E-01
      vertex    2.50000000E-01   1.00000000E+00   0.00000000E+00
      vertex    5.00000000E-01   1.00000000E+00   0.00000000E+00
    endloop
    endfacet    176,8,177,179,6,9,10,11,170,178,196,199,200
  facet normal    0.00000000E+00  -1.00000000E+00   0.00000000E+00
    outer loop
      vertex    1.53798000E-01   1.00000000E+00   2.28717000E-01
      vertex    2.50000000E-01   1.00000000E+00   0.00000000E+00
      vertex    3.82760000E-01   1.00000000E+00   1.93346000E-01
    endloop
    endfacet    177,170,176,200,6,8,9,10,171,179,191,193,196,199
  facet normal    0.00000000E+00  -1.00000000E+00  -0.00000000E+00
    outer loop
      vertex    6.37171000E-01   1.00000000E+00   1.68319000E-01
      vertex    5.00000000E-01   1.00000000E+00   0.00000000E+00
      vertex    7.50000000E-01   1.00000000E+00   0.00000000E+00
    endloop
    endfacet    178,11,179,180,4,8,12,13,168,176,196,197,198
  facet normal   -0.00000000E+00  -1.00000000E+00   0.00000000E+00
    outer loop
      vertex    6.37171000E-01   1.00000000E+00   1.68319000E-01
      vertex    3.82760000E-01   1.00000000E+00   1.93346000E-01
      vertex    5.00000000E-01   1.00000000E+00   0.00000000E+00
    endloop
    endfacet    179,176,178,196,8,11,177,180,197,198,199,200
  facet normal   -0.00000000E+00  -1.00000000E+00   0.00000000E+00
    outer loop
      vertex    8.39916000E-01   1.00000000E+00   1.46557000E-01
      vertex    6.37171000E-01   1.00000000E+00   1.68319000E-01
      vertex    7.50000000E-01   1.00000000E+00   0.00000000E+00
    endloop
    endfacet    180,168,178,198,4,11,12,13,169,179,187,196,197
  facet normal    0.00000000E+00  -1.00000000E+00   0.00000000E+00
    outer loop
      vertex    2.50000000E-01   1.00000000E+00   1.00000000E+00
      vertex    3.51598000E-01   1.00000000E+00   8.21602000E-01
      vertex    5.00000000E-01   1.00000000E+00   1.00000000E+00
    endloop
    endfacet    181,182,184,236,174,183,205,206,208,217,237,238,239
  facet normal    0.00000000E+00  -1.00000000E+00  -0.00000000E+00
    outer loop
      vertex    2.50000000E-01   1.00000000E+00   1.00000000E+00
      vertex    1.45839000E-01   1.00000000E+00   8.41274000E-01
      vertex    3.51598000E-01   1.00000000E+00   8.21602000E-01
    endloop
    endfacet    182,174,181,208,175,184,195,205,206,217,236,237,238
  facet normal    0.00000000E+00  -1.00000000E+00   0.00000000E+00
    outer loop
      vertex    6.08903000E-01   1.00000000E+00   7.86685000E-01
      vertex    7.50000000E-01   1.00000000E+00   1.00000000E+00
      vertex    5.00000000E-01   1.00000000E+00   1.00000000E+00
    endloop
    endfacet    183,184,185,239,172,181,206,207,209,211,236,240,241
  facet normal    0.00000000E+00  -1.00000000E+00  -0.00000000E+00
    outer loop
      vertex    5.00000000E-01   1.00000000E+00   1.00000000E+00
      vertex    3.51598000E-01   1.00000000E+00   8.21602000E-01
      vertex    6.08903000E-01   1.00000000E+00   7.86685000E-01
    endloop
    endfacet    184,181,183,206,182,185,205,207,208,209,236,239
  facet normal    0.00000000E+00  -1.00000000E+00   0.00000000E+00
    outer loop
      vertex    8.42955000E-01   1.00000000E+00   7.68212000E-01
      vertex    7.50000000E-01   1.00000000E+00   1.00000000E+00
      vertex    6.08903000E-01   1.00000000E+00   7.86685000E-01
    endloop
    endfacet    185,172,183,209,173,184,188,189,206,207,211,239,240,241
  facet normal    0.00000000E+00  -1.00000000E+00   0.00000000E+00
    outer loop
      vertex    7.96196000E-01   1.00000000E+00   3.45438000E-01
      vertex    1.00000000E+00   1.00000000E+00   2.50000000E-01
      vertex    1.00000000E+00   1.00000000E+00   5.00000000E-01
    endloop
    endfacet    186,58,187,190,43,59,60,61,169,188,189,197,198,203
  facet normal    0.00000000E+00  -1.00000000E+00   0.00000000E+00
    outer loop
      vertex    8.39916000E-01   1.00000000E+00   1.46557000E-01
      vertex    1.00000000E+00   1.00000000E+00   2.50000000E-01
      vertex    7.96196000E-01   1.00000000E+00   3.45438000E-01
    endloop
    endfacet    187,169,186,198,43,58,59,168,180,190,197,203
  facet normal    0.00000000E+00  -1.00000000E+00   0.00000000E+00
    outer loop
      vertex    8.42955000E-01   1.00000000E+00   7.68212000E-01
      vertex    1.00000000E+00   1.00000000E+00   5.00000000E-01
      vertex    1.00000000E+00   1.00000000E+00   7.50000000E-01
    endloop
    endfacet    188,60,173,189,45,58,61,62,172,185,186,190,209
  facet normal    0.00000000E+00  -1.00000000E+00   0.00000000E+00
    outer loop
      vertex    1.00000000E+00   1.00000000E+00   5.00000000E-01
      vertex    8.42955000E-01   1.00000000E+00   7.68212000E-01
      vertex    6.98825000E-01   1.00000000E+00   5.72586000E-01
    endloop
    endfacet    189,188,190,209,58,60,61,172,173,185,186,202,203,207
  facet normal    0.00000000E+00  -1.00000000E+00   0.00000000E+00
    outer loop
      vertex    7.96196000E-01   1.00000000E+00   3.45438000E-01
      vertex    1.00000000E+00   1.00000000E+00   5.00000000E-01
      vertex    6.98825000E-01   1.00000000E+00   5.72586000E-01
    endloop
    endfacet    190,186,189,203,58,60,61,187,188,197,198,202,207,209
  facet normal    0.00000000E+00  -1.00000000E+00   0.00000000E+00
    outer loop
      vertex    1.53798000E-01   1.00000000E+00   2.28717000E-01
      vertex    0.00000000E+00   1.00000000E+00   5.00000000E-01
      vertex    0.00000000E+00   1.00000000E+00   2.50000000E-01
    endloop
    endfacet    191,149,171,193,129,150,151,152,170,177,192,194,200
  facet normal    0.00000000E+00  -1.00000000E+00   0.00000000E+00
    outer loop
      vertex    0.00000000E+00   1.00000000E+00   5.00000000E-01
      vertex    2.04994000E-01   1.00000000E+00   6.50711000E-01
      vertex    0.00000000E+00   1.00000000E+00   7.50000000E-01
    endloop
    endfacet    192,151,194,195,133,149,152,153,175,191,193,204,205,208
  facet normal    0.00000000E+00  -1.00000000E+00   0.00000000E+00
    outer loop
      vertex    0.00000000E+00   1.00000000E+00   5.00000000E-01
      vertex    1.53798000E-01   1.00000000E+00   2.28717000E-01
      vertex    2.90031000E-01   1.00000000E+00   4.28955000E-01
    endloop
    endfacet    193,191,194,200,149,151,152,170,171,177,192,199,201,204
  facet normal    0.00000000E+00  -1.00000000E+00   0.00000000E+00
    outer loop
      vertex    0.00000000E+00   1.00000000E+00   5.00000000E-01
      vertex    2.90031000E-01   1.00000000E+00   4.28955000E-01
      vertex    2.04994000E-01   1.00000000E+00   6.50711000E-01
    endloop
    endfacet    194,192,193,204,149,151,152,191,195,199,200,201,205,208
  facet normal    0.00000000E+00  -1.00000000E+00   0.00000000E+00
    outer loop
      vertex    2.04994000E-01   1.00000000E+00   6.50711000E-01
      vertex    1.45839000E-01   1.00000000E+00   8.41274000E-01
      vertex    0.00000000E+00   1.00000000E+00   7.50000000E-01
    endloop
    endfacet    195,175,192,208,133,151,153,174,182,194,204,205
  facet normal    0.00000000E+00  -1.00000000E+00   0.00000000E+00
    outer loop
      vertex    6.37171000E-01   1.00000000E+00   1.68319000E-01
      vertex    5.41537000E-01   1.00000000E+00   3.89524000E-01
      vertex    3.82760000E-01   1.00000000E+00   1.93346000E-01
    endloop
    endfacet    196,179,197,199,176,177,178,180,198,200,201,202,203
  facet normal   -0.00000000E+00  -1.00000000E+00   0.00000000E+00
    outer loop
      vertex    7.96196000E-01   1.00000000E+00   3.45438000E-01
      vertex    5.41537000E-01   1.00000000E+00   3.89524000E-01
      vertex    6.37171000E-01   1.00000000E+00   1.68319000E-01
    endloop
    endfacet    197,196,198,203,178,179,180,186,187,190,199,201,202
  facet normal    0.00000000E+00  -1.00000000E+00  -0.00000000E+00
    outer loop
      vertex    7.96196000E-01   1.00000000E+00   3.45438000E-01
      vertex    6.37171000E-01   1.00000000E+00   1.68319000E-01
      vertex    8.39916000E-01   1.00000000E+00   1.46557000E-01
    endloop
    endfacet    198,180,187,197,168,169,178,179,186,190,196,203
  facet normal    0.00000000E+00  -1.00000000E+00   0.00000000E+00
    outer loop
      vertex    3.82760000E-01   1.00000000E+00   1.93346000E-01
      vertex    5.41537000E-01   1.00000000E+00   3.89524000E-01
      vertex    2.90031000E-01   1.00000000E+00   4.28955000E-01
    endloop
    endfacet    199,196,200,201,176,177,179,193,194,197,202,203,204
  facet normal    0.00000000E+00  -1.00000000E+00   0.00000000E+00
    outer loop
      vertex    3.82760000E-01   1.00000000E+00   1.93346000E-01
      vertex    2.90031000E-01   1.00000000E+00   4.28955000E-01
      vertex    1.53798000E-01   1.00000000E+00   2.28717000E-01
    endloop
    endfacet    200,177,193,199,170,171,176,179,191,194,196,201,204
  facet normal    0.00000000E+00  -1.00000000E+00  -0.00000000E+00
    outer loop
      vertex    4.53205000E-01   1.00000000E+00   6.09887000E-01
      vertex    2.90031000E-01   1.00000000E+00   4.28955000E-01
      vertex    5.41537000E-01   1.00000000E+00   3.89524000E-01
    endloop
    endfacet    201,199,202,204,193,194,196,197,200,203,205,206,207
  facet normal    0.00000000E+00  -1.00000000E+00   0.00000000E+00
    outer loop
      vertex    4.53205000E-01   1.00000000E+00   6.09887000E-01
      vertex    5.41537000E-01   1.00000000E+00   3.89524000E-01
      vertex    6.98825000E-01   1.00000000E+00   5.72586000E-01
    endloop
    endfacet    202,201,203,207,189,190,196,197,199,204,205,206,209
  facet normal    0.00000000E+00  -1.00000000E+00   0.00000000E+00
    outer loop
      vertex    7.96196000E-01   1.00000000E+00   3.45438000E-01
      vertex    6.98825000E-01   1.00000000E+00   5.72586000E-01
      vertex    5.41537000E-01   1.00000000E+00   3.89524000E-01
    endloop
    endfacet    203,190,197,202,186,187,189,196,198,199,201,207,209
  facet normal   -0.00000000E+00  -1.00000000E+00   0.00000000E+00
    outer loop
      vertex    4.53205000E-01   1.00000000E+00   6.09887000E-01
      vertex    2.04994000E-01   1.00000000E+00   6.50711000E-01
      vertex    2.90031000E-01   1.00000000E+00   4.28955000E-01
    endloop
    endfacet    204,194,201,205,192,193,195,199,200,202,206,207,208
  facet normal    0.00000000E+00  -1.00000000E+00   0.00000000E+00
    outer loop
      vertex    4.53205000E-01   1.00000000E+00   6.09887000E-01
      vertex    3.51598000E-01   1.00000000E+00   8.21602000E-01
      vertex    2.04994000E-01   1.00000000E+00   6.50711000E-01
    endloop
    endfacet    205,204,206,208,181,182,184,192,194,195,201,202,207
  facet normal   -0.00000000E+00  -1.00000000E+00   0.00000000E+00
    outer loop
      vertex    6.08903000E-01   1.00000000E+00   7.86685000E-01
      vertex    3.51598000E-01   1.00000000E+00   8.21602000E-01
      vertex    4.53205000E-01   1.00000000E+00   6.09887000E-01
    endloop
    endfacet    206,184,205,207,181,182,183,185,201,202,204,208,209
  facet normal    0.00000000E+00  -1.00000000E+00   0.00000000E+00
    outer loop
      vertex    4.53205000E-01   1.00000000E+00   6.09887000E-01
      vertex    6.98825000E-01   1.00000000E+00   5.72586000E-01
      vertex    6.08903000E-01   1.00000000E+00   7.86685000E-01
    endloop
    endfacet    207,202,206,209,183,184,185,189,190,201,203,204,205
  facet normal    0.00000000E+00  -1.00000000E+00   0.00000000E+00
    outer loop
      vertex    2.04994000E-01   1.00000000E+00   6.50711000E-01
      vertex    3.51598000E-01   1.00000000E+00   8.21602000E-01
      vertex    1.45839000E-01   1.00000000E+00   8.41274000E-01
    endloop
    endfacet    208,182,195,205,174,175,181,184,192,194,204,206
  facet normal    0.00000000E+00  -1.00000000E+00   0.00000000E+00
    outer loop
      vertex    6.08903000E-01   1.00000000E+00   7.86685000E-01
      vertex    6.98825000E-01   1.00000000E+00   5.72586000E-01
      vertex    8.42955000E-01   1.00000000E+00   7.68212000E-01
    endloop
    endfacet    209,185,189,207,172,173,183,184,188,190,202,203,206
  facet normal    0.00000000E+00  -0.00000000E+00  -1.00000000E+00
    outer loop
      vertex    1.00000000E+00   1.00000000E+00   1.00000000E+00
      vertex    1.00000000E+00   7.50000000E-01   1.00000000E+00
      vertex    8.38542000E-01   8.38542000E-01   1.00000000E+00
    endloop
    endfacet    210,44,211,220,45,53,54,172,173,218,219,241
  facet normal    0.00000000E+00   0.00000000E+00  -1.00000000E+00
    outer loop
      vertex    7.50000000E-01   1.00000000E+00   1.00000000E+00
      vertex    1.00000000E+00   1.00000000E+00   1.00000000E+00
      vertex    8.38542000E-01   8.38542000E-01   1.00000000E+00
    endloop
    endfacet    211,172,210,241,44,45,173,183,185,220,239,240
  facet normal    0.00000000E+00  -0.00000000E+00  -1.00000000E+00
    outer loop
      vertex    1.00000000E+00   2.50000000E-01   1.00000000E+00
      vertex    1.00000000E+00   0.00000000E+00   1.00000000E+00
      vertex    8.38542000E-01   1.61458000E-01   1.00000000E+00
    endloop
    endfacet    212,46,213,223,47,55,86,87,221,222,226
  facet normal    0.00000000E+00   0.00000000E+00  -1.00000000E+00
    outer loop
      vertex    1.00000000E+00   0.00000000E+00   1.00000000E+00
      vertex    7.50000000E-01   0.00000000E+00   1.00000000E+00
      vertex    8.38542000E-01   1.61458000E-01   1.00000000E+00
    endloop
    endfacet    213,86,212,226,46,47,87,95,96,223,224,225
  facet normal    0.00000000E+00   0.00000000E+00  -1.00000000E+00
    outer loop
      vertex    2.50000000E-01   0.00000000E+00   1.00000000E+00
      vertex    0.00000000E+00   0.00000000E+00   1.00000000E+00
      vertex    1.61458000E-01   1.61458000E-01   1.00000000E+00
    endloop
    endfacet    214,88,215,229,89,97,99,130,131,227,228,232
  facet normal    0.00000000E+00   0.00000000E+00  -1.00000000E+00
    outer loop
      vertex    0.00000000E+00   0.00000000E+00   1.00000000E+00
      vertex    0.00000000E+00   2.50000000E-01   1.00000000E+00
      vertex    1.61458000E-01   1.61458000E-01   1.00000000E+00
    endloop
    endfacet    215,130,214,232,88,89,131,139,140,229,230,231
  facet normal    0.00000000E+00   0.00000000E+00  -1.00000000E+00
    outer loop
      vertex    0.00000000E+00   7.50000000E-01   1.00000000E+00
      vertex    0.00000000E+00   1.00000000E+00   1.00000000E+00
      vertex    1.61458000E-01   8.38542000E-01   1.00000000E+00
    endloop
    endfacet    216,132,217,235,133,141,174,175,233,234,238
  facet normal    0.00000000E+00   0.00000000E+00  -1.00000000E+00
    outer loop
      vertex    0.00000000E+00   1.00000000E+00   1.00000000E+00
      vertex    2.50000000E-01   1.00000000E+00   1.00000000E+00
      vertex    1.61458000E-01   8.38542000E-01   1.00000000E+00
    endloop
    endfacet    217,174,216,238,132,133,175,181,182,235,236,237
  facet normal    0.00000000E+00  -0.00000000E+00  -1.00000000E+00
    outer loop
      vertex    1.00000000E+00   7.50000000E-01   1.00000000E+00
      vertex    1.00000000E+00   5.00000000E-01   1.00000000E+00
      vertex    7.79762000E-01   5.00000000E-01   1.00000000E+00
    endloop
    endfacet    218,53,219,221,44,54,55,56,57,210,220,222,242,244
  facet normal    0.00000000E+00   0.00000000E+00  -1.00000000E+00
    outer loop
      vertex    7.08333000E-01   7.08333000E-01   1.00000000E+00
      vertex    1.00000000E+00   7.50000000E-01   1.00000000E+00
      vertex    7.79762000E-01   5.00000000E-01   1.00000000E+00
    endloop
    endfacet    219,218,220,242,44,53,54,210,221,222,240,241,243,244
  facet normal   -0.00000000E+00   0.00000000E+00  -1.00000000E+00
    outer loop
      vertex    1.00000000E+00   7.50000000E-01   1.00000000E+00
      vertex    7.08333000E-01   7.08333000E-01   1.00000000E+00
      vertex    8.38542000E-01   8.38542000E-01   1.00000000E+00
    endloop
    endfacet    220,210,219,241,44,53,54,211,218,240,242,243
  facet normal    0.00000000E+00  -0.00000000E+00  -1.00000000E+00
    outer loop
      vertex    1.00000000E+00   5.00000000E-01   1.00000000E+00
      vertex    1.00000000E+00   2.50000000E-01   1.00000000E+00
      vertex    7.79762000E-01   5.00000000E-01   1.00000000E+00
    endloop
    endfacet    221,55,218,222,46,53,56,57,212,219,223,242,244
  facet normal    0.00000000E+00   0.00000000E+00  -1.00000000E+00
    outer loop
      vertex    1.00000000E+00   2.50000000E-01   1.00000000E+00
      vertex    7.08333000E-01   2.91667000E-01   1.00000000E+00
      vertex    7.79762000E-01   5.00000000E-01   1.00000000E+00
    endloop
    endfacet    222,221,223,244,46,55,212,218,219,225,226,242,245
  facet normal    0.00000000E+00   0.00000000E+00  -1.00000000E+00
    outer loop
      vertex    7.08333000E-01   2.91667000E-01   1.00000000E+00
      vertex    1.00000000E+00   2.50000000E-01   1.00000000E+00
      vertex    8.38542000E-01   1.61458000E-01   1.00000000E+00
    endloop
    endfacet    223,212,222,226,46,55,213,221,225,244,245
  facet normal    0.00000000E+00   0.00000000E+00  -1.00000000E+00
    outer loop
      vertex    7.50000000E-01   0.00000000E+00   1.00000000E+00
      vertex    5.00000000E-01   0.00000000E+00   1.00000000E+00
      vertex    5.00000000E-01   2.20238000E-01   1.00000000E+00
    endloop
    endfacet    224,95,225,227,86,96,97,98,213,226,228,245,248
  facet normal    0.00000000E+00  -0.00000000E+00  -1.00000000E+00
    outer loop
      vertex    7.08333000E-01   2.91667000E-01   1.00000000E+00
      vertex    7.50000000E-01   0.00000000E+00   1.00000000E+00
      vertex    5.00000000E-01   2.20238000E-01   1.00000000E+00
    endloop
    endfacet    225,224,226,245,86,95,96,213,222,223,227,228,244,248
  facet normal    0.00000000E+00   0.00000000E+00  -1.00000000E+00
    outer loop
      vertex    7.50000000E-01   0.00000000E+00   1.00000000E+00
      vertex    7.08333000E-01   2.91667000E-01   1.00000000E+00
      vertex    8.38542000E-01   1.61458000E-01   1.00000000E+00
    endloop
    endfacet    226,213,223,225,86,95,96,212,222,224,244,245
  facet normal    0.00000000E+00   0.00000000E+00  -1.00000000E+00
    outer loop
      vertex    5.00000000E-01   0.00000000E+00   1.00000000E+00
      vertex    2.50000000E-01   0.00000000E+00   1.00000000E+00
      vertex    5.00000000E-01   2.20238000E-01   1.00000000E+00
    endloop
    endfacet    227,97,224,228,88,95,98,99,214,225,229,245,248
  facet normal    0.00000000E+00   0.00000000E+00  -1.00000000E+00
    outer loop
      vertex    2.50000000E-01   0.00000000E+00   1.00000000E+00
      vertex    2.91667000E-01   2.91667000E-01   1.00000000E+00
      vertex    5.00000000E-01   2.20238000E-01   1.00000000E+00
    endloop
    endfacet    228,227,229,248,88,97,99,214,224,225,231,232,245,249
  facet normal    0.00000000E+00   0.00000000E+00  -1.00000000E+00
    outer loop
      vertex    2.91667000E-01   2.91667000E-01   1.00000000E+00
      vertex    2.50000000E-01   0.00000000E+00   1.00000000E+00
      vertex    1.61458000E-01   1.61458000E-01   1.00000000E+00
    endloop
    endfacet    229,214,228,232,88,97,99,215,227,231,248,249
  facet normal    0.00000000E+00   0.00000000E+00  -1.00000000E+00
    outer loop
      vertex    0.00000000E+00   2.50000000E-01   1.00000000E+00
      vertex    0.00000000E+00   5.00000000E-01   1.00000000E+00
      vertex    2.20238000E-01   5.00000000E-01   1.00000000E+00
    endloop
    endfacet    230,139,231,233,130,140,141,142,143,215,232,234,247,249
  facet normal   -0.00000000E+00   0.00000000E+00  -1.00000000E+00
    outer loop
      vertex    2.91667000E-01   2.91667000E-01   1.00000000E+00
      vertex    0.00000000E+00   2.50000000E-01   1.00000000E+00
      vertex    2.20238000E-01   5.00000000E-01   1.00000000E+00
    endloop
    endfacet    231,230,232,249,130,139,140,215,228,229,233,234,247,248
  facet normal    0.00000000E+00   0.00000000E+00  -1.00000000E+00
    outer loop
      vertex    0.00000000E+00   2.50000000E-01   1.00000000E+00
      vertex    2.91667000E-01   2.91667000E-01   1.00000000E+00
      vertex    1.61458000E-01   1.61458000E-01   1.00000000E+00
    endloop
    endfacet    232,215,229,231,130,139,140,214,228,230,248,249
  facet normal    0.00000000E+00   0.00000000E+00  -1.00000000E+00
    outer loop
      vertex    0.00000000E+00   5.00000000E-01   1.00000000E+00
      vertex    0.00000000E+00   7.50000000E-01   1.00000000E+00
      vertex    2.20238000E-01   5.00000000E-01   1.00000000E+00
    endloop
    endfacet    233,141,230,234,132,139,142,143,216,231,235,247,249
  facet normal    0.00000000E+00   0.00000000E+00  -1.00000000E+00
    outer loop
      vertex    0.00000000E+00   7.50000000E-01   1.00000000E+00
      vertex    2.91667000E-01   7.08333000E-01   1.00000000E+00
      vertex    2.20238000E-01   5.00000000E-01   1.00000000E+00
    endloop
    endfacet    234,233,235,247,132,141,216,230,231,237,238,246,249
  facet normal    0.00000000E+00   0.00000000E+00  -1.00000000E+00
    outer loop
      vertex    2.91667000E-01   7.08333000E-01   1.00000000E+00
      vertex    0.00000000E+00   7.50000000E-01   1.00000000E+00
      vertex    1.61458000E-01   8.38542000E-01   1.00000000E+00
    endloop
    endfacet    235,216,234,238,132,141,217,233,237,246,247
  facet normal    0.00000000E+00   0.00000000E+00  -1.00000000E+00
    outer loop
      vertex    2.50000000E-01   1.00000000E+00   1.00000000E+00
      vertex    5.00000000E-01   1.00000000E+00   1.00000000E+00
      vertex    5.00000000E-01   7.79762000E-01   1.00000000E+00
    endloop
    endfacet    236,181,237,239,174,182,183,184,217,238,240,243,246
  facet normal    0.00000000E+00   0.00000000E+00  -1.00000000E+00
    outer loop
      vertex    2.91667000E-01   7.08333000E-01   1.00000000E+00
      vertex    2.50000000E-01   1.00000000E+00   1.00000000E+00
      vertex    5.00000000E-01   7.79762000E-01   1.00000000E+00
    endloop
    endfacet    237,236,238,246,174,181,182,217,234,235,239,240,243,247
  facet normal    0.00000000E+00  -0.00000000E+00  -1.00000000E+00
    outer loop
      vertex    2.50000000E-01   1.00000000E+00   1.00000000E+00
      vertex    2.91667000E-01   7.08333000E-01   1.00000000E+00
      vertex    1.61458000E-01   8.38542000E-01   1.00000000E+00
    endloop
    endfacet    238,217,235,237,174,181,182,216,234,236,246,247
  facet normal    0.00000000E+00   0.00000000E+00  -1.00000000E+00
    outer loop
      vertex    5.00000000E-01   1.00000000E+00   1.00000000E+00
      vertex    7.50000000E-01   1.00000000E+00   1.00000000E+00
      vertex    5.00000000E-01   7.79762000E-01   1.00000000E+00
    endloop
    endfacet    239,183,236,240,172,181,184,185,211,237,241,243,246
  facet normal    0.00000000E+00   0.00000000E+00  -1.00000000E+00
    outer loop
      vertex    7.50000000E-01   1.00000000E+00   1.00000000E+00
      vertex    7.08333000E-01   7.08333000E-01   1.00000000E+00
      vertex    5.00000000E-01   7.79762000E-01   1.00000000E+00
    endloop
    endfacet    240,239,241,243,172,183,185,211,219,220,236,237,242,246
  facet normal    0.00000000E+00   0.00000000E+00  -1.00000000E+00
    outer loop
      vertex    7.08333000E-01   7.08333000E-01   1.00000000E+00
      vertex    7.50000000E-01   1.00000000E+00   1.00000000E+00
      vertex    8.38542000E-01   8.38542000E-01   1.00000000E+00
    endloop
    endfacet    241,211,220,240,172,183,185,210,219,239,242,243
  facet normal    0.00000000E+00   0.00000000E+00  -1.00000000E+00
    outer loop
      vertex    5.00000000E-01   5.00000000E-01   1.00000000E+00
      vertex    7.08333000E-01   7.08333000E-01   1.00000000E+00
      vertex    7.79762000E-01   5.00000000E-01   1.00000000E+00
    endloop
    endfacet    242,219,243,244,218,220,221,222,240,241,245,246,247,248,249
  facet normal   -0.00000000E+00   0.00000000E+00  -1.00000000E+00
    outer loop
      vertex    7.08333000E-01   7.08333000E-01   1.00000000E+00
      vertex    5.00000000E-01   5.00000000E-01   1.00000000E+00
      vertex    5.00000000E-01   7.79762000E-01   1.00000000E+00
    endloop
    endfacet    243,240,242,246,219,220,236,237,239,241,244,245,247,248,249
  facet normal    0.00000000E+00   0.00000000E+00  -1.00000000E+00
    outer loop
      vertex    7.08333000E-01   2.91667000E-01   1.00000000E+00
      vertex    5.00000000E-01   5.00000000E-01   1.00000000E+00
      vertex    7.79762000E-01   5.00000000E-01   1.00000000E+00
    endloop
    endfacet    244,222,242,245,218,219,221,223,225,226,243,246,247,248,249
  facet normal    0.00000000E+00  -0.00000000E+00  -1.00000000E+00
    outer loop
      vertex    5.00000000E-01   5.00000000E-01   1.00000000E+00
      vertex    7.08333000E-01   2.91667000E-01   1.00000000E+00
      vertex    5.00000000E-01   2.20238000E-01   1.00000000E+00
    endloop
    endfacet    245,225,244,248,222,223,224,226,227,228,242,243,246,247,249
  facet normal    0.00000000E+00   0.00000000E+00  -1.00000000E+00
    outer loop
      vertex    5.00000000E-01   5.00000000E-01   1.00000000E+00
      vertex    2.91667000E-01   7.08333000E-01   1.00000000E+00
      vertex    5.00000000E-01   7.79762000E-01   1.00000000E+00
    endloop
    endfacet    246,237,243,247,234,235,236,238,239,240,242,244,245,248,249
  facet normal    0.00000000E+00  -0.00000000E+00  -1.00000000E+00
    outer loop
      vertex    2.91667000E-01   7.08333000E-01   1.00000000E+00
      vertex    5.00000000E-01   5.00000000E-01   1.00000000E+00
      vertex    2.20238000E-01   5.00000000E-01   1.00000000E+00
    endloop
    endfacet    247,234,246,249,230,231,233,235,237,238,242,243,244,245,248
  facet normal    0.00000000E+00   0.00000000E+00  -1.00000000E+00
    outer loop
      vertex    2.91667000E-01   2.91667000E-01   1.00000000E+00
      vertex    5.00000000E-01   5.00000000E-01   1.00000000E+00
      vertex    5.00000000E-01   2.20238000E-01   1.00000000E+00
    endloop
    endfacet    248,228,245,249,224,225,227,229,231,232,242,243,244,246,247
  facet normal   -0.00000000E+00   0.00000000E+00  -1.00000000E+00
    outer loop
      vertex    5.00000000E-01   5.00000000E-01   1.00000000E+00
      vertex    2.91667000E-01   2.91667000E-01   1.00000000E+00
      vertex    2.20238000E-01   5.00000000E-01   1.00000000E+00
    endloop
    endfacet    249,231,247,248,228,229,230,232,233,234,242,243,244,245,246
endsolid  solid Created by Gmsh                                                                                                           
